<?xml version="1.0" standalone="no"?>
<!DOCTYPE svg PUBLIC "-//W3C//DTD SVG 1.1//EN" "http://www.w3.org/Graphics/SVG/1.1/DTD/svg11.dtd" >
<svg xmlns="http://www.w3.org/2000/svg" xmlns:xlink="http://www.w3.org/1999/xlink" version="1.1">
<metadata>
Created by FontForge 20170731 at Sun Oct 16 18:37:24 2016
 By Aleksey,,,
Copyright (c) 2016 by Typedepot. All rights reserved.
</metadata>
<defs>
<font id="Neumann" horiz-adv-x="0" >
  <font-face 
    font-family="Neumann"
    font-weight="400"
    font-stretch="normal"
    units-per-em="1000"
    panose-1="2 7 3 3 8 0 0 2 0 4"
    ascent="800"
    descent="-200"
    x-height="500"
    cap-height="860"
    bbox="-533 -434 1298 1160.12"
    underline-thickness="50"
    underline-position="-200"
    unicode-range="U+000D-FB04"
  />
<missing-glyph horiz-adv-x="610" 
d="M55 750h500v-750h-500v750zM98 721l211 -326l210 326h-421zM294 373l-211 328v-656zM323 373l204 -317v634zM309 351l-208 -322h415z" />
    <glyph glyph-name="f_f" unicode="ff" horiz-adv-x="641" 
d="M624 713h-63q3 24 3 45q0 54 -16.5 71.5t-42.5 17.5q-22 0 -35.5 -9t-20 -30t-8 -41.5t-1.5 -55.5v-211h132v-25h-132v-450h97v-25h-250v25h80v450h-69v-1h-117v-474h-153v26h80v448h-80v26h80v193q0 55 15 92.5t43 55t56.5 24t66.5 6.5q62 -1 112 -36q33 35 103 35
q59 0 91 -25t32 -91q0 -20 -3 -41zM367 500l-1 208q0 67 18 103l-1 1q-39 34 -88 36q-15 0 -25 -1t-28.5 -9.5t-30 -24t-21 -47t-9.5 -76.5v-190h186z" />
    <glyph glyph-name="f_i" unicode="fi" horiz-adv-x="541" 
d="M450 25h63v-25h-227v25h91v450h-196l1 -474l-154 -1v26h80v449h-80v25h80l1 203q1 168 173 168q168 0 168 -139v-52h-73v46q0 24 -1 38.5t-6 32.5t-15 27.5t-28.5 16.5t-44.5 7q-47 0 -74 -31.5t-27 -126.5v-190h269v-475z" />
    <glyph glyph-name="f_l" unicode="fl" horiz-adv-x="552" 
d="M495 25h25v-25h-87q-28 0 -41.5 8.5t-13.5 35.5v682q0 29 -2.5 47.5t-12 37.5t-30 28t-53.5 9q-47 0 -72.5 -31.5t-25.5 -126.5v-190h109v-25h-109l1 -449h92v-26h-247v26h81v449h-80v25h80l1 203q1 96 46.5 132t123.5 36q79 0 125 -35t46 -108v-647q0 -56 44 -56z" />
    <glyph glyph-name="f_f_i" unicode="ffi" horiz-adv-x="809" 
d="M718 25h63v-25h-207v25h71v449h-196l1 -473l-144 -1v26h70v448h-195v-474h-153v26h80v448h-80v26h80v193q0 55 15 92.5t43 55t56.5 24t66.5 6.5q71 -1 125 -46q40 46 132 46q75 0 123.5 -33.5t48.5 -105.5v-52h-73v46q0 57 -21.5 89.5t-77.5 32.5q-22 0 -37.5 -5.5
t-30 -21t-22 -48.5t-7.5 -83v-190h269v-475zM376 500l1 203q0 63 21 98q-39 45 -103 47q-15 0 -25 -1t-28.5 -9.5t-30 -24t-21 -47t-9.5 -76.5v-190h195z" />
    <glyph glyph-name="f_f_l" unicode="ffl" horiz-adv-x="819" 
d="M762 25h25v-25h-87q-28 0 -41.5 8.5t-13.5 35.5l1 682q0 29 -2.5 47.5t-12 37.5t-30 28t-53.5 9q-22 0 -37.5 -5.5t-30 -21t-22.5 -48.5t-8 -83l-1 -190h109v-25h-109l1 -449h92v-26h-237v26h71v449l-195 -1v-474h-153v26h80v448h-80v26h80v193q0 45 10.5 78t27 52
t41.5 30.5t49 15t53 2.5q71 -1 125 -46q41 46 133 46q79 0 125 -35t46 -108v-657q0 -25 9 -35.5t35 -10.5zM376 500l1 203q0 67 18 97q-44 48 -99 48q-14 0 -24.5 -1t-29 -9.5t-30 -24t-21 -47t-9.5 -76.5l-1 -190h195z" />
    <glyph glyph-name="f_b" unicode="fb" horiz-adv-x="844" 
d="M774 365q11 -57 11 -121q0 -59 -10 -108q-15 -70 -54 -106.5t-128 -36.5q-127 0 -151 113l-4 -106h-60v726q0 29 -2.5 47.5t-12 37.5t-30 28t-53.5 9q-47 0 -72.5 -31.5t-25.5 -126.5v-190h109v-25h-109l1 -450h92v-25h-247v25h81v450h-80v25h80l1 203q1 96 46.5 132
t123.5 36q79 0 125 -35t46 -108l-1 -318q27 95 150 95q81 0 121 -35t53 -105zM702 128q8 53 8 121q0 66 -8 121q-9 63 -33 87.5t-76 24.5q-39 0 -65.5 -11.5t-40.5 -33.5t-20.5 -42t-10.5 -49q-5 -35 -5 -97q0 -63 5 -98q4 -29 10.5 -49.5t21 -41.5t41 -32.5t64.5 -11.5
q52 0 76 24.5t33 87.5z" />
    <glyph glyph-name="f_j" unicode="fj" horiz-adv-x="530" 
d="M450 500l1 -667q0 -71 -30 -96.5t-107 -25.5q-30 0 -56 4l1 25q26 -4 43 -4q12 0 22 1.5t17.5 3.5t13.5 7.5t9.5 7.5t6.5 11.5t4.5 12t2 15t0.5 15v17.5v18l-1 630h-196l1 -474l-154 -1v26h80v449h-80v25h80l1 203q1 168 173 168q168 0 168 -139v-52h-73v46q0 24 -1 38.5
t-6 32.5t-15 27.5t-28.5 16.5t-44.5 7q-47 0 -74 -31.5t-27 -126.5v-190h269z" />
    <glyph glyph-name="f_t" unicode="ft" horiz-adv-x="668" 
d="M571 141h52v-42q0 -62 -31 -85.5t-85 -23.5q-45 0 -70.5 7t-38.5 27t-16.5 43.5t-3.5 68.5v339h-196l1 -449h92v-26h-247v26h81v449h-80v25h80l1 203q1 96 46.5 132t123.5 36q79 0 125 -35t46 -108v-228h132v-25h-132v-332q0 -78 9 -99q13 -31 53 -31q58 0 58 104v24z
M182 500h196v226q0 29 -2.5 47.5t-12 37.5t-30 28t-53.5 9q-47 0 -72.5 -31.5t-25.5 -126.5v-190z" />
    <glyph glyph-name=".notdef" horiz-adv-x="610" 
d="M55 750h500v-750h-500v750zM98 721l211 -326l210 326h-421zM294 373l-211 328v-656zM323 373l204 -317v634zM309 351l-208 -322h415z" />
    <glyph glyph-name=".null" horiz-adv-x="40" 
 />
    <glyph glyph-name=".null" horiz-adv-x="40" 
 />
    <glyph glyph-name="nonmarkingreturn" horiz-adv-x="333" 
 />
    <glyph glyph-name="CR" unicode="&#xd;" horiz-adv-x="358" 
 />
    <glyph glyph-name="space" unicode=" " horiz-adv-x="310" 
 />
    <glyph glyph-name="exclam" unicode="!" horiz-adv-x="220" 
d="M153 860l-26 -672h-33l-28 672h87zM110 -20q-55 0 -55 55t55 55t55 -55t-55 -55z" />
    <glyph glyph-name="quotedbl" unicode="&#x22;" horiz-adv-x="361" 
d="M104 869q37 0 37 -38q0 -74 -21 -215h-31q-22 147 -22 215q0 38 37 38zM257 869q37 0 37 -38q0 -74 -21 -215h-31q-22 147 -22 215q0 38 37 38z" />
    <glyph glyph-name="numbersign" unicode="#" horiz-adv-x="766" 
d="M701 566h-127l-78 -295h131l-8 -23h-129l-66 -248h-33l65 248h-232l-65 -248h-33l65 248h-139l9 23h137l77 295h-140l9 23h137l72 271h33l-72 -271h232l72 271h34l-72 -271h131zM463 271l77 295h-232l-77 -295h232z" />
    <glyph glyph-name="dollar" unicode="$" horiz-adv-x="610" 
d="M533 214q0 -110 -51 -163t-167 -61v-85h-33v84h-14q-55 0 -95 14t-61.5 34t-34 50.5t-15.5 55.5t-3 56v40h65v-40q0 -35 2.5 -58.5t10.5 -48.5t23.5 -40t42.5 -25t65 -11h14v399l-18 10q-11 7 -40.5 22t-46 24.5t-40.5 29.5t-37.5 40.5t-23.5 53.5t-10 72q0 106 57 152.5
t159 49.5v76h33v-76q125 -5 142 -108l6 104h56v-223h-65q-6 100 -35 147.5t-104 52.5v-361q10 -6 41 -21.5t49 -25.5t45.5 -32t43 -45.5t27.5 -61t12 -81.5zM140 685q0 -33 8 -59t16 -41.5t30 -32.5t33 -23.5t42 -22.5q9 -5 13 -7v343q-73 -2 -107.5 -35t-34.5 -122z
M315 397v-379q75 8 103.5 54t28.5 127q0 44 -7.5 74.5t-27.5 53t-39.5 36t-57.5 34.5z" />
    <glyph glyph-name="percent" unicode="%" horiz-adv-x="853" 
d="M348 660q0 -118 -33.5 -168.5t-113.5 -50.5q-79 0 -112.5 50.5t-33.5 168.5t33.5 168t112.5 50t113 -50t34 -168zM289 660q-1 109 -21 155.5t-67 46.5t-67.5 -46.5t-20.5 -155.5t20.5 -156t67.5 -47q49 0 69 47t19 156zM208 0h-22l416 860h22zM758 213
q0 -118 -33.5 -168.5t-113.5 -50.5q-79 0 -112.5 50.5t-33.5 168.5t33.5 168t112.5 50t113 -50t34 -168zM699 213q-1 109 -21 155.5t-67 46.5t-67.5 -46.5t-20.5 -155.5t20.5 -156t67.5 -47q49 0 69 47t19 156z" />
    <glyph glyph-name="ampersand" unicode="&#x26;" horiz-adv-x="810" 
d="M775 0l-69 -45q-52 34 -139 119q-66 -83 -215 -83q-142 0 -204.5 66t-62.5 167q0 50 15.5 90t45 68t56.5 45t65 35q-62 116 -62 205q0 85 43.5 130.5t126.5 45.5q76 0 117 -38t41 -99q0 -75 -45.5 -127.5t-144.5 -109.5q23 -42 95 -138q70 -93 148 -171q30 74 30 190
l-1 30h-69v25h164v-25h-73l-1 -50q-3 -118 -31 -189q85 -83 170 -141zM383 821q-99 -5 -99 -135q0 -100 47 -194q81 39 113.5 93.5t32.5 128.5q0 52 -23 80.5t-71 26.5zM375 18q114 0 173 75q-109 112 -184 221q-61 86 -82 121q-55 -33 -86 -77t-31 -117q0 -111 59.5 -167
t150.5 -56z" />
    <glyph glyph-name="quotesingle" unicode="'" horiz-adv-x="244" 
d="M122 869q37 0 37 -38q0 -74 -21 -215h-31q-22 147 -22 215q0 38 37 38z" />
    <glyph glyph-name="parenleft" unicode="(" horiz-adv-x="386" 
d="M326 -119l-11 -12q-117 90 -173.5 228t-56.5 283t56.5 283t173.5 229l11 -12q-79 -79 -121 -209.5t-41 -290.5q-1 -160 41.5 -290.5t120.5 -208.5z" />
    <glyph glyph-name="parenright" unicode=")" horiz-adv-x="371" 
d="M207 380q1 160 -41 290.5t-121 209.5l11 12q117 -91 173.5 -229t56.5 -283t-56.5 -283t-173.5 -228l-11 12q78 78 120.5 208.5t41.5 290.5z" />
    <glyph glyph-name="asterisk" unicode="*" horiz-adv-x="610" 
d="M540 497q19 -10 23 -27t-4 -26q-19 -32 -56 -11q-14 8 -31.5 20.5t-33 25t-52.5 42.5t-67 54q30 -196 30 -231q0 -21 -11 -32t-26 -11t-26 11t-11 32q0 35 33 233q-31 -24 -68.5 -54.5t-53 -43t-33.5 -25.5t-32 -21q-21 -10 -34.5 -6t-20.5 17q-8 10 -4.5 26.5t22.5 26.5
q8 5 16.5 9.5t21.5 10t22.5 9.5t29.5 11.5t34 12.5t44 16t51 19q-37 15 -82.5 32t-64 24.5t-38.5 16.5t-34 17q-37 22 -18 54q7 12 20.5 16t34.5 -6q36 -21 188 -147q-34 198 -34 236q0 22 11 32.5t26 10.5t26 -10.5t11 -32.5q0 -29 -31 -234q16 13 41.5 34.5t36 30t28 22.5
l25 20t19 14.5t19.5 13.5l16 10q36 21 56 -10q18 -33 -19 -54q-14 -8 -34 -17t-38.5 -16.5t-64 -24.5t-82.5 -32q16 -6 40.5 -15t36.5 -13.5t30 -11t26.5 -10t21.5 -8.5t20 -8t15.5 -7t15 -7.5t13.5 -7.5z" />
    <glyph glyph-name="plus" unicode="+" horiz-adv-x="632" 
d="M577 389v-21h-248v-250h-25v250h-248v21h248v250h25v-250h248z" />
    <glyph glyph-name="comma" unicode="," horiz-adv-x="238" 
d="M155 4q-5 -18 -15 -25t-32 -7q-53 0 -53 50q0 59 61 59q67 0 67 -81q0 -115 -122 -131l-5 17q64 3 85 37.5t14 80.5z" />
    <glyph glyph-name="hyphen" unicode="-" horiz-adv-x="569" 
d="M514 358v-40h-459v40h459z" />
    <glyph glyph-name="period" unicode="." horiz-adv-x="220" 
d="M110 -20q-55 0 -55 55t55 55t55 -55t-55 -55z" />
    <glyph glyph-name="slash" unicode="/" horiz-adv-x="346" 
d="M74 -97h-29l253 1032h28z" />
    <glyph glyph-name="zero" unicode="0" horiz-adv-x="614" 
d="M514 703q21 -127 21 -272t-21 -272q-9 -46 -27 -79t-38.5 -50.5t-47.5 -28t-48 -13t-46 -2.5t-46 2.5t-48 13t-47.5 28t-38.5 50.5t-27 79q-21 127 -21 272t21 272q9 46 27 79t38.5 50.5t47.5 28t48 13t46 2.5t46 -2.5t48 -13t47.5 -28t38.5 -50.5t27 -79zM440 171
q14 79 14 260t-14 260q-14 91 -43.5 124.5t-89.5 33.5t-89.5 -33.5t-43.5 -124.5q-14 -79 -14 -260t14 -260q14 -91 43.5 -124.5t89.5 -33.5t89.5 33.5t43.5 124.5z" />
    <glyph glyph-name="one" unicode="1" horiz-adv-x="399" 
d="M348 25v-25h-297v25h116v817l-106 -21l-2 25l135 32h56v-853h98z" />
    <glyph glyph-name="two" unicode="2" horiz-adv-x="594" 
d="M378 378q-25 -16 -66.5 -43t-56 -37t-40.5 -28.5t-33.5 -28t-20.5 -26t-16 -32t-6 -35.5t-3 -46v-28h359v-74l-410 1v98q0 40 11 74.5t25 56.5t40.5 44.5t44.5 33.5t50.5 29.5t46.5 27.5q69 44 94 108.5t25 165.5q0 107 -26 158.5t-99 51.5q-67 0 -93 -45t-29 -139
l-1 -30l-82 -1v20q0 117 58.5 170t151.5 53q114 0 160.5 -57.5t46.5 -174.5q0 -60 -10 -105t-30.5 -75.5t-40.5 -48.5t-50 -38z" />
    <glyph glyph-name="three" unicode="3" horiz-adv-x="593" 
d="M498 657q0 -91 -31 -140.5t-104 -60.5q82 -14 113.5 -71.5t31.5 -152.5q0 -73 -8.5 -117.5t-33.5 -75t-67.5 -42.5t-111.5 -12q-32 0 -55.5 2.5t-53.5 12.5t-48.5 27.5t-31.5 51.5t-13 81v89h74v-77q0 -91 33 -125.5t95 -34.5q33 0 57.5 6.5t39.5 22.5t23.5 32t12.5 47
t5 54t1 66q0 24 -0.5 39.5t-3.5 43.5t-11 46.5t-20 37.5t-32.5 29t-48.5 10h-79v25h79q62 0 85 40t23 124q0 43 -2 71t-8.5 58t-19.5 47t-35 28t-54 11q-127 0 -127 -163v-53h-74v64q0 54 19 92t51.5 55.5t64 24.5t68.5 7q107 0 152 -55.5t45 -164.5z" />
    <glyph glyph-name="four" unicode="4" horiz-adv-x="575" 
d="M524 222h-100v-197h98v-25h-283v25h103v197h-280l1 25l310 613h52l-1 -613h100v-25zM341 247v473l-242 -473h242z" />
    <glyph glyph-name="five" unicode="5" horiz-adv-x="575" 
d="M135 787l-1 -318q28 101 146 101q61 0 101 -13.5t62 -31.5t32.5 -62.5t12.5 -80.5t2 -111q0 -78 -6.5 -124.5t-27 -86t-62 -56.5t-107.5 -17q-33 0 -56 2t-53 12t-48.5 27.5t-31.5 51.5t-13 81v69h74v-57q0 -91 32.5 -125t95.5 -34q35 0 59 12.5t37.5 31.5t20.5 55
t9 69.5t2 88.5q0 43 -0.5 63t-2 53t-5 48t-9.5 37t-16 32t-24 20.5t-33.5 14.5t-44.5 4q-127 0 -133 -122h-46l1 439h347v-73h-314z" />
    <glyph glyph-name="six" unicode="6" horiz-adv-x="568" 
d="M310 849q-92 0 -121 -92q-18 -57 -22 -224q-1 -26 -1 -33q29 70 130 70q38 0 67.5 -4t51 -15t36.5 -22t25 -34t15.5 -40.5t8 -52.5t3 -59.5t0.5 -71.5q0 -59 -3.5 -98t-15.5 -77.5t-34.5 -60t-60.5 -35t-93 -13.5q-57 0 -95.5 11.5t-61.5 31.5t-35 58t-15.5 78t-3.5 105
q0 106 3 208q4 174 17 235q25 119 116 150q37 12 87 12q94 0 140.5 -45.5t46.5 -147.5l-72 1q0 87 -26.5 125.5t-86.5 39.5zM296 543q-23 0 -41.5 -4.5t-32 -10t-24 -19.5t-17 -23.5t-11 -33t-7 -35.5t-3.5 -44.5t-1 -47v-54.5q0 -56 1 -86t5 -64.5t12.5 -50.5t24 -31
t38.5 -20t56 -5q37 0 61.5 11.5t38.5 29.5t21 54t9 70t2 92v50t-1 44t-2.5 41.5t-4.5 34.5t-8 31t-12 24t-17 21l-22.5 13.5t-28.5 10t-36 2.5z" />
    <glyph glyph-name="seven" unicode="7" horiz-adv-x="477" 
d="M228 15h-83q4 118 15.5 206.5t27.5 157t50 140t69.5 129.5t98.5 152h-381v70h415l2 -67q-59 -91 -99 -174t-62 -148.5t-33.5 -150t-15 -146t-4.5 -169.5z" />
    <glyph glyph-name="eight" unicode="8" horiz-adv-x="626" 
d="M397 455q81 -25 112.5 -72t31.5 -163q0 -76 -12 -122t-42 -71t-68.5 -33t-103.5 -8q-67 0 -107 8.5t-70 33.5t-41.5 70.5t-11.5 120.5q0 116 31.5 163.5t112.5 72.5q-73 12 -103.5 62.5t-30.5 140.5q0 110 48 164.5t170 54.5q121 0 169.5 -54t48.5 -165q0 -91 -30.5 -141
t-103.5 -62zM176 640q0 -41 4 -67.5t17.5 -52t42 -37.5t73.5 -12t73.5 12t41.5 37t17.5 50.5t4.5 64.5v27.5v30t-1 28t-3.5 29.5t-7.5 26t-11.5 25t-17 19.5t-24 16.5t-32 9t-40.5 4q-29 0 -51.5 -6t-36.5 -17t-24.5 -25.5t-15 -32t-7.5 -36t-2.5 -37.5t0.5 -38v-18zM313 13
q35 0 60.5 6t41.5 21t25.5 30t13.5 43t5 49t1 59q0 42 -1.5 66.5t-9 58t-22.5 52t-43.5 32t-70.5 13.5q-41 0 -69.5 -13t-43.5 -31t-23 -51.5t-9.5 -59.5t-1.5 -70t2 -69.5t9.5 -55t23 -44.5t43.5 -25.5t69 -10.5z" />
    <glyph glyph-name="nine" unicode="9" horiz-adv-x="614" 
d="M88 231l69 1l-2 -56q0 -89 41.5 -126.5t104.5 -37.5q30 0 53 11t38.5 28t26.5 48t16.5 58.5t8.5 74t3.5 79.5t0.5 89q-26 -53 -64 -71t-98 -18q-69 0 -112 16.5t-64.5 55t-28 85t-6.5 123.5q0 148 45.5 216.5t165.5 68.5q64 0 107.5 -17t70.5 -47.5t41 -88t19 -123.5
t5 -169q0 -56 -1 -93t-4 -83.5t-9.5 -77t-17.5 -64t-28 -54.5t-40.5 -39t-55.5 -26t-72 -8q-27 0 -48 1.5t-54.5 11.5t-55.5 28t-39 54.5t-17 87.5zM149 591q0 -54 2 -87.5t10 -68.5t23 -54t41.5 -31t64.5 -12q89 0 121.5 59t32.5 194q0 138 -29.5 198t-124.5 60
q-82 0 -111.5 -64.5t-29.5 -193.5z" />
    <glyph glyph-name="colon" unicode=":" horiz-adv-x="220" 
d="M110 406q-55 0 -55 55t55 55t55 -55t-55 -55zM110 -19q-55 0 -55 55t55 55t55 -55t-55 -55z" />
    <glyph glyph-name="semicolon" unicode=";" horiz-adv-x="238" 
d="M110 403q-55 0 -55 55t55 55t55 -55t-55 -55zM155 13q-5 -18 -15 -25t-32 -7q-53 0 -53 50q0 59 61 59q67 0 67 -81q0 -115 -122 -131l-3 14q114 19 97 121z" />
    <glyph glyph-name="less" unicode="&#x3c;" horiz-adv-x="638" 
d="M563 589l-456 -222l456 -222l-10 -26l-488 248l488 248z" />
    <glyph glyph-name="equal" unicode="=" horiz-adv-x="586" 
d="M531 490v-21h-476v21h476zM531 295v-21h-476v21h476z" />
    <glyph glyph-name="greater" unicode="&#x3e;" horiz-adv-x="638" 
d="M95 615l488 -248l-488 -248l-10 26l456 222l-456 222z" />
    <glyph glyph-name="question" unicode="?" horiz-adv-x="421" 
d="M208 870q45 0 76 -4.5t52 -17.5t33 -27.5t18 -43.5t7.5 -56.5t1.5 -75.5q0 -52 -13.5 -85.5t-33 -46.5t-43 -28t-43 -29.5t-33 -50t-13.5 -90.5v-113h-47v113q0 54 16 89t38.5 53t45 37t38.5 56t16 95v10q0 37 -0.5 54t-2.5 43t-6.5 37t-12.5 26t-20.5 20.5t-30.5 10
t-43 4.5q-60 0 -82 -28t-27 -94l-1 -112h-73l1 109q6 88 50.5 116.5t131.5 28.5zM195 -9q-55 0 -55 55t55 55t55 -55t-55 -55z" />
    <glyph glyph-name="at" unicode="@" horiz-adv-x="1063" 
d="M692 -13q-56 0 -78.5 24t-14.5 58l7 30q-37 -62 -69 -84.5t-87 -22.5q-85 0 -125.5 45.5t-40.5 142.5q0 143 77.5 233.5t192.5 90.5t122 -110l25 104h71l-91 -415q-9 -40 -0.5 -54t36.5 -14q86 0 149 98t63 228q0 63 -18.5 116t-57.5 97.5t-106 70.5t-157 27
q-205 3 -327.5 -116.5t-122.5 -331.5q0 -361 373 -361q206 0 357 84l9 -23q-147 -84 -363 -84q-59 0 -110.5 7t-110.5 30t-101.5 60.5t-73 104t-35.5 155.5q-8 150 57.5 265.5t182 175.5t262.5 57q98 -1 175 -31.5t123 -81t69.5 -112t23.5 -129.5q0 -140 -86.5 -237
t-199.5 -97zM465 15q54 0 87.5 40.5t59.5 115.5q9 26 33 135q5 24 6.5 48t-2.5 55.5t-26 51t-61 19.5q-60 0 -105 -47.5t-66.5 -117.5t-21.5 -149q0 -151 96 -151z" />
    <glyph glyph-name="A" unicode="A" horiz-adv-x="635" 
d="M567 25h63v-25h-255v25h105l-61 267h-247l-67 -267h90v-25h-190v25h62l209 838h91zM180 322h232l-110 479h-3z" />
    <glyph glyph-name="B" unicode="B" horiz-adv-x="636" 
d="M51 860h287q48 0 83.5 -5.5t59 -18.5t37.5 -28.5t21.5 -41.5t10 -51.5t2.5 -64.5q0 -35 -5 -63t-18.5 -54.5t-40.5 -44t-67 -22.5q89 -12 116.5 -56t27.5 -160q0 -55 -3 -87.5t-14.5 -67.5t-34.5 -53t-64 -30t-101 -12h-297v25h78v810h-78v25zM212 472h113
q84 0 112.5 40.5t28.5 137.5q0 31 -0.5 46t-3 39t-8 35t-16 26.5t-26.5 22t-39.5 11.5t-54.5 5h-106v-363zM212 25h126q48 0 76 11.5t42 42t18 67.5t4 104q0 59 -4.5 91.5t-20 59t-46 36.5t-82.5 10h-113v-422z" />
    <glyph glyph-name="C" unicode="C" horiz-adv-x="617" 
d="M565 240v-40q0 -30 -4.5 -56t-18 -55.5t-36 -50.5t-62.5 -34.5t-93 -13.5q-41 0 -64 2t-54.5 11t-51 26.5t-39 51t-32.5 82.5q-25 97 -25 255q0 165 24 272q23 102 73.5 140.5t153.5 38.5q131 0 158 -92l6 88h56v-223h-65q-3 111 -36 154t-120 43q-74 0 -104 -32
t-44 -124q-15 -107 -15 -287q0 -157 15 -235q10 -49 22.5 -77.5t34.5 -42.5t44 -17.5t63 -3.5q37 0 62 7.5t39.5 19.5t21.5 37t9 49.5t2 66.5v40h80z" />
    <glyph glyph-name="D" unicode="D" horiz-adv-x="698" 
d="M51 860h310q107 0 157 -32.5t72 -131.5q23 -104 23 -270q0 -167 -24 -263q-9 -35 -21.5 -61t-24 -43.5t-30.5 -29t-32 -17.5t-38.5 -8.5t-38 -3t-42.5 -0.5h-311v25h78v810h-78v25zM212 25h107q34 0 52.5 1t46 8.5t43 21t30 41t19.5 66.5q16 112 16 285q0 160 -16 249
q-7 38 -23 65.5t-33.5 41t-44.5 21t-45 9t-45 1.5h-107v-810z" />
    <glyph glyph-name="E" unicode="E" horiz-adv-x="638" 
d="M421 433h-209v-408h280v174h65v-199h-506v25h78v810h-78v25h502v-196h-65v171h-276v-372h209v92h43v-224h-43v102z" />
    <glyph glyph-name="F" unicode="F" horiz-adv-x="579" 
d="M51 25h78v810h-78v25h498l1 -197h-65v172h-273v-379h210v99h43v-224h-43v100h-210v-406h120v-25h-281v25z" />
    <glyph glyph-name="G" unicode="G" horiz-adv-x="679" 
d="M393 391h236v-25h-62v-366h-58l-3 131q-24 -141 -177 -141q-32 0 -52 2t-48 11.5t-47 27t-38.5 51.5t-32.5 82q-26 97 -26 263q0 168 25 271q25 100 75 135.5t154 35.5q135 0 165 -90l5 86h56v-223h-66l-3 44q-5 82 -41 117.5t-116 35.5q-73 0 -103.5 -27t-44.5 -119
q-18 -116 -18 -268q0 -169 18 -261q16 -80 45 -112t92 -32q160 0 160 167v179h-95v25z" />
    <glyph glyph-name="H" unicode="H" horiz-adv-x="741" 
d="M690 835h-78v-810h78v-25h-239v25h78v401h-317v-401h78v-25h-239v25h78v810h-78v25h239v-25h-78v-375h317v375h-78v25h239v-25z" />
    <glyph glyph-name="I" unicode="I" horiz-adv-x="341" 
d="M290 0h-239v25h78v810h-78v25h239v-25h-78v-810h78v-25z" />
    <glyph glyph-name="J" unicode="J" horiz-adv-x="486" 
d="M173 860h292v-25h-79v-692q0 -79 -52.5 -115.5t-133.5 -36.5q-30 0 -57 4.5t-57 16.5t-47.5 38t-17.5 64l-1 54l71 1l1 -59q1 -89 107 -89q17 0 32 3.5t33 13t28.5 32t10.5 55.5v710h-130v25z" />
    <glyph glyph-name="K" unicode="K" horiz-adv-x="678" 
d="M638 25h35v-25h-61h-19q-29 0 -41.5 0.5t-30 4.5t-23.5 12t-14.5 24.5t-11.5 40t-6 59.5l-12 170q-5 63 -41.5 92.5t-122.5 29.5h-78v-408h108v-25h-269v25h78v810h-78v25h255v-25h-94v-372h76q46 0 73.5 10.5t44.5 42t24 68t16 110.5l16 141h-68v25h230v-25h-86
l-19 -149q-15 -130 -44.5 -178t-101.5 -59q157 -12 168 -158l13 -154q6 -68 20.5 -90t63.5 -22z" />
    <glyph glyph-name="L" unicode="L" horiz-adv-x="563" 
d="M547 0h-496v25h78v810h-78v25h239v-25h-78v-810h271v177l65 -1z" />
    <glyph glyph-name="M" unicode="M" horiz-adv-x="902" 
d="M773 25h78v-25h-239v25h78v801h-4l-220 -826h-79l-214 826h-6v-801h88v-25h-204v25h78v810h-78v25h196l200 -776h3l205 776h196v-25h-78v-810z" />
    <glyph glyph-name="N" unicode="N" horiz-adv-x="698" 
d="M585 835v-835l-85 -1l-345 825h-4v-799h78v-25h-194v25h78v810h-78v25h192l318 -767h2v742h-78v25h194v-25h-78z" />
    <glyph glyph-name="O" unicode="O" horiz-adv-x="692" 
d="M346 -11q-105 0 -159 37t-78 136q-27 109 -25 268q-2 158 25 267q25 99 78.5 136t158.5 37t158.5 -37t78.5 -136q24 -114 24 -267q0 -169 -24 -268t-78 -136t-159 -37zM346 16q74 0 108.5 29.5t48.5 122.5q15 95 15 262q0 166 -15 261q-14 93 -48.5 122.5t-108.5 29.5
t-108.5 -29.5t-48.5 -122.5q-15 -95 -15 -261q0 -167 15 -262q14 -93 48.5 -122.5t108.5 -29.5z" />
    <glyph glyph-name="P" unicode="P" horiz-adv-x="634" 
d="M51 860h244q118 0 137 -2q75 -10 103 -66q24 -51 24 -152q0 -58 -2 -91t-9 -67t-20.5 -50.5t-38.5 -30.5t-60 -18.5t-87 -4.5h-130v-353h120v-25h-281v25h78v810h-78v25zM212 403h120q49 0 76 9t42 39t18.5 70t3.5 119q0 126 -27 160.5t-126 34.5h-108z" />
    <glyph glyph-name="Q" unicode="Q" horiz-adv-x="692" 
d="M583 162q-23 -96 -74.5 -133.5t-148.5 -39.5q44 1 72.5 -23t32.5 -74q4 -43 16 -57t47 -14h18v-17h-98q-32 0 -42.5 18.5t-14.5 74.5q-4 51 -25 67.5t-78 27.5q-75 8 -116.5 46.5t-62.5 123.5q-27 109 -25 268q-2 158 25 267q25 99 78.5 136t158.5 37t158.5 -37
t78.5 -136q24 -114 24 -267q0 -169 -24 -268zM503 168q15 95 15 262q0 166 -15 261q-14 93 -48.5 122.5t-108.5 29.5t-108.5 -29.5t-48.5 -122.5q-15 -95 -15 -261q0 -167 15 -262q14 -93 48.5 -122.5t108.5 -29.5t108.5 29.5t48.5 122.5z" />
    <glyph glyph-name="R" unicode="R" horiz-adv-x="705" 
d="M660 25h35v-25h-60h-19q-30 0 -43 0.5t-30.5 4.5t-24.5 12t-15 24t-11 39.5t-4 59.5l-7 169q-1 36 -14.5 61.5t-31 38.5t-45 20t-46 8.5t-45.5 1.5h-86l-1 -414h108v-25h-269v25h78v810h-78v25h319q56 0 95 -12t60 -29.5t32 -48t13.5 -55.5t2.5 -65q0 -89 -38 -138
t-121 -61q16 -1 32 -4.5t39 -14.5t39.5 -27t29.5 -46.5t15 -69.5l7 -153q3 -66 18.5 -88.5t65.5 -22.5zM213 464h107q102 0 134.5 37t32.5 149q0 65 -5 99.5t-23.5 55t-45 25.5t-79.5 5h-121v-371z" />
    <glyph glyph-name="S" unicode="S" horiz-adv-x="604" 
d="M543 214q1 -123 -60 -174t-203 -51q-58 0 -100 14t-64.5 34t-35.5 50.5t-16 55t-3 56.5v40h80v-40q0 -89 26.5 -133t112.5 -47q101 -4 139 41.5t38 138.5q0 106 -30.5 143.5t-141.5 92.5q-6 3 -9 5q-6 3 -30 14.5t-34.5 17t-32 18.5t-32.5 23t-26.5 27.5t-23 35t-13.5 41
t-6 50.5q0 110 59.5 156t168.5 46q133 0 152 -108l6 104h56v-223h-65q-5 105 -37 151t-113 46t-117 -30t-36 -116q0 -22 4.5 -41.5t9.5 -33.5t19 -29t20.5 -22.5t28 -20.5t27.5 -16.5t32.5 -17t31.5 -15.5t25 -12.5t28.5 -14.5t28.5 -16t29.5 -20t26.5 -22.5t26 -27.5
t21 -32.5t18 -39.5t10.5 -45t4.5 -53z" />
    <glyph glyph-name="T" unicode="T" horiz-adv-x="591" 
d="M511 662v173h-174v-810h142v-25h-367v25h142v810h-174v-173h-65v198h561v-198h-65z" />
    <glyph glyph-name="U" unicode="U" horiz-adv-x="700" 
d="M680 835h-86v-630q0 -215 -229 -215q-125 0 -193.5 50t-68.5 148v647h-78v25h239v-25h-78v-640q0 -175 180 -175q93 0 139 47.5t46 135.5v632h-107v25h236v-25z" />
    <glyph glyph-name="V" unicode="V" horiz-adv-x="693" 
d="M688 860v-25h-89l-230 -835h-78l-223 835h-63v25h254v-25h-105l200 -755l1 1l210 754h-93v25h216z" />
    <glyph glyph-name="W" unicode="W" horiz-adv-x="1004" 
d="M999 860v-25h-71l-207 -835h-89l-137 537l-152 -537h-86l-190 835h-62v25h261v-25h-114l174 -767h3l150 533l-60 234h-52v25h252v-25h-106l189 -767h2l190 767h-119v25h224z" />
    <glyph glyph-name="X" unicode="X" horiz-adv-x="671" 
d="M581 25h85v-25h-274v25h99l-182 369l-189 -369h96v-25h-211v25h73l211 410l-198 400h-79v25h291v-25h-122l159 -323l165 323h-80v25h203v-25h-82l-186 -363z" />
    <glyph glyph-name="Y" unicode="Y" horiz-adv-x="700" 
d="M618 835l-213 -485v-325h142v-25h-367v25h142v325l-211 485h-106v25h309v-25h-115l192 -435l191 435h-105v25h218v-25h-77z" />
    <glyph glyph-name="Z" unicode="Z" horiz-adv-x="587" 
d="M544 835l-404 -810h336l-1 207h65l-1 -232h-496v25l410 810h-335v-207h-65l1 232h490v-25z" />
    <glyph glyph-name="bracketleft" unicode="[" horiz-adv-x="314" 
d="M259 885h-103v-1008h103v-25h-174v1058h174v-25z" />
    <glyph glyph-name="backslash" unicode="\" horiz-adv-x="346" 
d="M272 -97l-252 1032h28l253 -1032h-29z" />
    <glyph glyph-name="bracketright" unicode="]" horiz-adv-x="314" 
d="M55 885v25h174v-1058h-174v25h103v1008h-103z" />
    <glyph glyph-name="asciicircum" unicode="^" horiz-adv-x="585" 
d="M459 527l-21 -10l-148 308l-148 -308l-21 10l169 331z" />
    <glyph glyph-name="underscore" unicode="_" horiz-adv-x="569" 
d="M514 41v-41h-459v41h459z" />
    <glyph glyph-name="a" unicode="a" horiz-adv-x="509" 
d="M456 25h30v-25h-74q-46 0 -59 12t-12 53q-29 -71 -135 -71q-49 0 -81.5 11.5t-47.5 33.5t-20 44t-5 52q0 67 30 97t117 42q37 6 91 6q33 0 49 -1v104q0 102 -90 102q-28 0 -48 -7t-29.5 -17t-15 -24t-6 -23.5t-0.5 -21.5l1 -28h-72l-1 23q-3 69 42 95t126 26
q82 0 124 -27.5t42 -104.5v-304q0 -26 9.5 -36.5t34.5 -10.5zM339 154v101q-27 3 -54 3q-30 0 -54 -4q-66 -11 -85 -40.5t-19 -82.5q0 -21 3 -36.5t12 -35t31 -30t56 -10.5q52 0 81 36.5t29 98.5z" />
    <glyph glyph-name="b" unicode="b" horiz-adv-x="556" 
d="M486 365q11 -57 11 -121q0 -59 -10 -108q-15 -70 -54 -106.5t-128 -36.5q-127 0 -151 113l-4 -106h-60v835h-70v25q63 0 143 10v-79l-1 -381q27 95 150 95q81 0 121 -35t53 -105zM414 128q8 53 8 121q0 66 -8 121q-9 63 -33 87.5t-76 24.5q-39 0 -65.5 -11.5t-40.5 -33.5
t-20.5 -42t-10.5 -49q-5 -35 -5 -97q0 -63 5 -98q4 -29 10.5 -49.5t21 -41.5t41 -32.5t64.5 -11.5q52 0 76 24.5t33 87.5z" />
    <glyph glyph-name="c" unicode="c" horiz-adv-x="477" 
d="M358 158h64v-23q0 -30 -6 -52t-23 -44t-53 -33.5t-89 -11.5t-87.5 9.5t-54 30t-28 43.5t-14.5 60q-8 54 -8 113t8 113q12 74 47 108.5t129 34.5q63 0 90 -23.5t36 -62.5l4 80h45v-151h-60q0 63 -24 98.5t-91 35.5q-16 0 -29 -1.5t-23 -6.5t-17 -8t-12.5 -13t-8.5 -13
t-5.5 -17.5t-3 -17.5t-2.5 -21t-2 -20q-6 -49 -6 -118q0 -65 6 -112q7 -60 17 -77q22 -41 94 -41q62 0 84.5 25t22.5 90v26z" />
    <glyph glyph-name="d" unicode="d" horiz-adv-x="564" 
d="M511 25h30v-25h-74q-47 0 -55.5 16t-8.5 89q-24 -112 -152 -112q-87 0 -127 36t-54 104q-10 49 -10 108q0 69 10 121q14 71 53.5 107t120.5 36q124 0 151 -95l-2 382v44h-70v25q63 0 143 10v-59l1 -731q0 -56 44 -56zM388 144q6 42 6 99q0 64 -5 99q-8 65 -36.5 102.5
t-101.5 37.5q-53 0 -76.5 -26.5t-32.5 -91.5q-7 -48 -7 -121q0 -68 8 -121q9 -58 33 -82t75 -24q71 0 99.5 35t37.5 93z" />
    <glyph glyph-name="e" unicode="e" horiz-adv-x="493" 
d="M370 157h64q0 -85 -38.5 -124.5t-130.5 -39.5t-144.5 35t-58.5 128q-3 46 -3 94t3 94q6 93 56.5 128t136.5 35q78 0 126 -35.5t54 -127.5v-98h-301q0 -42 3 -96q5 -70 33 -102t95 -32q63 0 84 32t21 109zM137 350q-3 -40 -3 -79h236q0 50 -1 76q-1 20 -2.5 33.5t-8 35
t-17.5 35t-33 23.5t-53 10q-60 0 -86.5 -32t-31.5 -102z" />
    <glyph glyph-name="f" unicode="f" horiz-adv-x="382" 
d="M246 847q-22 0 -35.5 -9t-20 -30t-8 -41.5t-1.5 -55.5v-211h132v-25h-132v-450h97v-25h-250v25h80v450h-80v25h80l-1 208q0 83 31.5 122.5t106.5 39.5q59 0 91 -25t32 -91q0 -20 -3 -41h-63q3 24 3 45q0 54 -16.5 71.5t-42.5 17.5z" />
    <glyph glyph-name="g" unicode="g" horiz-adv-x="506" 
d="M244 63q136 0 181.5 -34t45.5 -136q0 -98 -45 -130.5t-179 -32.5q-113 0 -159.5 32.5t-46.5 113.5q0 44 8 84l75 -9q-8 -36 -8 -75q0 -29 3 -46.5t15 -37.5t40.5 -29.5t73.5 -9.5q88 0 118 28.5t30 111.5q0 70 -30 93t-119 23q-53 0 -87 7t-49 21.5t-19.5 27t-4.5 29.5
q0 29 19 50t47 26q-53 14 -73.5 53.5t-20.5 110.5q1 93 40 133t146 40q28 0 68.5 -5.5t46.5 -5.5q18 1 30.5 11.5t12.5 26.5q0 13 -6 29t-12 25l-6 10l70 6q21 -27 20 -56q-2 -68 -93 -68q30 -19 42.5 -54t13.5 -90q-1 -94 -39 -134.5t-143 -41.5q-122 0 -122 -47
q0 -50 116 -50zM130 335q-1 -86 25.5 -119t89.5 -33q67 0 92 32.5t24 119.5t-25 118.5t-91 30.5q-66 0 -90 -31t-25 -118z" />
    <glyph glyph-name="h" unicode="h" horiz-adv-x="568" 
d="M515 25h30v-25h-92q-28 0 -41.5 8.5t-13.5 35.5v318q0 25 -2.5 41t-11.5 36.5t-31.5 31t-58.5 10.5q-53 0 -89.5 -40.5t-36.5 -112.5v-303h79v-25h-222v25h70v810h-65v25q81 0 138 7v-454q16 44 56.5 68.5t96.5 24.5q81 0 115.5 -36t34.5 -101v-288q0 -56 44 -56z" />
    <glyph glyph-name="i" unicode="i" horiz-adv-x="258" 
d="M131 645q-29 0 -41.5 12.5t-12.5 41.5q0 55 54 55q55 0 55 -55q0 -54 -55 -54zM171 25h59v-25h-202v25h70v450h-70v25q63 0 143 10v-485z" />
    <glyph glyph-name="j" unicode="j" horiz-adv-x="267" 
d="M134 754q27 0 40.5 -16t13.5 -39q0 -54 -54 -54q-29 0 -42 12.5t-13 40.5q0 56 55 56zM173 510v-52l1 -585q0 -71 -30 -96.5t-107 -25.5q-30 0 -56 4l1 25q26 -4 43 -4q12 0 22 1.5t17.5 3.5t13.5 7.5t9.5 7.5t6.5 11.5t4.5 12t2 15t0.5 15v17.5v18l-1 563v27h-70v25
q63 0 143 10z" />
    <glyph glyph-name="k" unicode="k" horiz-adv-x="535" 
d="M479 25h21v-25h-54h-14q-26 0 -36.5 1t-21 9t-14 24t-5.5 48l-7 94q-3 42 -25.5 55.5t-99.5 13.5h-55v-220h79v-25h-222v25h70v810h-64v25q81 0 137 7v-597h53q41 0 64 5.5t36.5 25t17.5 39t10 65.5l9 70h-55v25h185v-25h-70l-11 -75q-12 -79 -29 -105.5t-66 -32.5l-1 -1
q104 -8 112 -92l7 -80q3 -39 11.5 -51.5t37.5 -12.5z" />
    <glyph glyph-name="l" unicode="l" horiz-adv-x="264" 
d="M207 24h25v-25h-87q-28 0 -41.5 8.5t-13.5 35.5v792h-70v25q87 0 143 7v-787q0 -56 44 -56z" />
    <glyph glyph-name="m" unicode="m" horiz-adv-x="862" 
d="M809 25h30v-25h-92q-28 0 -41.5 8.5t-13.5 35.5v319q0 26 -2 41.5t-9 36t-26 31t-49 10.5q-53 0 -95.5 -41t-42.5 -112v-304h90v-25h-233v25h70v338q0 20 -1 32.5t-6 31t-14.5 29t-28.5 18.5t-45 8q-47 0 -88 -41.5t-41 -111.5v-304h70v-25h-213v25h70v450h-70v25
q80 0 136 7l1 -76l1 -20q16 46 63 70.5t98 24.5q119 0 138 -95q18 45 64.5 70t95.5 25q81 0 110.5 -34.5t29.5 -102.5v-289q0 -55 44 -55z" />
    <glyph glyph-name="n" unicode="n" horiz-adv-x="571" 
d="M518 25h30v-25h-92q-28 0 -41.5 8.5t-13.5 35.5v319q0 25 -2.5 41t-11.5 36.5t-31.5 31t-58.5 10.5q-53 0 -89.5 -40.5t-36.5 -112.5v-304h79v-25h-222v25h70v450h-70v25q81 0 137 7l1 -76v-19q17 45 59 69.5t99 24.5q81 0 115.5 -36t34.5 -101v-288q0 -56 44 -56z" />
    <glyph glyph-name="o" unicode="o" horiz-adv-x="534" 
d="M466 363q8 -45 8 -113t-8 -113q-11 -72 -54.5 -107.5t-144.5 -35.5t-144.5 35.5t-54.5 107.5q-8 54 -8 113t8 113q11 71 55 107t144 36q99 0 143 -35.5t56 -107.5zM392 135q7 56 7 115t-7 115q-3 27 -8.5 45t-18 36.5t-37 27.5t-61.5 9t-61.5 -9t-37 -27.5t-18 -36.5
t-8.5 -45q-7 -70 -7 -115t7 -115q3 -27 8.5 -45t18 -36.5t37 -27.5t61.5 -9t61.5 9t37 27.5t18 36.5t8.5 45z" />
    <glyph glyph-name="p" unicode="p" horiz-adv-x="563" 
d="M492 364q11 -53 11 -110q0 -66 -10 -118q-14 -71 -54.5 -107t-121.5 -36q-56 0 -94 18.5t-56 69.5v-321h-72v713h-70v25q81 0 137 7l2 -111q22 111 148 111q88 0 127 -35t53 -106zM173 155q4 -29 10.5 -49t20 -43t40.5 -35t66 -12q55 0 78 26t32 91q7 48 7 121
q0 68 -8 121q-9 59 -33 83t-76 24q-68 0 -97.5 -35.5t-37.5 -93.5q-6 -42 -6 -99q0 -71 4 -99z" />
    <glyph glyph-name="q" unicode="q" horiz-adv-x="549" 
d="M407 500h60v-740h-73l2 321q-20 -52 -56.5 -69.5t-94.5 -17.5q-81 0 -121 35t-53 106q-11 57 -11 121q0 55 11 108q14 69 52.5 105t128.5 36q124 0 147 -111zM389 155q5 35 5 99q0 62 -5 97q-8 57 -37 94t-100 37q-52 0 -75.5 -24t-32.5 -83q-8 -53 -8 -121q0 -73 7 -121
q9 -66 33 -91.5t76 -25.5q39 0 66 11.5t41 33.5t20 43t10 51z" />
    <glyph glyph-name="r" unicode="r" horiz-adv-x="419" 
d="M275 506q66 0 92.5 -22.5t26.5 -81.5v-55l-60 1v47q0 45 -11 66.5t-48 21.5q-54 0 -79 -40t-25 -136v-282h106v-25h-249v25h70v450h-70v25q55 0 125 10l3 -110q11 53 42 79.5t77 26.5z" />
    <glyph glyph-name="s" unicode="s" horiz-adv-x="455" 
d="M266 300q77 -21 108 -56.5t31 -102.5q0 -66 -41.5 -106.5t-133.5 -40.5q-57 0 -95 11t-55.5 32.5t-24 44t-6.5 53.5v23h68v-21q0 -68 27 -94t86 -26q61 0 91.5 26.5t30.5 83.5q0 38 -24.5 63t-104.5 47q-88 24 -123 52t-35 97q0 20 6 39t20.5 39t45.5 32t75 12
q92 0 114 -77l2 71h48v-134h-62q0 52 -25 84.5t-76 32.5q-52 0 -75 -18t-23 -59q0 -14 3.5 -26t8 -20t15 -16t18 -12.5t23.5 -10t24.5 -8t28.5 -7.5t30 -8z" />
    <glyph glyph-name="t" unicode="t" horiz-adv-x="370" 
d="M273 141h52v-42q0 -62 -31 -85.5t-85 -23.5q-45 0 -70.5 7t-38.5 27t-16.5 43.5t-3.5 68.5v339h-70v25h70v187q45 0 73 7v-194h132v-25h-132v-332q0 -78 9 -99q13 -31 53 -31q58 0 58 104v24z" />
    <glyph glyph-name="u" unicode="u" horiz-adv-x="575" 
d="M509 25h26v-25h-77q-46 0 -56 14.5t-8 71.5q-33 -92 -158 -92q-74 0 -108.5 34.5t-34.5 112.5v334h-70v25q87 0 143 7v-369q0 -24 3 -41t12.5 -37t31.5 -31t55 -11q53 0 88.5 45.5t35.5 121.5v290h-70v25q87 0 143 7v-436q0 -29 8.5 -37.5t35.5 -8.5z" />
    <glyph glyph-name="v" unicode="v" horiz-adv-x="503" 
d="M488 500v-25h-61l-137 -475h-73l-142 475h-60v25h211v-25h-75l125 -426l121 426h-72v25h163z" />
    <glyph glyph-name="w" unicode="w" horiz-adv-x="698" 
d="M693 500v-25h-43l-128 -475h-77l-95 348l-94 -348h-75l-131 475h-45v25h201v-25h-84l117 -423l97 348l-20 75h-53v25h212v-25h-86l116 -424l116 424h-61v25h133z" />
    <glyph glyph-name="x" unicode="x" horiz-adv-x="515" 
d="M445 25h65v-25h-194v25h45l-130 209l-131 -209h74v-25h-169v25h62l147 236l-135 217h-66v22h217v-22h-65l105 -170l107 170h-54v22h170v-22h-83l-123 -197z" />
    <glyph glyph-name="y" unicode="y" horiz-adv-x="543" 
d="M323 475v25q82 0 138 7v-76l-1 -471q0 -117 -43 -163.5t-156 -46.5q-58 0 -96.5 11t-57 32.5t-25 44t-6.5 53.5v23h67v-16q0 -71 26.5 -98t90.5 -27q83 0 107.5 42.5t24.5 141.5v147q-8 -32 -27.5 -54.5t-44 -32.5t-44.5 -13.5t-40 -3.5q-83 0 -115.5 39.5t-32.5 105.5
v330h-65v25q82 0 138 7v-365q0 -118 90 -118q136 0 136 206v245h-64z" />
    <glyph glyph-name="z" unicode="z" horiz-adv-x="469" 
d="M364 151h54v-151h-356v30l270 444h-217v-124h-54v150h351v-32l-270 -442h222v125z" />
    <glyph glyph-name="braceleft" unicode="{" horiz-adv-x="356" 
d="M199 734v-351q0 -89 -85 -94q85 -5 85 -94v-329q0 -111 77 -111h25v-25h-27q-80 0 -113 34t-33 101v338q0 44 -12 58.5t-48 14.5h-13v26h13q36 0 48 14.5t12 58.5v350q0 67 33 101t113 34h27v-25h-25q-36 0 -56.5 -26t-20.5 -75z" />
    <glyph glyph-name="braceright" unicode="}" horiz-adv-x="356" 
d="M157 383v351q0 49 -20.5 75t-56.5 26h-25v25h27q80 0 113 -34t33 -101v-350q0 -44 12 -58.5t48 -14.5h13v-26h-13q-36 0 -48 -14.5t-12 -58.5v-338q0 -67 -33 -101t-113 -34h-27v25h25q77 0 77 111v329q0 89 85 94q-85 5 -85 94z" />
    <glyph glyph-name="sterling" unicode="&#xa3;" horiz-adv-x="734" 
d="M637 276h21q3 -73 -7.5 -126.5t-29 -84t-48.5 -49t-58.5 -24t-65.5 -5.5q-48 0 -83.5 20t-74.5 58q-57 -77 -139 -77q-46 0 -76.5 22.5t-30.5 68.5q0 51 35.5 73t71.5 22q60 0 131 -48q9 36 8 76q-1 34 -9 73.5t-15.5 63.5t-24 72t-21.5 65h-109v24h101q-26 85 -26 153
q0 119 45.5 168t172.5 49q45 0 74.5 -4t51.5 -16t34 -28t19.5 -47t9.5 -66.5t1 -92.5h-74v35v54t-2 42.5t-6.5 36.5t-12.5 25.5t-20.5 20t-31 9.5t-43.5 4q-75 -1 -104.5 -35.5t-29.5 -117.5q0 -66 40 -190h175v-24h-168q37 -121 37 -195q0 -97 -40 -175q67 -41 134 -41
q28 0 52.5 5t50.5 19.5t44 37t29.5 61t11.5 88.5zM152 15q78 0 116 72q-31 29 -57 44.5t-59 15.5q-28 0 -52.5 -17t-24.5 -51q0 -33 21.5 -48.5t55.5 -15.5z" />
    <glyph glyph-name="currency" unicode="&#xa4;" horiz-adv-x="755" 
d="M655 389q-2 -136 -57 -208l107 -99l-24 -26l-107 99q-69 -63 -202 -63q-144 0 -218 62l-105 -98l-24 26l105 97q-60 71 -58 209q2 140 59 210l-106 97l24 25l105 -98q71 62 214 62q134 0 206 -63l107 99l24 -25l-107 -99q59 -73 57 -207zM371 118q242 0 245 271
q2 128 -59.5 199t-188.5 71q-138 0 -196.5 -70t-60.5 -201q-3 -270 260 -270z" />
    <glyph glyph-name="yen" unicode="&#xa5;" horiz-adv-x="700" 
d="M695 835h-77l-153 -349h122v-25h-133l-49 -111v-11h182v-25h-182v-289h142v-25h-367v25h142v289h-195v25h195v11l-48 111h-147v25h136l-152 349h-106v25h309v-25h-115l192 -435l191 435h-105v25h218v-25z" />
    <glyph glyph-name="section" unicode="&#xa7;" horiz-adv-x="674" 
d="M471 112q53 -43 79.5 -88t26.5 -107q0 -89 -57.5 -142t-176.5 -53q-78 0 -131.5 16t-80 46t-36.5 61.5t-10 72.5v70h75v-58q0 -104 43 -143t140 -39q88 0 128.5 35.5t40.5 124.5q0 25 -7.5 45.5t-16.5 35.5t-37 37t-47.5 35.5t-69.5 45.5q-5 3 -7 4.5t-6 4t-7 4.5
q-56 36 -87 58.5t-67.5 56.5t-52.5 69t-16 75q0 49 29.5 98.5t91.5 80.5q-42 30 -62.5 63.5t-20.5 88.5q0 27 8 51.5t29.5 51t67.5 42t113 15.5q46 0 79 -13t49.5 -36t23.5 -44t11 -48h1l7 132h48v-205h-71q-1 14 -2 19.5t-2 19.5q-10 148 -143 148q-155 0 -155 -120
q0 -26 10 -48t32.5 -41t41.5 -31.5t53.5 -32.5t52.5 -32q55 -36 84.5 -57.5t62 -52.5t46 -63.5t13.5 -70.5q0 -62 -31 -110t-87 -72zM158 413q0 -13 3 -25.5t6.5 -23t12.5 -22.5t15 -20.5t21 -21.5t23 -20t28.5 -22t30.5 -22t35.5 -25t37.5 -26q8 -5 37.5 -26.5t44.5 -32.5
q86 44 86 128q0 51 -41.5 92.5t-163.5 130.5q-19 14 -93 61q-83 -52 -83 -125z" />
    <glyph glyph-name="copyright" unicode="&#xa9;" horiz-adv-x="1015" 
d="M507 -12q-193 0 -322.5 119.5t-129.5 323.5q0 136 61.5 238t163 153t227.5 51t228 -51t163.5 -153t61.5 -238t-61.5 -238t-163.5 -153.5t-228 -51.5zM507 11q184 0 303 111t119 308q0 132 -56.5 228.5t-151 144t-214.5 47.5q-183 0 -302 -111.5t-119 -308.5t119 -308
t302 -111zM712 334v-18q0 -68 -46 -115t-153 -47q-73 0 -120 16t-72.5 52.5t-35 83.5t-9.5 120q0 149 50.5 215t186.5 66q44 0 74 -8.5t46 -27t21.5 -29.5t13.5 -34l4 95h37v-170h-53l-2 23q-5 63 -35 97.5t-106 34.5q-53 0 -87.5 -19t-51.5 -59t-22.5 -85t-5.5 -114
q0 -57 5.5 -95.5t22.5 -73.5t51.5 -52.5t87.5 -17.5q76 0 112 40.5t36 109.5v12h51z" />
    <glyph glyph-name="guillemotleft" unicode="&#xab;" horiz-adv-x="449" 
d="M207 500h17q-17 -81 -37.5 -128t-61.5 -109q41 -63 61.5 -110t37.5 -128h-17q-20 72 -49.5 118.5t-101.5 119.5q67 68 98.5 114t52.5 123zM377 500h17q-17 -81 -37.5 -128t-61.5 -109q41 -63 61.5 -110t37.5 -128h-17q-21 77 -52.5 123t-98.5 115q67 68 98.5 114
t52.5 123z" />
    <glyph glyph-name="registered" unicode="&#xae;" horiz-adv-x="1075" 
d="M537 873q126 0 228 -51t163.5 -153t61.5 -238t-61.5 -238t-163.5 -153.5t-228 -51.5q-193 0 -322.5 119.5t-129.5 323.5q0 136 61.5 238t163 153t227.5 51zM537 7q184 0 305.5 113.5t121.5 310.5t-121.5 310.5t-305.5 113.5q-183 0 -304.5 -113.5t-121.5 -310.5
t121.5 -310.5t304.5 -113.5zM691 343l8 -99q4 -45 13.5 -61t40.5 -16h23v-10h-39h-12q-48 0 -61 10q-16 15 -21 80l-8 108q-7 84 -137 84h-55l-1 -265h70v-17h-173v17h50v518h-50v17h205q52 0 84 -9.5t45.5 -30t17 -38t3.5 -47.5q0 -64 -25 -96t-84 -42v-1q11 1 24.5 -2
t32.5 -11.5t32.5 -31.5t16.5 -57zM443 455h69q83 0 105 23t22 96q0 42 -2.5 61.5t-15.5 34.5t-35 18.5t-65 3.5h-78v-237z" />
    <glyph glyph-name="plusminus" unicode="&#xb1;" horiz-adv-x="571" 
d="M273 268v200h-218v21h218v200h25v-200h218v-21h-218v-200h-25zM55 153h462v-21h-462v21z" />
    <glyph glyph-name="acute" unicode="&#xb4;" horiz-adv-x="256" 
d="M144 771q16 30 34 27q20 -3 20 -24q0 -16 -41 -60q-35 -37 -81 -98l-13 7q13 21 81 148z" />
    <glyph glyph-name="paragraph" unicode="&#xb6;" horiz-adv-x="742" 
d="M637 860v-22h-109v-971h-30l1 971h-111v-971h-30v391h-40q-101 0 -154.5 37t-74.5 106q-18 56 -16 180q3 94 16 136q44 143 229 143h319zM163 409q30 -128 155 -128h40l2 556h-42q-125 0 -155 -128q-11 -48 -13 -129q-3 -97 13 -171z" />
    <glyph glyph-name="guillemotright" unicode="&#xbb;" horiz-adv-x="449" 
d="M56 500h17q21 -77 52.5 -123t98.5 -114q-67 -69 -98.5 -115t-52.5 -123h-17q17 81 37.5 128t61.5 110q-41 62 -61.5 109t-37.5 128zM226 500h17q21 -77 52.5 -123t98.5 -114q-72 -73 -101.5 -119.5t-49.5 -118.5h-17q17 81 37.5 128t61.5 110q-41 62 -61.5 109t-37.5 128
z" />
    <glyph glyph-name="questiondown" unicode="&#xbf;" horiz-adv-x="421" 
d="M226 605q55 0 55 -55t-55 -55t-55 55t55 55zM213 -274q-45 0 -76 4.5t-52 17.5t-33 27.5t-18 43.5t-7.5 56.5t-1.5 75.5q0 52 13.5 85.5t33 46.5t43 28t43 29.5t33 50t13.5 90.5v113h47v-113q0 -54 -16 -89t-38.5 -53t-45 -37t-38.5 -56t-16 -95v-10q0 -37 0.5 -54
t2.5 -43t6.5 -37t12.5 -26t20.5 -20.5t30.5 -10t43 -4.5q60 0 82 28t27 94l1 112h73l-1 -109q-6 -88 -50.5 -116.5t-131.5 -28.5z" />
    <glyph glyph-name="Agrave" unicode="&#xc0;" horiz-adv-x="635" 
d="M298 1046q-49 28 -67.5 43t-18.5 34q0 16 10 26.5t27 10.5q21 2 49 -28q91 -100 165 -166l-12 -13q-46 32 -153 93zM567 25h63v-25h-255v25h105l-61 267h-247l-67 -267h90v-25h-190v25h62l209 838h91zM180 322h232l-110 479h-3z" />
    <glyph glyph-name="Aacute" unicode="&#xc1;" horiz-adv-x="635" 
d="M413 1047q-100 -57 -153 -94l-12 13q51 46 165 166q28 30 49 28q37 -3 37 -37q0 -19 -18 -33t-68 -43zM567 25h63v-25h-255v25h105l-61 267h-247l-67 -267h90v-25h-190v25h62l209 838h91zM180 322h232l-110 479h-3z" />
    <glyph glyph-name="Acircumflex" unicode="&#xc2;" horiz-adv-x="635" 
d="M341 1045q-87 -54 -149 -101l-14 13q56 55 123 135q18 21 40 21t40 -21q67 -80 123 -135l-14 -13q-62 47 -149 101zM567 25h63v-25h-255v25h105l-61 267h-247l-67 -267h90v-25h-190v25h62l209 838h91zM180 322h232l-110 479h-3z" />
    <glyph glyph-name="Atilde" unicode="&#xc3;" horiz-adv-x="635" 
d="M242 1018q-28 0 -41.5 -16.5t-13.5 -42.5h-21q1 49 27.5 75.5t75.5 26.5q42 0 91.5 -32.5t78.5 -32.5q28 0 41.5 16.5t13.5 42.5h21q-1 -49 -27.5 -75.5t-75.5 -26.5q-42 0 -91.5 32.5t-78.5 32.5zM567 25h63v-25h-255v25h105l-61 267h-247l-67 -267h90v-25h-190v25h62
l209 838h91zM180 322h232l-110 479h-3z" />
    <glyph glyph-name="Adieresis" unicode="&#xc4;" horiz-adv-x="635" 
d="M269 946q-43 0 -43 43t43 43t43 -43t-43 -43zM418 946q-43 0 -43 43t43 43t43 -43t-43 -43zM567 25h63v-25h-255v25h105l-61 267h-247l-67 -267h90v-25h-190v25h62l209 838h91zM180 322h232l-110 479h-3z" />
    <glyph glyph-name="Aring" unicode="&#xc5;" horiz-adv-x="635" 
d="M341 947q-113 0 -115 96q0 97 115 97q57 0 85 -26t28 -71q-2 -96 -113 -96zM341 1121q-42 0 -59.5 -19.5t-18.5 -58.5q0 -77 79 -77q74 0 74 78q2 77 -75 77zM567 25h63v-25h-255v25h105l-61 267h-247l-67 -267h90v-25h-190v25h62l209 838h91zM180 322h232l-110 479h-3z
" />
    <glyph glyph-name="AE" unicode="&#xc6;" horiz-adv-x="983" 
d="M837 239h65v-239h-501v25h79v273h-240l-132 -273h82v-25h-185v25h59l395 809h-58v25h497v-210h-65v185h-276v-373h209v94h43v-224h-43v104h-209v-410h280v214zM256 332h224l1 464z" />
    <glyph glyph-name="Ccedilla" unicode="&#xc7;" horiz-adv-x="617" 
d="M485 240h80v-40q0 -38 -8 -70t-28.5 -65.5t-64 -53.5t-107.5 -21l-19 -38q18 2 32 2q73 0 73 -63q0 -33 -22.5 -52.5t-44.5 -24t-47 -4.5q-38 0 -80 18l10 30q34 -17 66 -17q22 0 36 11.5t14 31.5q0 41 -80 37l35 69q-34 0 -57.5 3t-50.5 13t-46 28.5t-36.5 50.5
t-29.5 78q-25 97 -25 255q0 165 24 272q23 102 73.5 140.5t153.5 38.5q131 0 159 -92l5 88h56v-223h-65q-3 111 -36 154t-120 43q-74 0 -104 -32t-44 -124q-15 -107 -15 -287q0 -157 15 -235q10 -49 22.5 -77.5t34.5 -42.5t44 -17.5t63 -3.5q37 0 62 7.5t39.5 19.5t21.5 37
t9 49.5t2 66.5v40z" />
    <glyph glyph-name="Egrave" unicode="&#xc8;" horiz-adv-x="638" 
d="M234 1160q21 2 49 -28q91 -100 165 -166l-12 -13q-46 32 -153 93q-49 28 -67.5 43t-18.5 34q0 16 10 26.5t27 10.5zM421 433h-209v-408h280v174h65v-199h-506v25h78v810h-78v25h502v-196h-65v171h-276v-372h209v92h43v-224h-43v102z" />
    <glyph glyph-name="Eacute" unicode="&#xc9;" horiz-adv-x="638" 
d="M447 1160q37 -3 37 -37q0 -19 -18 -33t-68 -43q-100 -57 -153 -94l-12 13q51 46 165 166q28 30 49 28zM421 433h-209v-408h280v174h65v-199h-506v25h78v810h-78v25h502v-196h-65v171h-276v-372h209v92h43v-224h-43v102z" />
    <glyph glyph-name="Ecircumflex" unicode="&#xca;" horiz-adv-x="638" 
d="M366 1092q67 -80 123 -135l-14 -13q-62 47 -149 101q-87 -54 -149 -101l-14 13q55 55 123 135q18 21 40 21t40 -21zM421 433h-209v-408h280v174h65v-199h-506v25h78v810h-78v25h502v-196h-65v171h-276v-372h209v92h43v-224h-43v102z" />
    <glyph glyph-name="Edieresis" unicode="&#xcb;" horiz-adv-x="638" 
d="M254 946q-43 0 -43 43t43 43t43 -43t-43 -43zM403 946q-43 0 -43 43t43 43t43 -43t-43 -43zM421 433h-209v-408h280v174h65v-199h-506v25h78v810h-78v25h502v-196h-65v171h-276v-372h209v92h43v-224h-43v102z" />
    <glyph glyph-name="Igrave" unicode="&#xcc;" horiz-adv-x="341" 
d="M80 1160q21 2 49 -28q91 -100 165 -166l-12 -13q-46 32 -153 93q-49 28 -67.5 43t-18.5 34q0 16 10 26.5t27 10.5zM290 0h-239v25h78v810h-78v25h239v-25h-78v-810h78v-25z" />
    <glyph glyph-name="Iacute" unicode="&#xcd;" horiz-adv-x="341" 
d="M293 1160q37 -3 37 -37q0 -19 -18 -33t-68 -43q-100 -57 -153 -94l-12 13q51 46 165 166q28 30 49 28zM290 0h-239v25h78v810h-78v25h239v-25h-78v-810h78v-25z" />
    <glyph glyph-name="Icircumflex" unicode="&#xce;" horiz-adv-x="341" 
d="M212 1092q67 -80 123 -135l-14 -13q-62 47 -149 101q-87 -54 -149 -101l-14 13q55 55 123 135q18 21 40 21t40 -21zM290 0h-239v25h78v810h-78v25h239v-25h-78v-810h78v-25z" />
    <glyph glyph-name="Idieresis" unicode="&#xcf;" horiz-adv-x="341" 
d="M100 946q-43 0 -43 43t43 43t43 -43t-43 -43zM249 946q-43 0 -43 43t43 43t43 -43t-43 -43zM290 0h-239v25h78v810h-78v25h239v-25h-78v-810h78v-25z" />
    <glyph glyph-name="Eth" unicode="&#xd0;" horiz-adv-x="610" 
d="M590 696q23 -104 23 -270q0 -167 -24 -263q-9 -35 -21.5 -61t-24 -43.5t-30.5 -29t-32 -17.5t-38.5 -8.5t-38 -3t-42.5 -0.5h-311v25h78v345h-74v21h74v444h-78v25h310q107 0 157 -32.5t72 -131.5zM510 163q16 112 16 285q0 160 -16 249q-7 38 -23 65.5t-33.5 41
t-44.5 21t-45 9t-45 1.5h-107v-444h221v-21h-221v-345h107q34 0 52.5 1t46 8.5t43 21t30 41t19.5 66.5z" />
    <glyph glyph-name="Ntilde" unicode="&#xd1;" horiz-adv-x="698" 
d="M503 1055h21q-1 -49 -27.5 -75.5t-75.5 -26.5q-42 0 -91.5 32.5t-78.5 32.5q-28 0 -41.5 -16.5t-13.5 -42.5h-21q1 49 27.5 75.5t75.5 26.5q42 0 91.5 -32.5t78.5 -32.5q28 0 41.5 16.5t13.5 42.5zM585 835v-835l-85 -1l-345 825h-4v-799h78v-25h-194v25h78v810h-78v25
h192l318 -767h2v742h-78v25h194v-25h-78z" />
    <glyph glyph-name="Ograve" unicode="&#xd2;" horiz-adv-x="692" 
d="M255 1160q21 2 49 -28q91 -100 165 -166l-12 -13q-46 32 -153 93q-49 28 -67.5 43t-18.5 34q0 16 10 26.5t27 10.5zM346 -11q-105 0 -159 37t-78 136q-27 109 -25 268q-2 158 25 267q25 99 78.5 136t158.5 37t158.5 -37t78.5 -136q24 -114 24 -267q0 -169 -24 -268
t-78 -136t-159 -37zM346 16q74 0 108.5 29.5t48.5 122.5q15 95 15 262q0 166 -15 261q-14 93 -48.5 122.5t-108.5 29.5t-108.5 -29.5t-48.5 -122.5q-15 -95 -15 -261q0 -167 15 -262q14 -93 48.5 -122.5t108.5 -29.5z" />
    <glyph glyph-name="Oacute" unicode="&#xd3;" horiz-adv-x="692" 
d="M468 1160q37 -3 37 -37q0 -19 -18 -33t-68 -43q-100 -57 -153 -94l-12 13q51 46 165 166q28 30 49 28zM346 -11q-105 0 -159 37t-78 136q-27 109 -25 268q-2 158 25 267q25 99 78.5 136t158.5 37t158.5 -37t78.5 -136q24 -114 24 -267q0 -169 -24 -268t-78 -136t-159 -37
zM346 16q74 0 108.5 29.5t48.5 122.5q15 95 15 262q0 166 -15 261q-14 93 -48.5 122.5t-108.5 29.5t-108.5 -29.5t-48.5 -122.5q-15 -95 -15 -261q0 -167 15 -262q14 -93 48.5 -122.5t108.5 -29.5z" />
    <glyph glyph-name="Ocircumflex" unicode="&#xd4;" horiz-adv-x="692" 
d="M387 1092q67 -80 123 -135l-14 -13q-62 47 -149 101q-87 -54 -149 -101l-14 13q55 55 123 135q18 21 40 21t40 -21zM346 -11q-105 0 -159 37t-78 136q-27 109 -25 268q-2 158 25 267q25 99 78.5 136t158.5 37t158.5 -37t78.5 -136q24 -114 24 -267q0 -169 -24 -268
t-78 -136t-159 -37zM346 16q74 0 108.5 29.5t48.5 122.5q15 95 15 262q0 166 -15 261q-14 93 -48.5 122.5t-108.5 29.5t-108.5 -29.5t-48.5 -122.5q-15 -95 -15 -261q0 -167 15 -262q14 -93 48.5 -122.5t108.5 -29.5z" />
    <glyph glyph-name="Otilde" unicode="&#xd5;" horiz-adv-x="692" 
d="M500 1055h21q-1 -49 -27.5 -75.5t-75.5 -26.5q-42 0 -91.5 32.5t-78.5 32.5q-28 0 -41.5 -16.5t-13.5 -42.5h-21q1 49 27.5 75.5t75.5 26.5q42 0 91.5 -32.5t78.5 -32.5q28 0 41.5 16.5t13.5 42.5zM346 -11q-105 0 -159 37t-78 136q-27 109 -25 268q-2 158 25 267
q25 99 78.5 136t158.5 37t158.5 -37t78.5 -136q24 -114 24 -267q0 -169 -24 -268t-78 -136t-159 -37zM346 16q74 0 108.5 29.5t48.5 122.5q15 95 15 262q0 166 -15 261q-14 93 -48.5 122.5t-108.5 29.5t-108.5 -29.5t-48.5 -122.5q-15 -95 -15 -261q0 -167 15 -262
q14 -93 48.5 -122.5t108.5 -29.5z" />
    <glyph glyph-name="Odieresis" unicode="&#xd6;" horiz-adv-x="692" 
d="M275 946q-43 0 -43 43t43 43t43 -43t-43 -43zM424 946q-43 0 -43 43t43 43t43 -43t-43 -43zM346 -11q-105 0 -159 37t-78 136q-27 109 -25 268q-2 158 25 267q25 99 78.5 136t158.5 37t158.5 -37t78.5 -136q24 -114 24 -267q0 -169 -24 -268t-78 -136t-159 -37zM346 16
q74 0 108.5 29.5t48.5 122.5q15 95 15 262q0 166 -15 261q-14 93 -48.5 122.5t-108.5 29.5t-108.5 -29.5t-48.5 -122.5q-15 -95 -15 -261q0 -167 15 -262q14 -93 48.5 -122.5t108.5 -29.5z" />
    <glyph glyph-name="multiply" unicode="&#xd7;" horiz-adv-x="453" 
d="M398 532l-157 -157l153 -153l-15 -14l-152 153l-153 -153l-14 13l153 153l-158 158l15 15l157 -158l157 157z" />
    <glyph glyph-name="Oslash" unicode="&#xd8;" horiz-adv-x="710" 
d="M707 847l-117 -143q0 -1 0.5 -3.5t1.5 -3.5q24 -114 24 -267q0 -169 -24 -268t-78 -136t-159 -37q-97 0 -150 31t-79 113l-112 -138l-24 15l127 156q-26 110 -24 264q-2 158 25 267q25 99 78.5 136t158.5 37q95 0 147 -29t79 -106l103 126zM183 430q0 -95 6 -176l328 402
q-1 6 -2.5 17.5t-2.5 17.5q-14 93 -48.5 122.5t-108.5 29.5t-108.5 -29.5t-48.5 -122.5q-15 -95 -15 -261zM512 168q15 95 15 262q0 107 -7 188l-328 -404l6 -46q14 -93 48.5 -122.5t108.5 -29.5t108.5 29.5t48.5 122.5z" />
    <glyph glyph-name="Ugrave" unicode="&#xd9;" horiz-adv-x="700" 
d="M274 1160q21 2 49 -28q91 -100 165 -166l-12 -13q-46 32 -153 93q-49 28 -67.5 43t-18.5 34q0 16 10 26.5t27 10.5zM680 835h-86v-630q0 -215 -229 -215q-125 0 -193.5 50t-68.5 148v647h-78v25h239v-25h-78v-640q0 -175 180 -175q93 0 139 47.5t46 135.5v632h-107v25
h236v-25z" />
    <glyph glyph-name="Uacute" unicode="&#xda;" horiz-adv-x="700" 
d="M487 1160q37 -3 37 -37q0 -19 -18 -33t-68 -43q-100 -57 -153 -94l-12 13q51 46 165 166q28 30 49 28zM680 835h-86v-630q0 -215 -229 -215q-125 0 -193.5 50t-68.5 148v647h-78v25h239v-25h-78v-640q0 -175 180 -175q93 0 139 47.5t46 135.5v632h-107v25h236v-25z" />
    <glyph glyph-name="Ucircumflex" unicode="&#xdb;" horiz-adv-x="700" 
d="M406 1092q68 -80 123 -135l-14 -13q-62 47 -149 101q-87 -54 -149 -101l-14 13q56 55 123 135q18 21 40 21t40 -21zM680 835h-86v-630q0 -215 -229 -215q-125 0 -193.5 50t-68.5 148v647h-78v25h239v-25h-78v-640q0 -175 180 -175q93 0 139 47.5t46 135.5v632h-107v25
h236v-25z" />
    <glyph glyph-name="Udieresis" unicode="&#xdc;" horiz-adv-x="700" 
d="M294 946q-43 0 -43 43t43 43t43 -43t-43 -43zM443 946q-43 0 -43 43t43 43t43 -43t-43 -43zM680 835h-86v-630q0 -215 -229 -215q-125 0 -193.5 50t-68.5 148v647h-78v25h239v-25h-78v-640q0 -175 180 -175q93 0 139 47.5t46 135.5v632h-107v25h236v-25z" />
    <glyph glyph-name="Yacute" unicode="&#xdd;" horiz-adv-x="700" 
d="M458 1047q-100 -57 -153 -94l-12 13q51 46 165 166q28 30 49 28q37 -3 37 -37q0 -19 -18 -33t-68 -43zM618 835l-213 -485v-325h142v-25h-367v25h142v325l-211 485h-106v25h309v-25h-115l192 -435l191 435h-105v25h218v-25h-77z" />
    <glyph glyph-name="Thorn" unicode="&#xde;" horiz-adv-x="610" 
d="M212 699h83h45q35 2 64.5 0.5t54 -6t43 -18t31.5 -36t19.5 -59.5t6.5 -89q0 -51 -1.5 -82t-6 -64t-14 -51t-24.5 -35.5t-39 -25t-56 -12t-76 -4.5h-130v-192h120v-25h-281v25h78v810h-78v25h281v-25h-120v-136zM212 242h120q39 0 64 8t40.5 22.5t23 45.5t10 65.5
t2.5 95.5q0 121 -28 158t-125 37h-107v-432z" />
    <glyph glyph-name="germandbls" unicode="&#xdf;" horiz-adv-x="543" 
d="M390 363q6 -4 27.5 -17.5t30 -19.5t25 -23.5t23.5 -35t13 -47t6 -66.5q0 -83 -35 -123.5t-121 -40.5q-137 0 -137 133h60q0 -59 18 -84.5t59 -25.5q54 0 69 33t15 110q0 47 -13.5 79.5t-28.5 45.5t-42 30q-22 13 -29.5 18t-24.5 21t-24 31t-13.5 41t-6.5 59q0 28 11 51
t27.5 40.5t32.5 36.5t27 49t11 68q0 63 -23 93t-79 29q-97 -2 -97 -130v-718h-143v25h70v450h-70v25h70v211q0 85 44 122t126 37q77 0 108 -39t31 -108q0 -44 -13 -78t-29 -52t-29 -42.5t-13 -50.5q0 -56 17 -86t50 -51z" />
    <glyph glyph-name="agrave" unicode="&#xe0;" horiz-adv-x="509" 
d="M318 623l-13 -7q-46 61 -81 98q-41 44 -41 60q0 21 20 24q18 3 34 -27q39 -78 81 -148zM456 25h30v-25h-74q-46 0 -59 12t-12 53q-29 -71 -135 -71q-49 0 -81.5 11.5t-47.5 33.5t-20 44t-5 52q0 67 30 97t117 42q37 6 91 6q33 0 49 -1v104q0 102 -90 102q-28 0 -48 -7
t-29.5 -17t-15 -24t-6 -23.5t-0.5 -21.5l1 -28h-72l-1 23q-3 69 42 95t126 26q82 0 124 -27.5t42 -104.5v-304q0 -26 9.5 -36.5t34.5 -10.5zM339 154v101q-27 3 -54 3q-30 0 -54 -4q-66 -11 -85 -40.5t-19 -82.5q0 -21 3 -36.5t12 -35t31 -30t56 -10.5q52 0 81 36.5t29 98.5
z" />
    <glyph glyph-name="aacute" unicode="&#xe1;" horiz-adv-x="509" 
d="M288 714q-18 -19 -30.5 -34.5t-28 -37.5t-20.5 -28l-17 11q47 71 83 146q14 30 34 27t20 -24q0 -16 -41 -60zM456 25h30v-25h-74q-46 0 -59 12t-12 53q-29 -71 -135 -71q-49 0 -81.5 11.5t-47.5 33.5t-20 44t-5 52q0 67 30 97t117 42q37 6 91 6q33 0 49 -1v104
q0 102 -90 102q-28 0 -48 -7t-29.5 -17t-15 -24t-6 -23.5t-0.5 -21.5l1 -28h-72l-1 23q-3 69 42 95t126 26q82 0 124 -27.5t42 -104.5v-304q0 -26 9.5 -36.5t34.5 -10.5zM339 154v101q-27 3 -54 3q-30 0 -54 -4q-66 -11 -85 -40.5t-19 -82.5q0 -21 3 -36.5t12 -35t31 -30
t56 -10.5q52 0 81 36.5t29 98.5z" />
    <glyph glyph-name="acircumflex" unicode="&#xe2;" horiz-adv-x="509" 
d="M251 729q-35 -23 -118 -109l-13 9q60 73 101 139q13 22 30 22q14 0 30 -22q41 -66 101 -139l-13 -9q-22 24 -62 61.5t-56 47.5zM456 25h30v-25h-74q-46 0 -59 12t-12 53q-29 -71 -135 -71q-49 0 -81.5 11.5t-47.5 33.5t-20 44t-5 52q0 67 30 97t117 42q37 6 91 6
q33 0 49 -1v104q0 102 -90 102q-28 0 -48 -7t-29.5 -17t-15 -24t-6 -23.5t-0.5 -21.5l1 -28h-72l-1 23q-3 69 42 95t126 26q82 0 124 -27.5t42 -104.5v-304q0 -26 9.5 -36.5t34.5 -10.5zM339 154v101q-27 3 -54 3q-30 0 -54 -4q-66 -11 -85 -40.5t-19 -82.5q0 -21 3 -36.5
t12 -35t31 -30t56 -10.5q52 0 81 36.5t29 98.5z" />
    <glyph glyph-name="atilde" unicode="&#xe3;" horiz-adv-x="509" 
d="M183 659q-17 1 -30.5 -10t-14.5 -28h-16q1 41 25 60.5t57 19.5q28 1 65.5 -22.5t58.5 -23.5q42 0 52 41h15q0 -29 -23 -54.5t-68 -24.5q-33 0 -67 21t-54 21zM456 25h30v-25h-74q-46 0 -59 12t-12 53q-29 -71 -135 -71q-49 0 -81.5 11.5t-47.5 33.5t-20 44t-5 52
q0 67 30 97t117 42q37 6 91 6q33 0 49 -1v104q0 102 -90 102q-28 0 -48 -7t-29.5 -17t-15 -24t-6 -23.5t-0.5 -21.5l1 -28h-72l-1 23q-3 69 42 95t126 26q82 0 124 -27.5t42 -104.5v-304q0 -26 9.5 -36.5t34.5 -10.5zM339 154v101q-27 3 -54 3q-30 0 -54 -4
q-66 -11 -85 -40.5t-19 -82.5q0 -21 3 -36.5t12 -35t31 -30t56 -10.5q52 0 81 36.5t29 98.5z" />
    <glyph glyph-name="adieresis" unicode="&#xe4;" horiz-adv-x="509" 
d="M168 601q-51 0 -51 54q0 55 51 55q50 0 50 -55q0 -54 -50 -54zM328 601q-51 0 -51 54q0 55 51 55q50 0 50 -55q0 -54 -50 -54zM456 25h30v-25h-74q-46 0 -59 12t-12 53q-29 -71 -135 -71q-49 0 -81.5 11.5t-47.5 33.5t-20 44t-5 52q0 67 30 97t117 42q37 6 91 6
q33 0 49 -1v104q0 102 -90 102q-28 0 -48 -7t-29.5 -17t-15 -24t-6 -23.5t-0.5 -21.5l1 -28h-72l-1 23q-3 69 42 95t126 26q82 0 124 -27.5t42 -104.5v-304q0 -26 9.5 -36.5t34.5 -10.5zM339 154v101q-27 3 -54 3q-30 0 -54 -4q-66 -11 -85 -40.5t-19 -82.5q0 -21 3 -36.5
t12 -35t31 -30t56 -10.5q52 0 81 36.5t29 98.5z" />
    <glyph glyph-name="aring" unicode="&#xe5;" horiz-adv-x="509" 
d="M251 609q-104 0 -104 88q-1 43 25.5 66t79.5 23q52 0 77.5 -23.5t25.5 -65.5q-2 -88 -104 -88zM181 697q-1 -35 16 -53t56 -18q66 0 68 72q0 70 -69 70q-39 0 -55 -18t-16 -53zM456 25h30v-25h-74q-46 0 -59 12t-12 53q-29 -71 -135 -71q-49 0 -81.5 11.5t-47.5 33.5
t-20 44t-5 52q0 67 30 97t117 42q37 6 91 6q33 0 49 -1v104q0 102 -90 102q-28 0 -48 -7t-29.5 -17t-15 -24t-6 -23.5t-0.5 -21.5l1 -28h-72l-1 23q-3 69 42 95t126 26q82 0 124 -27.5t42 -104.5v-304q0 -26 9.5 -36.5t34.5 -10.5zM339 154v101q-27 3 -54 3q-30 0 -54 -4
q-66 -11 -85 -40.5t-19 -82.5q0 -21 3 -36.5t12 -35t31 -30t56 -10.5q52 0 81 36.5t29 98.5z" />
    <glyph glyph-name="ae" unicode="&#xe6;" horiz-adv-x="760" 
d="M702 246h-301q0 -130 22.5 -180t102.5 -50q59 0 85 24.5t26 90.5v26h59v-23q0 -141 -170 -141q-73 0 -116 22t-60 81q-20 -101 -144 -101q-49 0 -81.5 11.5t-47.5 33.5t-20 43.5t-5 51.5q0 71 30 100.5t117 42.5q56 9 138 5v100q0 100 -88 100q-35 0 -57 -8t-30 -23.5
t-10 -28t-2 -31.5l1 -28h-72l-1 23q-3 69 41.5 94t126.5 25q105 0 135 -45q41 46 141 46q78 0 126 -35.5t54 -127.5q1 -14 1 -30.5t-0.5 -37t-0.5 -30.5zM522 484q-72 0 -96.5 -49.5t-24.5 -163.5h236q0 50 -1 76q-1 19 -2.5 31.5t-8 34.5t-17.5 35.5t-33.5 24.5t-52.5 11z
M229 19q52 0 80 37t28 95v107q-60 7 -106 -1q-66 -10 -85 -39t-19 -82q0 -117 102 -117z" />
    <glyph glyph-name="ccedilla" unicode="&#xe7;" horiz-adv-x="477" 
d="M358 158h64v-23q0 -61 -31.5 -99t-121.5 -42l-22 -43q28 2 41 2q22 0 40 -16t18 -45q0 -31 -21 -50.5t-42 -25t-41 -5.5q-34 0 -82 18l15 19q33 -15 67 -15q19 0 39 13.5t20 41.5q0 26 -28.5 34.5t-70.5 2.5l35 69q-49 1 -80.5 11t-49.5 30.5t-26 43t-14 58.5
q-8 54 -8 113t8 113q12 74 47 108.5t129 34.5q63 0 90 -23.5t36 -62.5l4 80h45v-151h-60q0 63 -24 98.5t-91 35.5q-16 0 -29 -1.5t-23 -6.5t-17 -8t-12.5 -13t-8.5 -13t-5.5 -17.5t-3 -17.5t-2.5 -21t-2 -20q-6 -49 -6 -118q0 -65 6 -112q7 -60 17 -77q22 -41 94 -41
q62 0 84.5 25t22.5 90v26z" />
    <glyph glyph-name="egrave" unicode="&#xe8;" horiz-adv-x="493" 
d="M197 798q18 3 34 -27q39 -78 81 -148l-13 -7q-46 61 -81 98q-41 44 -41 60q0 21 20 24zM370 157h64q0 -85 -38.5 -124.5t-130.5 -39.5t-144.5 35t-58.5 128q-3 46 -3 94t3 94q6 93 56.5 128t136.5 35q78 0 126 -35.5t54 -127.5v-98h-301q0 -42 3 -96q5 -70 33 -102
t95 -32q63 0 84 32t21 109zM137 350q-3 -40 -3 -79h236q0 50 -1 76q-1 20 -2.5 33.5t-8 35t-17.5 35t-33 23.5t-53 10q-60 0 -86.5 -32t-31.5 -102z" />
    <glyph glyph-name="eacute" unicode="&#xe9;" horiz-adv-x="493" 
d="M269 771q14 30 34 27t20 -24q0 -16 -41 -60q-18 -19 -30.5 -34.5t-28 -37.5t-20.5 -28l-17 11q47 71 83 146zM370 157h64q0 -85 -38.5 -124.5t-130.5 -39.5t-144.5 35t-58.5 128q-3 46 -3 94t3 94q6 93 56.5 128t136.5 35q78 0 126 -35.5t54 -127.5v-98h-301q0 -42 3 -96
q5 -70 33 -102t95 -32q63 0 84 32t21 109zM137 350q-3 -40 -3 -79h236q0 50 -1 76q-1 20 -2.5 33.5t-8 35t-17.5 35t-33 23.5t-53 10q-60 0 -86.5 -32t-31.5 -102z" />
    <glyph glyph-name="ecircumflex" unicode="&#xea;" horiz-adv-x="493" 
d="M275 768q41 -66 101 -139l-13 -9q-22 24 -62 61.5t-56 47.5q-35 -23 -118 -109l-13 9q60 73 101 139q13 22 30 22q14 0 30 -22zM370 157h64q0 -85 -38.5 -124.5t-130.5 -39.5t-144.5 35t-58.5 128q-3 46 -3 94t3 94q6 93 56.5 128t136.5 35q78 0 126 -35.5t54 -127.5v-98
h-301q0 -42 3 -96q5 -70 33 -102t95 -32q63 0 84 32t21 109zM137 350q-3 -40 -3 -79h236q0 50 -1 76q-1 20 -2.5 33.5t-8 35t-17.5 35t-33 23.5t-53 10q-60 0 -86.5 -32t-31.5 -102z" />
    <glyph glyph-name="edieresis" unicode="&#xeb;" horiz-adv-x="493" 
d="M162 601q-51 0 -51 54q0 55 51 55q50 0 50 -55q0 -54 -50 -54zM322 601q-51 0 -51 54q0 55 51 55q50 0 50 -55q0 -54 -50 -54zM370 157h64q0 -85 -38.5 -124.5t-130.5 -39.5t-144.5 35t-58.5 128q-3 46 -3 94t3 94q6 93 56.5 128t136.5 35q78 0 126 -35.5t54 -127.5v-98
h-301q0 -42 3 -96q5 -70 33 -102t95 -32q63 0 84 32t21 109zM137 350q-3 -40 -3 -79h236q0 50 -1 76q-1 20 -2.5 33.5t-8 35t-17.5 35t-33 23.5t-53 10q-60 0 -86.5 -32t-31.5 -102z" />
    <glyph glyph-name="igrave" unicode="&#xec;" horiz-adv-x="269" 
d="M184 623l-13 -7q-46 61 -81 98q-41 44 -41 60q0 21 20 24q18 3 34 -27q39 -78 81 -148zM171 25h70v-25h-213v25h70v450h-66v25q83 0 139 7v-482z" />
    <glyph glyph-name="iacute" unicode="&#xed;" horiz-adv-x="269" 
d="M154 714q-18 -19 -30.5 -34.5t-28 -37.5t-20.5 -28l-17 11q47 71 83 146q14 30 34 27t20 -24q0 -16 -41 -60zM171 25h70v-25h-213v25h70v450h-66v25q83 0 139 7v-482z" />
    <glyph glyph-name="icircumflex" unicode="&#xee;" horiz-adv-x="269" 
d="M248 629l-13 -9q-22 24 -62 61.5t-56 47.5q-35 -23 -118 -109l-13 9q60 73 101 139q13 22 30 22q14 0 30 -22q41 -66 101 -139zM171 25h70v-25h-213v25h70v450h-66v25q83 0 139 7v-482z" />
    <glyph glyph-name="idieresis" unicode="&#xef;" horiz-adv-x="269" 
d="M171 25h70v-25h-213v25h70v450h-66v25q83 0 139 7v-482z" />
    <glyph glyph-name="eth" unicode="&#xf0;" horiz-adv-x="549" 
d="M464 276q0 -162 -43.5 -222t-159.5 -60q-98 0 -140.5 35.5t-53.5 107.5q-8 54 -8 106q0 51 8 105q11 71 54.5 107.5t139.5 36.5q53 0 96 -23q-40 141 -123 246l-131 -62l-10 21l126 60q-53 62 -109 94l46 32q51 -31 114 -102l131 63l10 -22l-125 -59q83 -96 130.5 -226.5
t47.5 -237.5zM381 136q7 56 7 107q0 81 -21 177q-10 23 -43 36t-63 13q-65 0 -89 -32.5t-31 -86.5q-6 -48 -6 -107t6 -107q3 -26 8.5 -43.5t17.5 -36.5t35.5 -29t58.5 -10q65 0 89 32t31 87z" />
    <glyph glyph-name="ntilde" unicode="&#xf1;" horiz-adv-x="571" 
d="M215 659q-17 1 -30.5 -10t-14.5 -28h-16q1 41 25 60.5t57 19.5q28 1 65.5 -22.5t58.5 -23.5q42 0 52 41h15q0 -29 -23 -54.5t-68 -24.5q-33 0 -67 21t-54 21zM518 25h30v-25h-92q-28 0 -41.5 8.5t-13.5 35.5v319q0 25 -2.5 41t-11.5 36.5t-31.5 31t-58.5 10.5
q-53 0 -89.5 -40.5t-36.5 -112.5v-304h79v-25h-222v25h70v450h-70v25q81 0 137 7l1 -76v-19q17 45 59 69.5t99 24.5q81 0 115.5 -36t34.5 -101v-288q0 -56 44 -56z" />
    <glyph glyph-name="ograve" unicode="&#xf2;" horiz-adv-x="534" 
d="M466 363q8 -45 8 -113t-8 -113q-11 -72 -54.5 -107.5t-144.5 -35.5t-144.5 35.5t-54.5 107.5q-8 54 -8 113t8 113q11 71 55 107t144 36q99 0 143 -35.5t56 -107.5zM392 135q7 56 7 115t-7 115q-3 27 -8.5 45t-18 36.5t-37 27.5t-61.5 9t-61.5 -9t-37 -27.5t-18 -36.5
t-8.5 -45q-7 -70 -7 -115t7 -115q3 -27 8.5 -45t18 -36.5t37 -27.5t61.5 -9t61.5 9t37 27.5t18 36.5t8.5 45zM221 798q18 3 34 -27q39 -78 81 -148l-13 -7q-46 61 -81 98q-41 44 -41 60q0 21 20 24z" />
    <glyph glyph-name="oacute" unicode="&#xf3;" horiz-adv-x="534" 
d="M466 363q8 -45 8 -113t-8 -113q-11 -72 -54.5 -107.5t-144.5 -35.5t-144.5 35.5t-54.5 107.5q-8 54 -8 113t8 113q11 71 55 107t144 36q99 0 143 -35.5t56 -107.5zM392 135q7 56 7 115t-7 115q-3 27 -8.5 45t-18 36.5t-37 27.5t-61.5 9t-61.5 -9t-37 -27.5t-18 -36.5
t-8.5 -45q-7 -70 -7 -115t7 -115q3 -27 8.5 -45t18 -36.5t37 -27.5t61.5 -9t61.5 9t37 27.5t18 36.5t8.5 45zM283 771q14 30 34 27t20 -24q0 -16 -41 -60q-18 -19 -30.5 -34.5t-28 -37.5t-20.5 -28l-17 11q47 71 83 146z" />
    <glyph glyph-name="ocircumflex" unicode="&#xf4;" horiz-adv-x="534" 
d="M466 363q8 -45 8 -113t-8 -113q-11 -72 -54.5 -107.5t-144.5 -35.5t-144.5 35.5t-54.5 107.5q-8 54 -8 113t8 113q11 71 55 107t144 36q99 0 143 -35.5t56 -107.5zM392 135q7 56 7 115t-7 115q-3 27 -8.5 45t-18 36.5t-37 27.5t-61.5 9t-61.5 -9t-37 -27.5t-18 -36.5
t-8.5 -45q-7 -70 -7 -115t7 -115q3 -27 8.5 -45t18 -36.5t37 -27.5t61.5 -9t61.5 9t37 27.5t18 36.5t8.5 45zM299 768q41 -66 101 -139l-13 -9q-22 24 -62 61.5t-56 47.5q-35 -23 -118 -109l-13 9q60 73 101 139q13 22 30 22q14 0 30 -22z" />
    <glyph glyph-name="otilde" unicode="&#xf5;" horiz-adv-x="534" 
d="M466 363q8 -45 8 -113t-8 -113q-11 -72 -54.5 -107.5t-144.5 -35.5t-144.5 35.5t-54.5 107.5q-8 54 -8 113t8 113q11 71 55 107t144 36q99 0 143 -35.5t56 -107.5zM392 135q7 56 7 115t-7 115q-3 27 -8.5 45t-18 36.5t-37 27.5t-61.5 9t-61.5 -9t-37 -27.5t-18 -36.5
t-8.5 -45q-7 -70 -7 -115t7 -115q3 -27 8.5 -45t18 -36.5t37 -27.5t61.5 -9t61.5 9t37 27.5t18 36.5t8.5 45zM222 701q28 1 65.5 -22.5t58.5 -23.5q42 0 52 41h15q0 -29 -23 -54.5t-68 -24.5q-33 0 -67 21t-54 21q-17 1 -30.5 -10t-14.5 -28h-16q1 41 25 60.5t57 19.5z" />
    <glyph glyph-name="odieresis" unicode="&#xf6;" horiz-adv-x="534" 
d="M466 363q8 -45 8 -113t-8 -113q-11 -72 -54.5 -107.5t-144.5 -35.5t-144.5 35.5t-54.5 107.5q-8 54 -8 113t8 113q11 71 55 107t144 36q99 0 143 -35.5t56 -107.5zM392 135q7 56 7 115t-7 115q-3 27 -8.5 45t-18 36.5t-37 27.5t-61.5 9t-61.5 -9t-37 -27.5t-18 -36.5
t-8.5 -45q-7 -70 -7 -115t7 -115q3 -27 8.5 -45t18 -36.5t37 -27.5t61.5 -9t61.5 9t37 27.5t18 36.5t8.5 45zM186 601q-51 0 -51 54q0 55 51 55q50 0 50 -55q0 -54 -50 -54zM346 601q-51 0 -51 54q0 55 51 55q50 0 50 -55q0 -54 -50 -54z" />
    <glyph glyph-name="divide" unicode="&#xf7;" horiz-adv-x="572" 
d="M286 474q-55 0 -55 55t55 55t55 -55t-55 -55zM517 386v-21h-462v21h462zM286 167q-55 0 -55 55t55 55t55 -55t-55 -55z" />
    <glyph glyph-name="oslash" unicode="&#xf8;" horiz-adv-x="533" 
d="M94 -14l-12 14l28 40q-32 32 -42 97q-8 54 -8 113t8 113q11 71 55 107t144 36q96 0 143 -36l29 41l12 -11l-29 -41q33 -33 44 -96q8 -45 8 -113t-8 -113q-11 -72 -54.5 -107.5t-144.5 -35.5q-97 0 -143 35zM142 135q2 -22 7 -40l229 329q-24 59 -111 59q-37 0 -61.5 -9
t-37 -27.5t-18 -36.5t-8.5 -45q-7 -70 -7 -115t7 -115zM392 135q7 56 7 115t-7 115q-4 29 -7 40l-229 -330q24 -58 111 -58q37 0 61.5 9t37 27.5t18 36.5t8.5 45z" />
    <glyph glyph-name="ugrave" unicode="&#xf9;" horiz-adv-x="575" 
d="M342 623l-13 -7q-46 61 -81 98q-41 44 -41 60q0 21 20 24q18 3 34 -27q39 -78 81 -148zM509 25h26v-25h-77q-46 0 -56 14.5t-8 71.5q-33 -92 -158 -92q-74 0 -108.5 34.5t-34.5 112.5v334h-70v25q87 0 143 7v-369q0 -24 3 -41t12.5 -37t31.5 -31t55 -11q53 0 88.5 45.5
t35.5 121.5v290h-70v25q87 0 143 7v-436q0 -29 8.5 -37.5t35.5 -8.5z" />
    <glyph glyph-name="uacute" unicode="&#xfa;" horiz-adv-x="575" 
d="M312 714q-18 -19 -30.5 -34.5t-28 -37.5t-20.5 -28l-17 11q47 71 83 146q14 30 34 27t20 -24q0 -16 -41 -60zM509 25h26v-25h-77q-46 0 -56 14.5t-8 71.5q-33 -92 -158 -92q-74 0 -108.5 34.5t-34.5 112.5v334h-70v25q87 0 143 7v-369q0 -24 3 -41t12.5 -37t31.5 -31
t55 -11q53 0 88.5 45.5t35.5 121.5v290h-70v25q87 0 143 7v-436q0 -29 8.5 -37.5t35.5 -8.5z" />
    <glyph glyph-name="ucircumflex" unicode="&#xfb;" horiz-adv-x="575" 
d="M275 729q-35 -23 -118 -109l-13 9q60 73 101 139q13 22 30 22q14 0 30 -22q41 -66 101 -139l-13 -9q-22 24 -62 61.5t-56 47.5zM509 25h26v-25h-77q-46 0 -56 14.5t-8 71.5q-33 -92 -158 -92q-74 0 -108.5 34.5t-34.5 112.5v334h-70v25q87 0 143 7v-369q0 -24 3 -41
t12.5 -37t31.5 -31t55 -11q53 0 88.5 45.5t35.5 121.5v290h-70v25q87 0 143 7v-436q0 -29 8.5 -37.5t35.5 -8.5z" />
    <glyph glyph-name="udieresis" unicode="&#xfc;" horiz-adv-x="575" 
d="M192 601q-51 0 -51 54q0 55 51 55q50 0 50 -55q0 -54 -50 -54zM352 601q-51 0 -51 54q0 55 51 55q50 0 50 -55q0 -54 -50 -54zM509 25h26v-25h-77q-46 0 -56 14.5t-8 71.5q-33 -92 -158 -92q-74 0 -108.5 34.5t-34.5 112.5v334h-70v25q87 0 143 7v-369q0 -24 3 -41
t12.5 -37t31.5 -31t55 -11q53 0 88.5 45.5t35.5 121.5v290h-70v25q87 0 143 7v-436q0 -29 8.5 -37.5t35.5 -8.5z" />
    <glyph glyph-name="yacute" unicode="&#xfd;" horiz-adv-x="543" 
d="M306 714q-18 -19 -30.5 -34.5t-28 -37.5t-20.5 -28l-17 11q47 71 83 146q14 30 34 27t20 -24q0 -16 -41 -60zM323 475v25q82 0 138 7v-76l-1 -471q0 -117 -43 -163.5t-156 -46.5q-58 0 -96.5 11t-57 32.5t-25 44t-6.5 53.5v23h67v-16q0 -71 26.5 -98t90.5 -27
q83 0 107.5 42.5t24.5 141.5v147q-8 -32 -27.5 -54.5t-44 -32.5t-44.5 -13.5t-40 -3.5q-83 0 -115.5 39.5t-32.5 105.5v330h-65v25q82 0 138 7v-365q0 -118 90 -118q136 0 136 206v245h-64z" />
    <glyph glyph-name="thorn" unicode="&#xfe;" horiz-adv-x="610" 
d="M481 365q10 -57 10 -115q0 -64 -12 -113q-7 -29 -12.5 -45.5t-19 -37.5t-31.5 -32.5t-49.5 -19.5t-74.5 -8q-46 0 -86 20t-50 67v-350h-83v1104h-70v25q87 0 143 7v-48l2 -435q4 35 20.5 60.5t40 38t46 18.5t45.5 6q90 0 129 -36t52 -106zM406 144q10 51 10 110
q0 58 -7 103q-20 127 -109 127q-69 0 -101.5 -35t-37.5 -85q-6 -52 -6 -113q0 -50 7 -106q7 -60 34 -94t96 -34q26 0 45.5 7.5t30 16.5t19 29.5t11.5 33t8 40.5z" />
    <glyph glyph-name="ydieresis" unicode="&#xff;" horiz-adv-x="543" 
d="M186 601q-51 0 -51 54q0 55 51 55q50 0 50 -55q0 -54 -50 -54zM346 601q-51 0 -51 54q0 55 51 55q50 0 50 -55q0 -54 -50 -54zM323 475v25q82 0 138 7v-76l-1 -471q0 -117 -43 -163.5t-156 -46.5q-58 0 -96.5 11t-57 32.5t-25 44t-6.5 53.5v23h67v-16q0 -71 26.5 -98
t90.5 -27q83 0 107.5 42.5t24.5 141.5v147q-8 -32 -27.5 -54.5t-44 -32.5t-44.5 -13.5t-40 -3.5q-83 0 -115.5 39.5t-32.5 105.5v330h-65v25q82 0 138 7v-365q0 -118 90 -118q136 0 136 206v245h-64z" />
    <glyph glyph-name="Amacron" unicode="&#x100;" horiz-adv-x="635" 
d="M479 982v-23h-278v23h278zM567 25h63v-25h-255v25h105l-61 267h-247l-67 -267h90v-25h-190v25h62l209 838h91zM180 322h232l-110 479h-3z" />
    <glyph glyph-name="amacron" unicode="&#x101;" horiz-adv-x="509" 
d="M390 646v-23h-278v23h278zM456 25h30v-25h-74q-46 0 -59 12t-12 53q-29 -71 -135 -71q-49 0 -81.5 11.5t-47.5 33.5t-20 44t-5 52q0 67 30 97t117 42q37 6 91 6q33 0 49 -1v104q0 102 -90 102q-28 0 -48 -7t-29.5 -17t-15 -24t-6 -23.5t-0.5 -21.5l1 -28h-72l-1 23
q-3 69 42 95t126 26q82 0 124 -27.5t42 -104.5v-304q0 -26 9.5 -36.5t34.5 -10.5zM339 154v101q-27 3 -54 3q-30 0 -54 -4q-66 -11 -85 -40.5t-19 -82.5q0 -21 3 -36.5t12 -35t31 -30t56 -10.5q52 0 81 36.5t29 98.5z" />
    <glyph glyph-name="Abreve" unicode="&#x102;" horiz-adv-x="635" 
d="M340 943q-154 0 -154 170h27q0 -54 37.5 -80.5t89.5 -26.5q53 0 90.5 26.5t37.5 80.5h26q0 -170 -154 -170zM567 25h63v-25h-255v25h105l-61 267h-247l-67 -267h90v-25h-190v25h62l209 838h91zM180 322h232l-110 479h-3z" />
    <glyph glyph-name="abreve" unicode="&#x103;" horiz-adv-x="509" 
d="M262 604q-41 0 -67.5 9.5t-41 30t-20.5 39.5t-10 51l17 3q13 -88 122 -88q110 0 123 88l15 -3q-9 -66 -35 -98t-103 -32zM456 25h30v-25h-74q-46 0 -59 12t-12 53q-29 -71 -135 -71q-49 0 -81.5 11.5t-47.5 33.5t-20 44t-5 52q0 67 30 97t117 42q37 6 91 6q33 0 49 -1
v104q0 102 -90 102q-28 0 -48 -7t-29.5 -17t-15 -24t-6 -23.5t-0.5 -21.5l1 -28h-72l-1 23q-3 69 42 95t126 26q82 0 124 -27.5t42 -104.5v-304q0 -26 9.5 -36.5t34.5 -10.5zM339 154v101q-27 3 -54 3q-30 0 -54 -4q-66 -11 -85 -40.5t-19 -82.5q0 -21 3 -36.5t12 -35
t31 -30t56 -10.5q52 0 81 36.5t29 98.5z" />
    <glyph glyph-name="Aogonek" unicode="&#x104;" horiz-adv-x="635" 
d="M630 0h-93q-59 -45 -59 -103t64 -58q35 0 69 28l7 -9q-54 -48 -102 -48q-42 0 -64.5 19.5t-22.5 54.5q0 68 79 116h-133v25h105l-61 267h-247l-67 -267h90v-25h-190v25h62l209 838h91l200 -838h63v-25zM180 322h232l-110 479h-3z" />
    <glyph glyph-name="aogonek" unicode="&#x105;" horiz-adv-x="512" 
d="M490 -133l7 -9q-54 -48 -102 -48q-42 0 -64.5 19.5t-22.5 54.5q0 71 87 116q-35 1 -45 14t-9 51q-29 -71 -135 -71q-49 0 -81.5 11.5t-47.5 33.5t-20 44t-5 52q0 67 30 97t117 42q37 6 91 6q33 0 49 -1v104q0 102 -90 102q-28 0 -48 -7t-29.5 -17t-15 -24t-6 -23.5
t-0.5 -21.5l1 -28h-72l-1 23q-3 69 42 95t126 26q82 0 124 -27.5t42 -104.5v-304q0 -26 9.5 -36.5t34.5 -10.5h30v-25h-70q-59 -45 -59 -103t64 -58q35 0 69 28zM339 154v101q-27 3 -54 3q-30 0 -54 -4q-66 -11 -85 -40.5t-19 -82.5q0 -21 3 -36.5t12 -35t31 -30t56 -10.5
q52 0 81 36.5t29 98.5z" />
    <glyph glyph-name="Cacute" unicode="&#x106;" horiz-adv-x="617" 
d="M565 240v-40q0 -30 -4.5 -56t-18 -55.5t-36 -50.5t-62.5 -34.5t-93 -13.5q-41 0 -64 2t-54.5 11t-51 26.5t-39 51t-32.5 82.5q-25 97 -25 255q0 165 24 272q23 102 73.5 140.5t153.5 38.5q131 0 158 -92l6 88h56v-223h-65q-3 111 -36 154t-120 43q-74 0 -104 -32
t-44 -124q-15 -107 -15 -287q0 -157 15 -235q10 -49 22.5 -77.5t34.5 -42.5t44 -17.5t63 -3.5q37 0 62 7.5t39.5 19.5t21.5 37t9 49.5t2 66.5v40h80zM431 1160q37 -3 37 -37q0 -19 -18 -33t-68 -43q-100 -57 -153 -94l-12 13q51 46 165 166q28 30 49 28z" />
    <glyph glyph-name="cacute" unicode="&#x107;" horiz-adv-x="477" 
d="M276 714q-18 -19 -30.5 -34.5t-28 -37.5t-20.5 -28l-17 11q47 71 83 146q14 30 34 27t20 -24q0 -16 -41 -60zM358 158h64v-23q0 -30 -6 -52t-23 -44t-53 -33.5t-89 -11.5t-87.5 9.5t-54 30t-28 43.5t-14.5 60q-8 54 -8 113t8 113q12 74 47 108.5t129 34.5q63 0 90 -23.5
t36 -62.5l4 80h45v-151h-60q0 63 -24 98.5t-91 35.5q-16 0 -29 -1.5t-23 -6.5t-17 -8t-12.5 -13t-8.5 -13t-5.5 -17.5t-3 -17.5t-2.5 -21t-2 -20q-6 -49 -6 -118q0 -65 6 -112q7 -60 17 -77q22 -41 94 -41q62 0 84.5 25t22.5 90v26z" />
    <glyph glyph-name="Ccaron" unicode="&#x10c;" horiz-adv-x="617" 
d="M565 240v-40q0 -30 -4.5 -56t-18 -55.5t-36 -50.5t-62.5 -34.5t-93 -13.5q-41 0 -64 2t-54.5 11t-51 26.5t-39 51t-32.5 82.5q-25 97 -25 255q0 165 24 272q23 102 73.5 140.5t153.5 38.5q131 0 158 -92l6 88h56v-223h-65q-3 111 -36 154t-120 43q-74 0 -104 -32
t-44 -124q-15 -107 -15 -287q0 -157 15 -235q10 -49 22.5 -77.5t34.5 -42.5t44 -17.5t63 -3.5q37 0 62 7.5t39.5 19.5t21.5 37t9 49.5t2 66.5v40h80zM360 964q-18 -21 -40 -21q-21 0 -40 21q-13 14 -54 62t-68 73l14 13q90 -73 148 -106q55 32 149 106l12 -13
q-42 -42 -121 -135z" />
    <glyph glyph-name="ccaron" unicode="&#x10d;" horiz-adv-x="477" 
d="M236 606q-19 0 -37 27q-46 69 -111 146l12 9q71 -75 136 -127q70 56 136 127l12 -9q-70 -83 -111 -146q-18 -27 -37 -27zM358 158h64v-23q0 -30 -6 -52t-23 -44t-53 -33.5t-89 -11.5t-87.5 9.5t-54 30t-28 43.5t-14.5 60q-8 54 -8 113t8 113q12 74 47 108.5t129 34.5
q63 0 90 -23.5t36 -62.5l4 80h45v-151h-60q0 63 -24 98.5t-91 35.5q-16 0 -29 -1.5t-23 -6.5t-17 -8t-12.5 -13t-8.5 -13t-5.5 -17.5t-3 -17.5t-2.5 -21t-2 -20q-6 -49 -6 -118q0 -65 6 -112q7 -60 17 -77q22 -41 94 -41q62 0 84.5 25t22.5 90v26z" />
    <glyph glyph-name="Dcaron" unicode="&#x10e;" horiz-adv-x="698" 
d="M51 860h310q107 0 157 -32.5t72 -131.5q23 -104 23 -270q0 -167 -24 -263q-9 -35 -21.5 -61t-24 -43.5t-30.5 -29t-32 -17.5t-38.5 -8.5t-38 -3t-42.5 -0.5h-311v25h78v810h-78v25zM212 25h107q34 0 52.5 1t46 8.5t43 21t30 41t19.5 66.5q16 112 16 285q0 160 -16 249
q-7 38 -23 65.5t-33.5 41t-44.5 21t-45 9t-45 1.5h-107v-810zM389 964q-18 -21 -40 -21q-21 0 -40 21q-13 14 -54 62t-68 73l14 13q90 -73 148 -106q55 32 149 106l12 -13q-42 -42 -121 -135z" />
    <glyph glyph-name="dcaron" unicode="&#x10f;" horiz-adv-x="613" 
d="M466 812l1 -731q0 -56 44 -56h30v-25h-74q-47 0 -55.5 16t-8.5 89q-24 -112 -152 -112q-87 0 -127 36t-54 104q-10 49 -10 108q0 69 10 121q14 71 53.5 107t120.5 36q124 0 151 -95l-2 382v44h-70v25q63 0 143 10v-59zM601 866q61 0 61 -73q0 -104 -112 -120l-4 13
q93 12 87 102q-11 -21 -38 -21q-49 0 -50 46q-1 27 14 40t42 13zM388 144q6 42 6 99q0 64 -5 99q-8 65 -36.5 102.5t-101.5 37.5q-53 0 -76.5 -26.5t-32.5 -91.5q-7 -48 -7 -121q0 -68 8 -121q9 -58 33 -82t75 -24q71 0 99.5 35t37.5 93z" />
    <glyph glyph-name="Dcroat" unicode="&#x110;" horiz-adv-x="698" 
d="M51 860h310q107 0 157 -32.5t72 -131.5q23 -104 23 -270q0 -167 -24 -263q-9 -35 -21.5 -61t-24 -43.5t-30.5 -29t-32 -17.5t-38.5 -8.5t-38 -3t-42.5 -0.5h-311v25h78v345h-74v21h74v444h-78v25zM212 25h107q34 0 52.5 1t46 8.5t43 21t30 41t19.5 66.5q16 112 16 285
q0 160 -16 249q-7 38 -23 65.5t-33.5 41t-44.5 21t-45 9t-45 1.5h-107v-444h221v-21h-221v-345z" />
    <glyph glyph-name="dcroat" unicode="&#x111;" horiz-adv-x="564" 
d="M566 705v-25h-100l1 -599q0 -56 44 -56h30v-25h-74q-47 0 -55.5 16t-8.5 89q-24 -112 -152 -112q-87 0 -127 36t-54 104q-10 49 -10 108q0 69 10 121q14 71 53.5 107t120.5 36q124 0 151 -95l-1 270h-175v25h175l-1 87v44h-70v25q63 0 143 10v-166h100zM388 144
q6 42 6 99q0 64 -5 99q-8 65 -36.5 102.5t-101.5 37.5q-53 0 -76.5 -26.5t-32.5 -91.5q-7 -48 -7 -121q0 -68 8 -121q9 -58 33 -82t75 -24q71 0 99.5 35t37.5 93z" />
    <glyph glyph-name="Emacron" unicode="&#x112;" horiz-adv-x="638" 
d="M464 982v-23h-278v23h278zM492 199h65v-199h-506v25h78v810h-78v25h502v-196h-65v171h-276v-372h209v92h43v-224h-43v102h-209v-408h280v174z" />
    <glyph glyph-name="emacron" unicode="&#x113;" horiz-adv-x="493" 
d="M384 646v-23h-278v23h278zM435 344v-98h-301q0 -42 3 -96q5 -70 33 -102t95 -32q63 0 84 32t21 109h64q0 -85 -38.5 -124.5t-130.5 -39.5t-144.5 35t-58.5 128q-3 46 -3 94t3 94q6 93 56.5 128t136.5 35q78 0 126 -35.5t54 -127.5zM134 271h236q0 50 -1 76
q-1 20 -2.5 33.5t-8 35t-17.5 35t-33 23.5t-53 10q-60 0 -86.5 -32t-31.5 -102q-3 -40 -3 -79z" />
    <glyph glyph-name="Edotaccent" unicode="&#x116;" horiz-adv-x="638" 
d="M321 946q-43 0 -43 43t43 43t43 -43t-43 -43zM421 433h-209v-408h280v174h65v-199h-506v25h78v810h-78v25h502v-196h-65v171h-276v-372h209v92h43v-224h-43v102z" />
    <glyph glyph-name="edotaccent" unicode="&#x117;" horiz-adv-x="493" 
d="M245 601q-55 0 -55 54q0 55 55 55q54 0 54 -55q0 -54 -54 -54zM370 157h64q0 -85 -38.5 -124.5t-130.5 -39.5t-144.5 35t-58.5 128q-3 46 -3 94t3 94q6 93 56.5 128t136.5 35q78 0 126 -35.5t54 -127.5v-98h-301q0 -42 3 -96q5 -70 33 -102t95 -32q63 0 84 32t21 109z
M137 350q-3 -40 -3 -79h236q0 50 -1 76q-1 20 -2.5 33.5t-8 35t-17.5 35t-33 23.5t-53 10q-60 0 -86.5 -32t-31.5 -102z" />
    <glyph glyph-name="Eogonek" unicode="&#x118;" horiz-adv-x="638" 
d="M552 -133l7 -9q-54 -48 -102 -48q-42 0 -64.5 19.5t-22.5 54.5q0 68 79 116h-398v25h78v810h-78v25h502v-196h-65v171h-276v-372h209v92h43v-224h-43v102h-209v-408h280v174h65v-199h-79q-59 -45 -59 -103t64 -58q35 0 69 28z" />
    <glyph glyph-name="eogonek" unicode="&#x119;" horiz-adv-x="493" 
d="M435 344v-98h-301q0 -42 3 -96q5 -70 33 -102t95 -32q63 0 84 32t21 109h64q0 -111 -69 -146q-75 -48 -75 -114q0 -58 64 -58q35 0 69 28l7 -9q-54 -48 -102 -48q-42 0 -64.5 19.5t-22.5 54.5q0 68 83 114q-28 -5 -59 -5q-92 0 -144.5 35t-58.5 128q-3 46 -3 94t3 94
q6 93 56.5 128t136.5 35q78 0 126 -35.5t54 -127.5zM134 271h236q0 50 -1 76q-1 20 -2.5 33.5t-8 35t-17.5 35t-33 23.5t-53 10q-60 0 -86.5 -32t-31.5 -102q-3 -40 -3 -79z" />
    <glyph glyph-name="Ecaron" unicode="&#x11a;" horiz-adv-x="638" 
d="M365 964q-18 -21 -40 -21q-21 0 -40 21q-13 14 -54 62t-68 73l14 13q90 -73 148 -106q55 32 149 106l12 -13q-42 -42 -121 -135zM421 433h-209v-408h280v174h65v-199h-506v25h78v810h-78v25h502v-196h-65v171h-276v-372h209v92h43v-224h-43v102z" />
    <glyph glyph-name="ecaron" unicode="&#x11b;" horiz-adv-x="493" 
d="M378 788l12 -9q-70 -83 -111 -146q-18 -27 -37 -27t-37 27q-46 69 -111 146l12 9q71 -75 136 -127q70 56 136 127zM370 157h64q0 -85 -38.5 -124.5t-130.5 -39.5t-144.5 35t-58.5 128q-3 46 -3 94t3 94q6 93 56.5 128t136.5 35q78 0 126 -35.5t54 -127.5v-98h-301
q0 -42 3 -96q5 -70 33 -102t95 -32q63 0 84 32t21 109zM137 350q-3 -40 -3 -79h236q0 50 -1 76q-1 20 -2.5 33.5t-8 35t-17.5 35t-33 23.5t-53 10q-60 0 -86.5 -32t-31.5 -102z" />
    <glyph glyph-name="Gcommaaccent" unicode="&#x122;" horiz-adv-x="679" 
d="M629 366h-62v-366h-58l-3 131q-24 -141 -177 -141q-32 0 -52 2t-48 11.5t-47 27t-38.5 51.5t-32.5 82q-26 97 -26 263q0 168 25 271q25 100 75 135.5t154 35.5q136 0 164 -91l6 87h56v-223h-66l-3 44q-5 82 -41 117.5t-116 35.5q-73 0 -103.5 -27t-44.5 -119
q-18 -116 -18 -268q0 -169 18 -261q16 -80 45 -112t92 -32q160 0 160 167v179h-95v25h236v-25zM299 -276q92 12 86 103q-9 -22 -37 -22q-49 0 -50 46q-1 27 14 40t42 13q61 0 61 -73q0 -104 -112 -120z" />
    <glyph glyph-name="gcommaaccent" unicode="&#x123;" horiz-adv-x="507" 
d="M251 612q-61 0 -61 73q0 104 112 120l4 -13q-93 -12 -87 -102q11 21 38 21q49 0 50 -46q1 -27 -14 -40t-42 -13zM244 63q136 0 181.5 -34t45.5 -136q0 -98 -45 -130.5t-179 -32.5q-113 0 -159.5 32.5t-46.5 113.5q0 44 8 84l75 -9q-8 -36 -8 -75q0 -29 3 -46.5t15 -37.5
t40.5 -29.5t73.5 -9.5q88 0 118 28.5t30 111.5q0 70 -30 93t-119 23q-53 0 -87 7t-49 21.5t-19.5 27t-4.5 29.5q0 29 19 50t47 26q-53 14 -73.5 53.5t-20.5 110.5q1 93 40 133t146 40q28 0 68.5 -5.5t46.5 -5.5q18 1 30.5 11.5t12.5 26.5q0 13 -6 29t-12 25l-6 10l70 6
q21 -27 20 -56q-2 -68 -93 -68q30 -19 42.5 -54t13.5 -90q-1 -94 -39 -134.5t-143 -41.5q-122 0 -122 -47q0 -50 116 -50zM130 335q-1 -86 25.5 -119t89.5 -33q67 0 92 32.5t24 119.5t-25 118.5t-91 30.5q-66 0 -90 -31t-25 -118z" />
    <glyph glyph-name="Imacron" unicode="&#x12a;" horiz-adv-x="341" 
d="M32 982h278v-23h-278v23zM51 835v25h239v-25h-78v-810h78v-25h-239v25h78v810h-78z" />
    <glyph glyph-name="imacron" unicode="&#x12b;" horiz-adv-x="269" 
d="M-22 646h278v-23h-278v23zM171 25h70v-25h-213v25h70v450h-66v25q83 0 139 7v-482z" />
    <glyph glyph-name="Iogonek" unicode="&#x12e;" horiz-adv-x="341" 
d="M290 835h-78v-810h78v-25h-93q-59 -45 -59 -103t64 -58q35 0 69 28l7 -9q-54 -48 -102 -48q-42 0 -64.5 19.5t-22.5 54.5q0 68 79 116h-117v25h78v810h-78v25h239v-25z" />
    <glyph glyph-name="iogonek" unicode="&#x12f;" horiz-adv-x="269" 
d="M117 601q-55 0 -55 54q0 55 55 55q54 0 54 -55q0 -54 -54 -54zM241 0h-83q-59 -45 -59 -103t64 -58q35 0 69 28l7 -9q-54 -48 -102 -48q-42 0 -64.5 19.5t-22.5 54.5q0 69 87 116h-109v25h70v450h-66v25q83 0 139 7v-482h70v-25z" />
    <glyph glyph-name="dotlessi" unicode="&#x131;" horiz-adv-x="269" 
d="M171 25h70v-25h-213v25h70v450h-66v25q83 0 139 7v-482z" />
    <glyph glyph-name="Kcommaaccent" unicode="&#x136;" horiz-adv-x="678" 
d="M638 25h35v-25h-61h-19q-29 0 -41.5 0.5t-30 4.5t-23.5 12t-14.5 24.5t-11.5 40t-6 59.5l-12 170q-5 63 -41.5 92.5t-122.5 29.5h-78v-408h108v-25h-269v25h78v810h-78v25h255v-25h-94v-372h76q46 0 73.5 10.5t44.5 42t24 68t16 110.5l16 141h-68v25h230v-25h-86
l-19 -149q-15 -130 -44.5 -178t-101.5 -59q157 -12 168 -158l13 -154q6 -68 20.5 -90t63.5 -22zM380 -97q61 0 61 -73q0 -104 -112 -120l-4 13q93 12 87 102q-10 -21 -38 -21q-49 0 -50 46q-1 27 14 40t42 13z" />
    <glyph glyph-name="kcommaaccent" unicode="&#x137;" horiz-adv-x="535" 
d="M479 25h21v-25h-54h-14q-26 0 -36.5 1t-21 9t-14 24t-5.5 48l-7 94q-3 42 -25.5 55.5t-99.5 13.5h-55v-220h79v-25h-222v25h70v810h-64v25q81 0 137 7v-597h53q41 0 64 5.5t36.5 25t17.5 39t10 65.5l9 70h-55v25h185v-25h-70l-11 -75q-12 -79 -29 -105.5t-66 -32.5l-1 -1
q104 -8 112 -92l7 -80q3 -39 11.5 -51.5t37.5 -12.5zM282 -97q61 0 61 -73q0 -104 -112 -120l-4 13q93 12 87 102q-10 -21 -38 -21q-49 0 -50 46q-1 27 14 40t42 13z" />
    <glyph glyph-name="Lacute" unicode="&#x139;" horiz-adv-x="563" 
d="M420 1160q37 -3 37 -37q0 -19 -18 -33t-68 -43q-100 -57 -153 -94l-12 13q51 46 165 166q28 30 49 28zM547 0h-496v25h78v810h-78v25h239v-25h-78v-810h271v177l65 -1z" />
    <glyph glyph-name="lacute" unicode="&#x13a;" horiz-adv-x="264" 
d="M207 24h25v-25h-87q-28 0 -41.5 8.5t-13.5 35.5v792h-70v25q87 0 143 7v-787q0 -56 44 -56z" />
    <glyph glyph-name="Lcommaaccent" unicode="&#x13b;" horiz-adv-x="563" 
d="M483 202l65 -1l-1 -201h-496v25h78v810h-78v25h239v-25h-78v-810h271v177zM326 -97q61 0 61 -73q0 -104 -112 -120l-4 13q93 12 87 102q-10 -21 -38 -21q-49 0 -50 46q-1 27 14 40t42 13z" />
    <glyph glyph-name="lcommaaccent" unicode="&#x13c;" horiz-adv-x="264" 
d="M207 24h25v-25h-87q-28 0 -41.5 8.5t-13.5 35.5v792h-70v25q87 0 143 7v-787q0 -56 44 -56zM146 -97q61 0 61 -73q0 -104 -112 -120l-4 13q93 12 87 102q-10 -21 -38 -21q-49 0 -50 46q-1 27 14 40t42 13z" />
    <glyph glyph-name="Lcaron" unicode="&#x13d;" horiz-adv-x="563" 
d="M338 964q-18 -21 -40 -21q-21 0 -40 21q-13 14 -54 62t-68 73l14 13q90 -73 148 -106q55 32 149 106l12 -13q-42 -42 -121 -135zM547 0h-496v25h78v810h-78v25h239v-25h-78v-810h271v177l65 -1z" />
    <glyph glyph-name="lcaron" unicode="&#x13e;" horiz-adv-x="264" 
d="M163 867v-787q0 -56 44 -56h25v-25h-87q-28 0 -41.5 8.5t-13.5 35.5v792h-70v25q87 0 143 7zM302 866q61 0 61 -73q0 -104 -112 -120l-4 13q93 12 87 102q-10 -21 -38 -21q-49 0 -50 46q-1 27 14 40t42 13z" />
    <glyph glyph-name="Lslash" unicode="&#x141;" horiz-adv-x="610" 
d="M483 202l65 -1l-1 -201h-496v25h78v368l-70 -26l-8 25l78 29v414h-78v25h239v-25h-78v-383l167 62l8 -25l-175 -65v-399h271v177z" />
    <glyph glyph-name="lslash" unicode="&#x142;" horiz-adv-x="263" 
d="M245 490l-82 -30v-379q0 -56 44 -56h25v-25h-87q-28 0 -41.5 8.5t-13.5 35.5v389l-78 -28v25l78 28v378h-70v25q87 0 143 7v-383l82 30v-25z" />
    <glyph glyph-name="Nacute" unicode="&#x143;" horiz-adv-x="698" 
d="M471 1160q37 -3 37 -37q0 -19 -18 -33t-68 -43q-100 -57 -153 -94l-12 13q51 46 165 166q28 30 49 28zM585 835v-835l-85 -1l-345 825h-4v-799h78v-25h-194v25h78v810h-78v25h192l318 -767h2v742h-78v25h194v-25h-78z" />
    <glyph glyph-name="nacute" unicode="&#x144;" horiz-adv-x="571" 
d="M320 714q-18 -19 -30.5 -34.5t-28 -37.5t-20.5 -28l-17 11q47 71 83 146q14 30 34 27t20 -24q0 -16 -41 -60zM518 25h30v-25h-92q-28 0 -41.5 8.5t-13.5 35.5v319q0 25 -2.5 41t-11.5 36.5t-31.5 31t-58.5 10.5q-53 0 -89.5 -40.5t-36.5 -112.5v-304h79v-25h-222v25h70
v450h-70v25q81 0 137 7l1 -76v-19q17 45 59 69.5t99 24.5q81 0 115.5 -36t34.5 -101v-288q0 -56 44 -56z" />
    <glyph glyph-name="Ncommaaccent" unicode="&#x145;" horiz-adv-x="688" 
d="M469 860h194v-25h-78v-835l-85 -1l-345 825h-4v-799h78v-25h-194v25h78v810h-78v25h192l318 -767h2v742h-78v25zM361 -97q61 0 61 -73q0 -104 -112 -120l-4 13q93 12 87 102q-11 -21 -38 -21q-49 0 -50 46q-1 27 14 40t42 13z" />
    <glyph glyph-name="ncommaaccent" unicode="&#x146;" horiz-adv-x="571" 
d="M518 25h30v-25h-92q-28 0 -41.5 8.5t-13.5 35.5v319q0 25 -2.5 41t-11.5 36.5t-31.5 31t-58.5 10.5q-53 0 -89.5 -40.5t-36.5 -112.5v-304h79v-25h-222v25h70v450h-70v25q81 0 137 7l1 -76v-19q17 45 59 69.5t99 24.5q81 0 115.5 -36t34.5 -101v-288q0 -56 44 -56z
M306 -97q61 0 61 -73q0 -104 -112 -120l-4 13q93 12 87 102q-10 -21 -38 -21q-49 0 -50 46q-1 27 14 40t42 13z" />
    <glyph glyph-name="Ncaron" unicode="&#x147;" horiz-adv-x="698" 
d="M389 964q-18 -21 -40 -21q-21 0 -40 21q-13 14 -54 62t-68 73l14 13q90 -73 148 -106q55 32 149 106l12 -13q-42 -42 -121 -135zM585 835v-835l-85 -1l-345 825h-4v-799h78v-25h-194v25h78v810h-78v25h192l318 -767h2v742h-78v25h194v-25h-78z" />
    <glyph glyph-name="ncaron" unicode="&#x148;" horiz-adv-x="571" 
d="M280 606q-19 0 -37 27q-46 69 -111 146l12 9q71 -75 136 -127q70 56 136 127l12 -9q-70 -83 -111 -146q-18 -27 -37 -27zM518 25h30v-25h-92q-28 0 -41.5 8.5t-13.5 35.5v319q0 25 -2.5 41t-11.5 36.5t-31.5 31t-58.5 10.5q-53 0 -89.5 -40.5t-36.5 -112.5v-304h79v-25
h-222v25h70v450h-70v25q81 0 137 7l1 -76v-19q17 45 59 69.5t99 24.5q81 0 115.5 -36t34.5 -101v-288q0 -56 44 -56z" />
    <glyph glyph-name="Eng" unicode="&#x14a;" horiz-adv-x="698" 
d="M469 860h194v-25h-78v-962q0 -72 -31.5 -97t-115.5 -25q-32 0 -58 4l1 25q26 -4 43 -4q12 0 22 1.5t17.5 3.5t13.5 7.5t9.5 7.5t6.5 11.5t4.5 12t2 15t0.5 15v17.5v18v114l-345 825h-4v-799h78v-25h-194v25h78v810h-78v25h192l318 -767h2v742h-78v25z" />
    <glyph glyph-name="eng" unicode="&#x14b;" horiz-adv-x="610" 
d="M324 506q81 0 115.5 -36t34.5 -101v-496q0 -71 -30 -96.5t-107 -25.5q-30 0 -56 4l1 25q26 -4 43 -4q12 0 22 1.5t17.5 3.5t13.5 7.5t9.5 7.5t6.5 11.5t4.5 12t2 15t0.5 15v17.5v18v478q0 25 -2.5 41t-11.5 36.5t-31.5 31t-58.5 10.5q-53 0 -89.5 -40.5t-36.5 -112.5
v-304h79v-25h-222v25h70v450h-70v25q81 0 137 7l1 -76v-19q17 45 59 69.5t99 24.5z" />
    <glyph glyph-name="Omacron" unicode="&#x14c;" horiz-adv-x="692" 
d="M346 -11q-105 0 -159 37t-78 136q-27 109 -25 268q-2 158 25 267q25 99 78.5 136t158.5 37t158.5 -37t78.5 -136q24 -114 24 -267q0 -169 -24 -268t-78 -136t-159 -37zM346 16q74 0 108.5 29.5t48.5 122.5q15 95 15 262q0 166 -15 261q-14 93 -48.5 122.5t-108.5 29.5
t-108.5 -29.5t-48.5 -122.5q-15 -95 -15 -261q0 -167 15 -262q14 -93 48.5 -122.5t108.5 -29.5zM207 982h278v-23h-278v23z" />
    <glyph glyph-name="omacron" unicode="&#x14d;" horiz-adv-x="534" 
d="M408 646v-23h-278v23h278zM466 363q8 -45 8 -113t-8 -113q-11 -72 -54.5 -107.5t-144.5 -35.5t-144.5 35.5t-54.5 107.5q-8 54 -8 113t8 113q11 71 55 107t144 36q99 0 143 -35.5t56 -107.5zM392 135q7 56 7 115t-7 115q-3 27 -8.5 45t-18 36.5t-37 27.5t-61.5 9
t-61.5 -9t-37 -27.5t-18 -36.5t-8.5 -45q-7 -70 -7 -115t7 -115q3 -27 8.5 -45t18 -36.5t37 -27.5t61.5 -9t61.5 9t37 27.5t18 36.5t8.5 45z" />
    <glyph glyph-name="Ohungarumlaut" unicode="&#x150;" horiz-adv-x="692" 
d="M346 -11q-105 0 -159 37t-78 136q-27 109 -25 268q-2 158 25 267q25 99 78.5 136t158.5 37t158.5 -37t78.5 -136q24 -114 24 -267q0 -169 -24 -268t-78 -136t-159 -37zM346 16q74 0 108.5 29.5t48.5 122.5q15 95 15 262q0 166 -15 261q-14 93 -48.5 122.5t-108.5 29.5
t-108.5 -29.5t-48.5 -122.5q-15 -95 -15 -261q0 -167 15 -262q14 -93 48.5 -122.5t108.5 -29.5zM375 1160q37 -3 37 -37q0 -19 -18.5 -34t-67.5 -43q-107 -61 -153 -93l-12 13q51 46 165 166q28 30 49 28zM591 1160q37 -3 37 -37q0 -19 -18.5 -34t-67.5 -43
q-107 -61 -153 -93l-12 13q51 46 165 166q28 30 49 28z" />
    <glyph glyph-name="ohungarumlaut" unicode="&#x151;" horiz-adv-x="534" 
d="M253 771q16 30 34 27q20 -3 20 -24q0 -16 -41 -60q-35 -37 -81 -98l-13 7q13 21 81 148zM392 771q16 30 34 27q20 -3 20 -24q0 -16 -41 -60q-35 -37 -81 -98l-13 7q13 21 81 148zM466 363q8 -45 8 -113t-8 -113q-11 -72 -54.5 -107.5t-144.5 -35.5t-144.5 35.5
t-54.5 107.5q-8 54 -8 113t8 113q11 71 55 107t144 36q99 0 143 -35.5t56 -107.5zM392 135q7 56 7 115t-7 115q-3 27 -8.5 45t-18 36.5t-37 27.5t-61.5 9t-61.5 -9t-37 -27.5t-18 -36.5t-8.5 -45q-7 -70 -7 -115t7 -115q3 -27 8.5 -45t18 -36.5t37 -27.5t61.5 -9t61.5 9
t37 27.5t18 36.5t8.5 45z" />
    <glyph glyph-name="OE" unicode="&#x152;" horiz-adv-x="937" 
d="M856 239v-239h-407q-23 -11 -101 -11q-46 0 -74 4t-62.5 20t-58.5 53t-41 97q-27 94 -27 263q0 170 26 271q25 99 78.5 136t158.5 37q36 0 99 -10l405 -1v-210h-65v185h-262v-374h195v95h43v-224h-43v104h-195v-410h266v214h65zM348 19q77 0 101 24v774q-35 23 -101 23
q-74 0 -107.5 -27.5t-49.5 -116.5q-17 -89 -17 -252q0 -174 17 -282q13 -88 48 -115.5t109 -27.5z" />
    <glyph glyph-name="oe" unicode="&#x153;" horiz-adv-x="822" 
d="M764 344q1 -14 1 -30.5t-0.5 -36.5t-0.5 -30h-301q0 -52 3 -97q5 -68 31 -101t91 -33q59 0 85 24.5t26 90.5v26h59v-23q0 -141 -170 -141q-121 0 -160 62q-39 -61 -162 -61q-101 0 -144.5 35.5t-54.5 107.5q-8 54 -8 113t8 113q11 71 55 107t144 36q123 0 162 -63
q40 64 156 64q78 0 126 -35.5t54 -127.5zM463 272h236q0 49 -1 75q-1 19 -2.5 31.5t-8 34.5t-17.5 35.5t-33.5 24.5t-52.5 11q-59 0 -85.5 -33.5t-32.5 -100.5q-3 -42 -3 -78zM391 135q8 64 8 115t-8 115q-3 25 -8.5 42.5t-18 36.5t-37.5 29t-61 10t-61 -10t-37.5 -29
t-18 -36.5t-8.5 -42.5q-6 -48 -6 -115t6 -115q3 -25 8.5 -42.5t18 -36.5t37.5 -29t61 -10t61 10t37.5 29t18 36.5t8.5 42.5z" />
    <glyph glyph-name="Racute" unicode="&#x154;" horiz-adv-x="705" 
d="M477 1160q37 -3 37 -37q0 -19 -18 -33t-68 -43q-100 -57 -153 -94l-12 13q51 46 165 166q28 30 49 28zM660 25h35v-25h-60h-19q-30 0 -43 0.5t-30.5 4.5t-24.5 12t-15 24t-11 39.5t-4 59.5l-7 169q-1 36 -14.5 61.5t-31 38.5t-45 20t-46 8.5t-45.5 1.5h-86l-1 -414h108
v-25h-269v25h78v810h-78v25h319q56 0 95 -12t60 -29.5t32 -48t13.5 -55.5t2.5 -65q0 -89 -38 -138t-121 -61q16 -1 32 -4.5t39 -14.5t39.5 -27t29.5 -46.5t15 -69.5l7 -153q3 -66 18.5 -88.5t65.5 -22.5zM213 464h107q102 0 134.5 37t32.5 149q0 65 -5 99.5t-23.5 55
t-45 25.5t-79.5 5h-121v-371z" />
    <glyph glyph-name="racute" unicode="&#x155;" horiz-adv-x="419" 
d="M249 714q-18 -19 -30.5 -34.5t-28 -37.5t-20.5 -28l-17 11q47 71 83 146q14 30 34 27t20 -24q0 -16 -41 -60zM275 506q66 0 92.5 -22.5t26.5 -81.5v-55l-60 1v47q0 45 -11 66.5t-48 21.5q-54 0 -79 -40t-25 -136v-282h106v-25h-249v25h70v450h-70v25q55 0 125 10l3 -110
q11 53 42 79.5t77 26.5z" />
    <glyph glyph-name="Rcommaaccent" unicode="&#x156;" horiz-adv-x="705" 
d="M660 25h35v-25h-60h-19q-30 0 -43 0.5t-30.5 4.5t-24.5 12t-15 24t-11 39.5t-4 59.5l-7 169q-1 36 -14.5 61.5t-31 38.5t-45 20t-46 8.5t-45.5 1.5h-86l-1 -414h108v-25h-269v25h78v810h-78v25h319q56 0 95 -12t60 -29.5t32 -48t13.5 -55.5t2.5 -65q0 -89 -38 -138
t-121 -61q16 -1 32 -4.5t39 -14.5t39.5 -27t29.5 -46.5t15 -69.5l7 -153q3 -66 18.5 -88.5t65.5 -22.5zM213 464h107q102 0 134.5 37t32.5 149q0 65 -5 99.5t-23.5 55t-45 25.5t-79.5 5h-121v-371zM391 -97q61 0 61 -73q0 -104 -112 -120l-4 13q93 12 87 102
q-11 -21 -38 -21q-49 0 -50 46q-1 27 14 40t42 13z" />
    <glyph glyph-name="rcommaaccent" unicode="&#x157;" horiz-adv-x="419" 
d="M275 506q66 0 92.5 -22.5t26.5 -81.5v-55l-60 1v47q0 45 -11 66.5t-48 21.5q-54 0 -79 -40t-25 -136v-282h106v-25h-249v25h70v450h-70v25q55 0 125 10l3 -110q11 53 42 79.5t77 26.5zM135 -97q61 0 61 -73q0 -104 -112 -120l-4 13q93 12 87 102q-11 -21 -38 -21
q-49 0 -50 46q-1 27 14 40t42 13z" />
    <glyph glyph-name="Rcaron" unicode="&#x158;" horiz-adv-x="705" 
d="M395 964q-18 -21 -40 -21q-21 0 -40 21q-13 14 -54 62t-68 73l14 13q90 -73 148 -106q55 32 149 106l12 -13q-42 -42 -121 -135zM660 25h35v-25h-60h-19q-30 0 -43 0.5t-30.5 4.5t-24.5 12t-15 24t-11 39.5t-4 59.5l-7 169q-1 36 -14.5 61.5t-31 38.5t-45 20t-46 8.5
t-45.5 1.5h-86l-1 -414h108v-25h-269v25h78v810h-78v25h319q56 0 95 -12t60 -29.5t32 -48t13.5 -55.5t2.5 -65q0 -89 -38 -138t-121 -61q16 -1 32 -4.5t39 -14.5t39.5 -27t29.5 -46.5t15 -69.5l7 -153q3 -66 18.5 -88.5t65.5 -22.5zM213 464h107q102 0 134.5 37t32.5 149
q0 65 -5 99.5t-23.5 55t-45 25.5t-79.5 5h-121v-371z" />
    <glyph glyph-name="rcaron" unicode="&#x159;" horiz-adv-x="419" 
d="M209 606q-19 0 -37 27q-46 69 -111 146l12 9q71 -75 136 -127q70 56 136 127l12 -9q-70 -83 -111 -146q-18 -27 -37 -27zM275 506q66 0 92.5 -22.5t26.5 -81.5v-55l-60 1v47q0 45 -11 66.5t-48 21.5q-54 0 -79 -40t-25 -136v-282h106v-25h-249v25h70v450h-70v25
q55 0 125 10l3 -110q11 53 42 79.5t77 26.5z" />
    <glyph glyph-name="Sacute" unicode="&#x15a;" horiz-adv-x="604" 
d="M430 1160q37 -3 37 -37q0 -19 -18 -33t-68 -43q-100 -57 -153 -94l-12 13q51 46 165 166q28 30 49 28zM543 214q1 -123 -60 -174t-203 -51q-58 0 -100 14t-64.5 34t-35.5 50.5t-16 55t-3 56.5v40h80v-40q0 -89 26.5 -133t112.5 -47q101 -4 139 41.5t38 138.5
q0 106 -30.5 143.5t-141.5 92.5q-6 3 -9 5q-6 3 -30 14.5t-34.5 17t-32 18.5t-32.5 23t-26.5 27.5t-23 35t-13.5 41t-6 50.5q0 110 59.5 156t168.5 46q133 0 152 -108l6 104h56v-223h-65q-5 105 -37 151t-113 46t-117 -30t-36 -116q0 -22 4.5 -41.5t9.5 -33.5t19 -29
t20.5 -22.5t28 -20.5t27.5 -16.5t32.5 -17t31.5 -15.5t25 -12.5t28.5 -14.5t28.5 -16t29.5 -20t26.5 -22.5t26 -27.5t21 -32.5t18 -39.5t10.5 -45t4.5 -53z" />
    <glyph glyph-name="sacute" unicode="&#x15b;" horiz-adv-x="455" 
d="M201 714q-18 -19 -30.5 -34.5t-28 -37.5t-20.5 -28l-17 11q47 71 83 146q14 30 34 27t20 -24q0 -16 -41 -60zM266 300q77 -21 108 -56.5t31 -102.5q0 -66 -41.5 -106.5t-133.5 -40.5q-57 0 -95 11t-55.5 32.5t-24 44t-6.5 53.5v23h68v-21q0 -68 27 -94t86 -26
q61 0 91.5 26.5t30.5 83.5q0 38 -24.5 63t-104.5 47q-88 24 -123 52t-35 97q0 20 6 39t20.5 39t45.5 32t75 12q92 0 114 -77l2 71h48v-134h-62q0 52 -25 84.5t-76 32.5q-52 0 -75 -18t-23 -59q0 -14 3.5 -26t8 -20t15 -16t18 -12.5t23.5 -10t24.5 -8t28.5 -7.5t30 -8z" />
    <glyph glyph-name="Scedilla" unicode="&#x15e;" horiz-adv-x="604" 
d="M543 214q1 -113 -51 -165t-170 -59l-19 -38q18 2 32 2q73 0 73 -63q0 -33 -22.5 -52.5t-44.5 -24t-47 -4.5q-38 0 -80 18l10 30q34 -17 66 -17q22 0 36 11.5t14 31.5q0 41 -80 37l35 68h-15q-58 0 -100 14t-64.5 34t-35.5 50.5t-16 55t-3 56.5v40h80v-40q0 -89 26.5 -133
t112.5 -47q101 -4 139 41.5t38 138.5q0 106 -30.5 143.5t-141.5 92.5q-6 3 -9 5q-6 3 -30 14.5t-34.5 17t-32 18.5t-32.5 23t-26.5 27.5t-23 35t-13.5 41t-6 50.5q0 110 59.5 156t168.5 46q133 0 152 -108l6 104h56v-223h-65q-5 105 -37 151t-113 46t-117 -30t-36 -116
q0 -22 4.5 -41.5t9.5 -33.5t19 -29t20.5 -22.5t28 -20.5t27.5 -16.5t32.5 -17t31.5 -15.5t25 -12.5t28.5 -14.5t28.5 -16t29.5 -20t26.5 -22.5t26 -27.5t21 -32.5t18 -39.5t10.5 -45t4.5 -53z" />
    <glyph glyph-name="scedilla" unicode="&#x15f;" horiz-adv-x="455" 
d="M405 141q0 -62 -36.5 -102t-118.5 -44l-21 -43q28 2 41 2q22 0 40 -16t18 -45q0 -31 -21 -50.5t-42 -25t-41 -5.5q-34 0 -82 18l15 19q33 -15 67 -15q19 0 39 13.5t20 41.5q0 26 -28.5 34.5t-70.5 2.5l35 68q-54 1 -89.5 12.5t-52 33t-22.5 43.5t-6 52v23h68v-21
q0 -68 27 -94t86 -26q61 0 91.5 26.5t30.5 83.5q0 38 -24.5 63t-104.5 47q-88 24 -123 52t-35 97q0 20 6 39t20.5 39t45.5 32t75 12q92 0 114 -77l2 71h48v-134h-62q0 52 -25 84.5t-76 32.5q-52 0 -75 -18t-23 -59q0 -14 3.5 -26t8 -20t15 -16t18 -12.5t23.5 -10t24.5 -8
t28.5 -7.5t30 -8q77 -21 108 -56.5t31 -102.5z" />
    <glyph glyph-name="Scaron" unicode="&#x160;" horiz-adv-x="604" 
d="M348 964q-18 -21 -40 -21q-21 0 -40 21q-13 14 -54 62t-68 73l14 13q90 -73 148 -106q55 32 149 106l12 -13q-42 -42 -121 -135zM543 214q1 -123 -60 -174t-203 -51q-58 0 -100 14t-64.5 34t-35.5 50.5t-16 55t-3 56.5v40h80v-40q0 -89 26.5 -133t112.5 -47
q101 -4 139 41.5t38 138.5q0 106 -30.5 143.5t-141.5 92.5q-6 3 -9 5q-6 3 -30 14.5t-34.5 17t-32 18.5t-32.5 23t-26.5 27.5t-23 35t-13.5 41t-6 50.5q0 110 59.5 156t168.5 46q133 0 152 -108l6 104h56v-223h-65q-5 105 -37 151t-113 46t-117 -30t-36 -116
q0 -22 4.5 -41.5t9.5 -33.5t19 -29t20.5 -22.5t28 -20.5t27.5 -16.5t32.5 -17t31.5 -15.5t25 -12.5t28.5 -14.5t28.5 -16t29.5 -20t26.5 -22.5t26 -27.5t21 -32.5t18 -39.5t10.5 -45t4.5 -53z" />
    <glyph glyph-name="scaron" unicode="&#x161;" horiz-adv-x="455" 
d="M200 606q-19 0 -37 27q-46 69 -111 146l12 9q71 -75 136 -127q70 56 136 127l12 -9q-70 -83 -111 -146q-18 -27 -37 -27zM266 300q77 -21 108 -56.5t31 -102.5q0 -66 -41.5 -106.5t-133.5 -40.5q-57 0 -95 11t-55.5 32.5t-24 44t-6.5 53.5v23h68v-21q0 -68 27 -94t86 -26
q61 0 91.5 26.5t30.5 83.5q0 38 -24.5 63t-104.5 47q-88 24 -123 52t-35 97q0 20 6 39t20.5 39t45.5 32t75 12q92 0 114 -77l2 71h48v-134h-62q0 52 -25 84.5t-76 32.5q-52 0 -75 -18t-23 -59q0 -14 3.5 -26t8 -20t15 -16t18 -12.5t23.5 -10t24.5 -8t28.5 -7.5t30 -8z" />
    <glyph glyph-name="uni0162" unicode="&#x162;" horiz-adv-x="591" 
d="M15 860h561v-198h-65v173h-174v-810h142v-25h-164l-24 -48q18 2 32 2q73 0 73 -63q0 -33 -22.5 -52.5t-44.5 -24t-47 -4.5q-38 0 -80 18l10 30q34 -17 66 -17q22 0 36 11.5t14 31.5q0 41 -80 37l40 79h-176v25h142v810h-174v-173h-65v198z" />
    <glyph glyph-name="uni0163" unicode="&#x163;" horiz-adv-x="370" 
d="M273 141h52v-42q0 -62 -31 -85.5t-85 -23.5h-12l-22 -43q28 2 41 2q22 0 40 -16t18 -45q0 -31 -21 -50.5t-42 -25t-41 -5.5q-34 0 -82 18l15 19q33 -15 67 -15q19 0 39 13.5t20 41.5q0 26 -28.5 34.5t-70.5 2.5l36 71q-56 7 -71 37.5t-15 106.5v339h-70v25h70v187
q45 0 73 7v-194h132v-25h-132v-332q0 -78 9 -99q13 -31 53 -31q58 0 58 104v24z" />
    <glyph glyph-name="Tcaron" unicode="&#x164;" horiz-adv-x="591" 
d="M336 964q-18 -21 -40 -21q-21 0 -40 21q-13 14 -54 62t-68 73l14 13q90 -73 148 -106q55 32 149 106l12 -13q-42 -42 -121 -135zM511 662v173h-174v-810h142v-25h-367v25h142v810h-174v-173h-65v198h561v-198h-65z" />
    <glyph glyph-name="tcaron" unicode="&#x165;" horiz-adv-x="386" 
d="M304 856q23 11 34 -11q6 -10 0.5 -25t-25.5 -51q-51 -97 -60 -116h-20l50 171q7 24 21 32zM273 141h52v-42q0 -62 -31 -85.5t-85 -23.5q-45 0 -70.5 7t-38.5 27t-16.5 43.5t-3.5 68.5v339h-70v25h70v187q45 0 73 7v-194h132v-25h-132v-332q0 -78 9 -99q13 -31 53 -31
q58 0 58 104v24z" />
    <glyph glyph-name="Tbar" unicode="&#x166;" horiz-adv-x="610" 
d="M15 860h561v-198h-65v173h-174v-330h135v-25h-135v-455h142v-25h-367v25h142v455h-136v25h136v330h-174v-173h-65v198z" />
    <glyph glyph-name="tbar" unicode="&#x167;" horiz-adv-x="370" 
d="M273 141h52v-42q0 -62 -31 -85.5t-85 -23.5q-45 0 -70.5 7t-38.5 27t-16.5 43.5t-3.5 68.5v230h-100v25h100v84h-70v25h70v187q45 0 73 7v-194h132v-25h-132v-84h157v-25h-157v-223q0 -78 9 -99q13 -31 53 -31q58 0 58 104v24z" />
    <glyph glyph-name="Umacron" unicode="&#x16a;" horiz-adv-x="700" 
d="M504 982v-23h-278v23h278zM444 860h236v-25h-86v-630q0 -215 -229 -215q-125 0 -193.5 50t-68.5 148v647h-78v25h239v-25h-78v-640q0 -175 180 -175q93 0 139 47.5t46 135.5v632h-107v25z" />
    <glyph glyph-name="umacron" unicode="&#x16b;" horiz-adv-x="575" 
d="M414 646v-23h-278v23h278zM509 25h26v-25h-77q-46 0 -56 14.5t-8 71.5q-33 -92 -158 -92q-74 0 -108.5 34.5t-34.5 112.5v334h-70v25q87 0 143 7v-369q0 -24 3 -41t12.5 -37t31.5 -31t55 -11q53 0 88.5 45.5t35.5 121.5v290h-70v25q87 0 143 7v-436q0 -29 8.5 -37.5
t35.5 -8.5z" />
    <glyph glyph-name="Uring" unicode="&#x16e;" horiz-adv-x="700" 
d="M366 947q-113 0 -115 96q0 97 115 97q57 0 85 -26t28 -71q-2 -96 -113 -96zM367 966q74 0 74 78q2 77 -75 77q-42 0 -59.5 -19.5t-18.5 -58.5q0 -77 79 -77zM680 835h-86v-630q0 -215 -229 -215q-125 0 -193.5 50t-68.5 148v647h-78v25h239v-25h-78v-640q0 -175 180 -175
q93 0 139 47.5t46 135.5v632h-107v25h236v-25z" />
    <glyph glyph-name="uring" unicode="&#x16f;" horiz-adv-x="575" 
d="M275 609q-104 0 -104 88q-1 43 25.5 66t79.5 23q52 0 77.5 -23.5t25.5 -65.5q-2 -88 -104 -88zM205 697q-1 -35 16 -53t56 -18q66 0 68 72q0 70 -69 70q-39 0 -55 -18t-16 -53zM509 25h26v-25h-77q-46 0 -56 14.5t-8 71.5q-33 -92 -158 -92q-74 0 -108.5 34.5
t-34.5 112.5v334h-70v25q87 0 143 7v-369q0 -24 3 -41t12.5 -37t31.5 -31t55 -11q53 0 88.5 45.5t35.5 121.5v290h-70v25q87 0 143 7v-436q0 -29 8.5 -37.5t35.5 -8.5z" />
    <glyph glyph-name="Uhungarumlaut" unicode="&#x170;" horiz-adv-x="700" 
d="M394 1160q37 -3 37 -37q0 -19 -18.5 -34t-67.5 -43q-107 -61 -153 -93l-12 13q51 46 165 166q28 30 49 28zM610 1160q37 -3 37 -37q0 -19 -18.5 -34t-67.5 -43q-107 -61 -153 -93l-12 13q51 46 165 166q28 30 49 28zM680 835h-86v-630q0 -215 -229 -215q-125 0 -193.5 50
t-68.5 148v647h-78v25h239v-25h-78v-640q0 -175 180 -175q93 0 139 47.5t46 135.5v632h-107v25h236v-25z" />
    <glyph glyph-name="uhungarumlaut" unicode="&#x171;" horiz-adv-x="575" 
d="M272 714q-35 -37 -81 -98l-13 7q13 21 81 148q16 30 34 27q20 -3 20 -24q0 -16 -41 -60zM411 714q-35 -37 -81 -98l-13 7q13 21 81 148q16 30 34 27q20 -3 20 -24q0 -16 -41 -60zM509 25h26v-25h-77q-46 0 -56 14.5t-8 71.5q-33 -92 -158 -92q-74 0 -108.5 34.5
t-34.5 112.5v334h-70v25q87 0 143 7v-369q0 -24 3 -41t12.5 -37t31.5 -31t55 -11q53 0 88.5 45.5t35.5 121.5v290h-70v25q87 0 143 7v-436q0 -29 8.5 -37.5t35.5 -8.5z" />
    <glyph glyph-name="Uogonek" unicode="&#x172;" horiz-adv-x="700" 
d="M444 860h236v-25h-86v-630q0 -149 -111 -195q-73 -48 -73 -113q0 -58 64 -58q35 0 69 28l7 -9q-54 -48 -102 -48q-42 0 -64.5 19.5t-22.5 54.5q0 65 72 112q-31 -6 -68 -6q-125 0 -193.5 50t-68.5 148v647h-78v25h239v-25h-78v-640q0 -175 180 -175q93 0 139 47.5
t46 135.5v632h-107v25z" />
    <glyph glyph-name="uogonek" unicode="&#x173;" horiz-adv-x="558" 
d="M540 -133l7 -9q-54 -48 -102 -48q-42 0 -64.5 19.5t-22.5 54.5q0 71 87 116q-36 1 -44.5 17t-6.5 69q-33 -92 -158 -92q-74 0 -108.5 34.5t-34.5 112.5v334h-70v25q87 0 143 7v-369q0 -24 3 -41t12.5 -37t31.5 -31t55 -11q53 0 88.5 45.5t35.5 121.5v290h-70v25
q87 0 143 7v-436q0 -29 8.5 -37.5t35.5 -8.5h26v-25h-69q-59 -45 -59 -103t64 -58q35 0 69 28z" />
    <glyph glyph-name="Wcircumflex" unicode="&#x174;" horiz-adv-x="1004" 
d="M478 1045q-87 -54 -149 -101l-14 13q55 55 123 135q18 21 40 21t40 -21q68 -80 123 -135l-14 -13q-62 47 -149 101zM999 860v-25h-71l-207 -835h-89l-137 537l-152 -537h-86l-190 835h-62v25h261v-25h-114l174 -767h3l150 533l-60 234h-52v25h252v-25h-106l189 -767h2
l190 767h-119v25h224z" />
    <glyph glyph-name="wcircumflex" unicode="&#x175;" horiz-adv-x="698" 
d="M347 729q-35 -23 -118 -109l-13 9q60 73 101 139q13 22 30 22q14 0 30 -22q41 -66 101 -139l-13 -9q-22 24 -62 61.5t-56 47.5zM693 500v-25h-43l-128 -475h-77l-95 348l-94 -348h-75l-131 475h-45v25h201v-25h-84l117 -423l97 348l-20 75h-53v25h212v-25h-86l116 -424
l116 424h-61v25h133z" />
    <glyph glyph-name="Ycircumflex" unicode="&#x176;" horiz-adv-x="700" 
d="M386 1045q-87 -54 -149 -101l-14 13q55 55 123 135q18 21 40 21t40 -21q68 -80 123 -135l-14 -13q-62 47 -149 101zM618 835l-213 -485v-325h142v-25h-367v25h142v325l-211 485h-106v25h309v-25h-115l192 -435l191 435h-105v25h218v-25h-77z" />
    <glyph glyph-name="ycircumflex" unicode="&#x177;" horiz-adv-x="543" 
d="M269 729q-35 -23 -118 -109l-13 9q60 73 101 139q13 22 30 22q14 0 30 -22q41 -66 101 -139l-13 -9q-22 24 -62 61.5t-56 47.5zM323 475v25q82 0 138 7v-76l-1 -471q0 -117 -43 -163.5t-156 -46.5q-58 0 -96.5 11t-57 32.5t-25 44t-6.5 53.5v23h67v-16q0 -71 26.5 -98
t90.5 -27q83 0 107.5 42.5t24.5 141.5v147q-8 -32 -27.5 -54.5t-44 -32.5t-44.5 -13.5t-40 -3.5q-83 0 -115.5 39.5t-32.5 105.5v330h-65v25q82 0 138 7v-365q0 -118 90 -118q136 0 136 206v245h-64z" />
    <glyph glyph-name="Ydieresis" unicode="&#x178;" horiz-adv-x="700" 
d="M314 946q-43 0 -43 43t43 43t43 -43t-43 -43zM463 946q-43 0 -43 43t43 43t43 -43t-43 -43zM618 835l-213 -485v-325h142v-25h-367v25h142v325l-211 485h-106v25h309v-25h-115l192 -435l191 435h-105v25h218v-25h-77z" />
    <glyph glyph-name="Zacute" unicode="&#x179;" horiz-adv-x="587" 
d="M416 1160q37 -3 37 -37q0 -19 -18 -33t-68 -43q-100 -57 -153 -94l-12 13q51 46 165 166q28 30 49 28zM544 835l-404 -810h336l-1 207h65l-1 -232h-496v25l410 810h-335v-207h-65l1 232h490v-25z" />
    <glyph glyph-name="zacute" unicode="&#x17a;" horiz-adv-x="469" 
d="M275 714q-18 -19 -30.5 -34.5t-28 -37.5t-20.5 -28l-17 11q47 71 83 146q14 30 34 27t20 -24q0 -16 -41 -60zM364 151h54v-151h-356v30l270 444h-217v-124h-54v150h351v-32l-270 -442h222v125z" />
    <glyph glyph-name="Zdotaccent" unicode="&#x17b;" horiz-adv-x="587" 
d="M290 946q-43 0 -43 43t43 43t43 -43t-43 -43zM544 835l-404 -810h336l-1 207h65l-1 -232h-496v25l410 810h-335v-207h-65l1 232h490v-25z" />
    <glyph glyph-name="zdotaccent" unicode="&#x17c;" horiz-adv-x="469" 
d="M238 601q-55 0 -55 54q0 55 55 55q54 0 54 -55q0 -54 -54 -54zM364 151h54v-151h-356v30l270 444h-217v-124h-54v150h351v-32l-270 -442h222v125z" />
    <glyph glyph-name="Zcaron" unicode="&#x17d;" horiz-adv-x="587" 
d="M334 964q-18 -21 -40 -21q-21 0 -40 21q-13 14 -54 62t-68 73l14 13q90 -73 148 -106q55 32 149 106l12 -13q-42 -42 -121 -135zM544 835l-404 -810h336l-1 207h65l-1 -232h-496v25l410 810h-335v-207h-65l1 232h490v-25z" />
    <glyph glyph-name="zcaron" unicode="&#x17e;" horiz-adv-x="469" 
d="M235 606q-19 0 -37 27q-46 69 -111 146l12 9q71 -75 136 -127q70 56 136 127l12 -9q-70 -83 -111 -146q-18 -27 -37 -27zM364 151h54v-151h-356v30l270 444h-217v-124h-54v150h351v-32l-270 -442h222v125z" />
    <glyph glyph-name="gravecomb" unicode="&#x300;" 
d="M-277 798q18 3 34 -27q39 -78 81 -148l-13 -7q-46 61 -81 98q-41 44 -41 60q0 21 20 24z" />
    <glyph glyph-name="acutecomb" unicode="&#x301;" 
d="M-120 771q14 30 34 27t20 -24q0 -16 -41 -60q-18 -19 -30.5 -34.5t-28 -37.5t-20.5 -28l-17 11q47 71 83 146z" />
    <glyph glyph-name="uni0302" unicode="&#x302;" 
d="M-171 762q41 -66 101 -139l-13 -9q-22 24 -62 61.5t-56 47.5q-35 -23 -118 -109l-13 9q60 73 101 139q13 22 30 22q14 0 30 -22z" />
    <glyph glyph-name="tildecomb" unicode="&#x303;" 
d="M-398 701q28 1 65.5 -22.5t58.5 -23.5q42 0 52 41h15q0 -29 -23 -54.5t-68 -24.5q-33 0 -67 21t-54 21q-17 1 -30.5 -10t-14.5 -28h-16q1 41 25 60.5t57 19.5z" />
    <glyph glyph-name="uni0304" unicode="&#x304;" 
d="M-334 646h278v-23h-278v23z" />
    <glyph glyph-name="uni0306" unicode="&#x306;" 
d="M-80 737l15 -3q-9 -66 -35 -98t-103 -32q-41 0 -67.5 9.5t-41 30t-20.5 39.5t-10 51l17 3q13 -88 122 -88q110 0 123 88z" />
    <glyph glyph-name="uni0307" unicode="&#x307;" 
d="M-109 601q-55 0 -55 54q0 55 55 55q54 0 54 -55q0 -54 -54 -54z" />
    <glyph glyph-name="uni0308" unicode="&#x308;" 
d="M-265 601q-51 0 -51 54q0 55 51 55q50 0 50 -55q0 -54 -50 -54zM-105 601q-51 0 -51 54q0 55 51 55q50 0 50 -55q0 -54 -50 -54z" />
    <glyph glyph-name="uni030A" unicode="&#x30a;" 
d="M-168 610q-104 0 -104 88q-1 43 25.5 66t79.5 23q52 0 77.5 -23.5t25.5 -65.5q-2 -88 -104 -88zM-166 627q66 0 68 72q0 70 -69 70q-39 0 -55 -18t-16 -53q-1 -35 16 -53t56 -18z" />
    <glyph glyph-name="uni030B" unicode="&#x30b;" 
d="M-251 771q16 30 34 27q20 -3 20 -24q0 -16 -41 -60q-35 -37 -81 -98l-13 7q13 21 81 148zM-112 771q16 30 34 27q20 -3 20 -24q0 -16 -41 -60q-35 -37 -81 -98l-13 7q13 21 81 148z" />
    <glyph glyph-name="uni030C" unicode="&#x30c;" 
d="M-67 788l12 -9q-70 -83 -111 -146q-18 -27 -37 -27t-37 27q-46 69 -111 146l12 9q71 -75 136 -127q70 56 136 127z" />
    <glyph glyph-name="uni0312" unicode="&#x312;" 
d="M-61 665q1 -27 -14 -40t-42 -13q-61 0 -61 73q0 104 112 120l4 -13q-93 -12 -87 -102q11 21 38 21q49 0 50 -46z" />
    <glyph glyph-name="uni0326" unicode="&#x326;" 
d="M-122 -97q61 0 61 -73q0 -104 -112 -120l-4 13q93 12 87 102q-10 -21 -38 -21q-49 0 -50 46q-1 27 14 40t42 13z" />
    <glyph glyph-name="uni0327" unicode="&#x327;" 
d="M-386 -188q-34 0 -82 18l15 19q33 -15 67 -15q19 0 39 13.5t20 41.5q0 26 -28.5 34.5t-70.5 2.5l44 86h31l-30 -60q28 2 41 2q22 0 40 -16t18 -45q0 -31 -21 -50.5t-42 -25t-41 -5.5z" />
    <glyph glyph-name="uni0328" unicode="&#x328;" 
d="M-131 9l22 4q-78 -49 -78 -116q0 -58 64 -58q35 0 69 28l7 -9q-54 -48 -102 -48q-42 0 -64.5 19.5t-22.5 54.5q0 77 105 125z" />
    <glyph glyph-name="uni0335" unicode="&#x335;" 
 />
    <glyph glyph-name="uni0337" unicode="&#x337;" 
 />
    <glyph glyph-name="uni0338" unicode="&#x338;" 
 />
    <glyph glyph-name="uni03BC" unicode="&#x3bc;" horiz-adv-x="563" 
d="M509 15h26v-15h-77q-44 0 -50.5 15.5t-6.5 97.5h-2q-13 -58 -51.5 -88.5t-111.5 -30.5q-42 0 -69 10l1 -244h-74l-1 715h-70v25h143l1 -371q0 -45 22.5 -77.5t78.5 -32.5q53 0 88.5 45.5t35.5 121.5v289h-70v25h143v-430q0 -55 44 -55z" />
    <glyph glyph-name="pi" unicode="&#x3c0;" horiz-adv-x="700" 
d="M626 76h13q0 -38 -22.5 -58.5t-61.5 -20.5q-54 0 -75.5 26.5t-21.5 86.5v333h-140v-118q0 -145 -10.5 -213t-35.5 -91.5t-79 -23.5q-28 0 -44.5 17t-16.5 46h17q0 -31 45 -31q56 0 71 60.5t15 253.5v100h-36h-7.5h-8.5t-8 -0.5t-8.5 -1t-8 -2t-7.5 -4t-5.5 -5.5t-5 -7.5
t-3 -10t-1.5 -12.5h-15q0 54 15 77t68 23h360q0 -31 -9.5 -44t-34.5 -13h-45v-330q0 -41 12.5 -58.5t43.5 -17.5q50 0 50 39z" />
    <glyph glyph-name="uni0400" unicode="&#x400;" horiz-adv-x="638" 
d="M234 1160q21 2 49 -28q91 -100 165 -166l-12 -13q-46 32 -153 93q-49 28 -67.5 43t-18.5 34q0 16 10 26.5t27 10.5zM421 433h-209v-408h280v174h65v-199h-506v25h78v810h-78v25h502v-196h-65v171h-276v-372h209v92h43v-224h-43v102z" />
    <glyph glyph-name="uni0401" unicode="&#x401;" horiz-adv-x="638" 
d="M242 961q-51 0 -51 54q0 55 51 55q50 0 50 -55q0 -54 -50 -54zM402 961q-51 0 -51 54q0 55 51 55q50 0 50 -55q0 -54 -50 -54zM421 433h-209v-408h280v174h65v-199h-506v25h78v810h-78v25h502v-196h-65v171h-276v-372h209v92h43v-224h-43v102z" />
    <glyph glyph-name="uni0402" unicode="&#x402;" horiz-adv-x="822" 
d="M559 507q96 0 133 -42t37 -123l-2 -376q0 -116 -60.5 -176t-160.5 -60q-25 0 -55 4l2 20q20 -6 52 -6q77 2 106.5 55.5t30.5 162.5l2 379q0 19 -1.5 34t-8 35t-18 33t-34 22.5t-53.5 9.5q-54 0 -107 -43.5t-53 -108.5v-302h98v-25h-293v25h112v810h-174v-173h-65v198h561
v-198h-65v173h-174v-434q23 50 78 78t112 28z" />
    <glyph glyph-name="uni0403" unicode="&#x403;" horiz-adv-x="563" 
d="M456 1160q37 -3 37 -37q0 -19 -18 -33t-68 -43q-100 -57 -153 -94l-12 13q51 46 165 166q28 30 49 28zM547 860l1 -231l-65 -1v207h-271v-810h88v-25h-249v25h78v810h-78v25h496z" />
    <glyph glyph-name="uni0408" unicode="&#x408;" horiz-adv-x="486" 
d="M173 860h292v-25h-79v-692q0 -79 -52.5 -115.5t-133.5 -36.5q-30 0 -57 4.5t-57 16.5t-47.5 38t-17.5 64l-1 54l71 1l1 -59q1 -89 107 -89q17 0 32 3.5t33 13t28.5 32t10.5 55.5v710h-130v25z" />
    <glyph glyph-name="uni0409" unicode="&#x409;" horiz-adv-x="996" 
d="M556 510h138q44 0 76 -5t56 -13.5t39 -26.5t24.5 -37t14 -53.5t6 -66.5t1.5 -84q0 -66 -12.5 -110t-28 -67t-53.5 -34t-65 -12.5t-87 -1.5h-18l-243 1v25h76v769l-4 2l-373 -771h87v-25h-185v25h56l406 835h180v-25h-91v-325zM557 25l114 -1q95 -1 124 43.5t29 168.5
q0 62 -2.5 98.5t-10 69.5t-23 48t-40.5 24t-64 9h-128z" />
    <glyph glyph-name="uni040A" unicode="&#x40a;" horiz-adv-x="1038" 
d="M605 510h131q44 0 76 -5t56 -13.5t39 -26.5t24.5 -37t14 -53.5t6 -66.5t1.5 -84q0 -66 -12.5 -109.5t-27.5 -66.5t-53 -34t-65 -12.5t-86 -1.5h-7h-6h-7h-238v25h78v406h-317v-406h78v-25h-239v25h78v810h-78v25h239v-25h-78v-370h317v370h-78v25h247v-25h-93v-325z
M605 25h108q97 0 125 41t28 170q0 62 -2.5 98.5t-10 69.5t-23 48t-40.5 24t-64 9h-121v-460z" />
    <glyph glyph-name="uni040B" unicode="&#x40b;" horiz-adv-x="864" 
d="M773 25h28v-25h-88q-23 0 -35 2.5t-22 16t-10 40.5v273q0 25 -1.5 41.5t-8 38.5t-18 34.5t-34.5 22t-55 9.5q-56 0 -108 -40.5t-52 -109.5v-303l117 -1v-25l-342 1v25h142v810h-174v-175h-65v200h561v-200h-65v175h-174v-431q20 47 75 75t115 28q101 0 135.5 -34.5
t34.5 -103.5l1 -296q0 -48 43 -48z" />
    <glyph glyph-name="uni040C" unicode="&#x40c;" horiz-adv-x="678" 
d="M442 1160q37 -3 37 -37q0 -19 -18 -33t-68 -43q-100 -57 -153 -94l-12 13q51 46 165 166q28 30 49 28zM638 25h35v-25h-61h-19q-29 0 -41.5 0.5t-30 4.5t-23.5 12t-14.5 24.5t-11.5 40t-6 59.5l-12 170q-5 63 -41.5 92.5t-122.5 29.5h-78v-408h108v-25h-269v25h78v810
h-78v25h255v-25h-94v-372h76q46 0 73.5 10.5t44.5 42t24 68t16 110.5l16 141h-68v25h230v-25h-86l-19 -149q-15 -130 -44.5 -178t-101.5 -59q157 -12 168 -158l13 -154q6 -68 20.5 -90t63.5 -22z" />
    <glyph glyph-name="uni040D" unicode="&#x40d;" horiz-adv-x="744" 
d="M280 1160q21 2 49 -28q91 -100 165 -166l-12 -13q-46 32 -153 93q-49 28 -67.5 43t-18.5 34q0 16 10 26.5t27 10.5zM121 835h-70v25h232v-25h-79v-750h3l294 775h192v-25h-79v-810h79v-25h-240v25h78v803h-2l-314 -828h-94v835z" />
    <glyph glyph-name="uni040F" unicode="&#x40f;" horiz-adv-x="772" 
d="M720 25v-25h-303v-202h-71v202h-295v25h78v810h-78v25h240v-25h-79v-810h317v810h-78v25h240v-25h-79v-810h108z" />
    <glyph glyph-name="uni0410" unicode="&#x410;" horiz-adv-x="635" 
d="M567 25h63v-25h-255v25h105l-61 267h-247l-67 -267h90v-25h-190v25h62l209 838h91zM180 322h232l-110 479h-3z" />
    <glyph glyph-name="uni0411" unicode="&#x411;" horiz-adv-x="635" 
d="M212 511h131q44 0 76 -5t56 -13.5t39 -26.5t24.5 -37t14 -53.5t6 -66.5t1.5 -84q0 -66 -12.5 -110t-28 -67t-53.5 -34t-65 -12.5t-87 -1.5h-18h-245v25h78v810h-78v25h494l1 -231h-65v206h-269v-324zM212 25h108q97 0 125 41.5t28 170.5q0 82 -3.5 123.5t-18.5 73.5
t-42 42t-76 10h-121v-461z" />
    <glyph glyph-name="uni0412" unicode="&#x412;" horiz-adv-x="636" 
d="M51 860h287q48 0 83.5 -5.5t59 -18.5t37.5 -28.5t21.5 -41.5t10 -51.5t2.5 -64.5q0 -35 -5 -63t-18.5 -54.5t-40.5 -44t-67 -22.5q89 -12 116.5 -56t27.5 -160q0 -55 -3 -87.5t-14.5 -67.5t-34.5 -53t-64 -30t-101 -12h-297v25h78v810h-78v25zM212 472h113
q84 0 112.5 40.5t28.5 137.5q0 31 -0.5 46t-3 39t-8 35t-16 26.5t-26.5 22t-39.5 11.5t-54.5 5h-106v-363zM212 25h126q48 0 76 11.5t42 42t18 67.5t4 104q0 59 -4.5 91.5t-20 59t-46 36.5t-82.5 10h-113v-422z" />
    <glyph glyph-name="uni0413" unicode="&#x413;" horiz-adv-x="563" 
d="M547 860l1 -231l-65 -1v207h-271v-810h88v-25h-249v25h78v810h-78v25h496z" />
    <glyph glyph-name="uni0414" unicode="&#x414;" horiz-adv-x="712" 
d="M707 25v-226h-62l-5 201h-571l-4 -201h-60v226h96l226 835h84l187 -835h109zM511 25l-163 763h-2l-205 -763h370z" />
    <glyph glyph-name="uni0415" unicode="&#x415;" horiz-adv-x="638" 
d="M421 433h-209v-408h280v174h65v-199h-506v25h78v810h-78v25h502v-196h-65v171h-276v-372h209v92h43v-224h-43v102z" />
    <glyph glyph-name="uni0416" unicode="&#x416;" horiz-adv-x="982" 
d="M942 24h35v-24h-61h-19q-30 0 -42.5 0.5t-30 4.5t-23.5 12t-14 24.5t-11.5 40t-5.5 59.5l-13 169q-5 64 -39 94.5t-110 30.5h-79v-410h108v-25h-293v25h108v410h-78q-76 0 -110 -30.5t-39 -94.5l-13 -169q-2 -31 -6 -52.5t-7 -37.5t-12.5 -25.5l-15 -15t-23 -7.5
t-27 -2.5t-36.5 -0.5h-19h-61v24h35q48 0 64 25t21 88l12 154q11 145 169 157l-1 1q-70 10 -98.5 58t-44.5 179l-20 149h-87v25h234v-25h-72l18 -141q6 -45 9.5 -69.5t9 -53.5t12 -43.5t16.5 -30.5t23 -22.5t30.5 -10.5t41.5 -4h75v375h-100v25h277v-25h-100v-375h76
q24 0 41.5 4t30.5 10.5t23 22.5t16.5 30.5t12 43.5t9 53.5t9.5 69.5l18 141h-72v25h234v-25h-87l-20 -149q-16 -131 -44.5 -179t-98.5 -58l-1 -1q158 -12 169 -157l12 -154q5 -63 21 -88t64 -25z" />
    <glyph glyph-name="uni0417" unicode="&#x417;" horiz-adv-x="580" 
d="M484 649q0 -94 -28.5 -144t-100.5 -63q87 -13 113.5 -64t26.5 -160q0 -126 -55 -177t-189 -50q-64 0 -106 19.5t-60.5 54t-25 65.5t-6.5 72v40h71v-39q0 -37 2 -62.5t10 -51.5t21.5 -41t37 -24.5t57.5 -9.5q52 0 83.5 12.5t47.5 42t20.5 64.5t4.5 95q0 113 -25.5 158.5
t-104.5 45.5h-77v25h77q72 0 96 50t24 151q0 102 -24 143.5t-97 41.5t-104 -47t-36 -152h-64v223h53l7 -96q7 33 26.5 55.5t45 30.5t41 10.5t29.5 2.5q121 0 165 -48t44 -173z" />
    <glyph glyph-name="uni0418" unicode="&#x418;" horiz-adv-x="744" 
d="M121 835h-70v25h232v-25h-79v-750h3l294 775h192v-25h-79v-810h79v-25h-240v25h78v803h-2l-314 -828h-94v835z" />
    <glyph glyph-name="uni0419" unicode="&#x419;" horiz-adv-x="744" 
d="M369 926q-40 -1 -73.5 20t-33.5 53q0 22 14 36t33 14q21 0 34 -12t13 -33q0 -18 -11.5 -30.5t-29.5 -14.5q25 -17 55 -17q46 0 76.5 28t32.5 67h18q-2 -43 -36.5 -76.5t-91.5 -34.5zM693 835h-79v-810h79v-25h-240v25h78v803h-2l-314 -828h-94v835h-70v25h232v-25h-79
v-750h3l294 775h192v-25z" />
    <glyph glyph-name="uni041A" unicode="&#x41a;" horiz-adv-x="678" 
d="M638 25h35v-25h-61h-19q-29 0 -41.5 0.5t-30 4.5t-23.5 12t-14.5 24.5t-11.5 40t-6 59.5l-12 170q-5 63 -41.5 92.5t-122.5 29.5h-78v-408h108v-25h-269v25h78v810h-78v25h255v-25h-94v-372h76q46 0 73.5 10.5t44.5 42t24 68t16 110.5l16 141h-68v25h230v-25h-86
l-19 -149q-15 -130 -44.5 -178t-101.5 -59q157 -12 168 -158l13 -154q6 -68 20.5 -90t63.5 -22z" />
    <glyph glyph-name="uni041B" unicode="&#x41b;" horiz-adv-x="621" 
d="M555 25h61v-25h-255v25h106l-168 763h-3l-195 -763h84v-25h-180v25h56l216 835h85z" />
    <glyph glyph-name="uni041C" unicode="&#x41c;" horiz-adv-x="902" 
d="M773 25h78v-25h-239v25h78v801h-4l-220 -826h-79l-214 826h-6v-801h88v-25h-204v25h78v810h-78v25h196l200 -776h3l205 776h196v-25h-78v-810z" />
    <glyph glyph-name="uni041D" unicode="&#x41d;" horiz-adv-x="741" 
d="M690 835h-78v-810h78v-25h-239v25h78v401h-317v-401h78v-25h-239v25h78v810h-78v25h239v-25h-78v-375h317v375h-78v25h239v-25z" />
    <glyph glyph-name="uni041E" unicode="&#x41e;" horiz-adv-x="692" 
d="M346 -11q-105 0 -159 37t-78 136q-27 109 -25 268q-2 158 25 267q25 99 78.5 136t158.5 37t158.5 -37t78.5 -136q24 -114 24 -267q0 -169 -24 -268t-78 -136t-159 -37zM346 16q74 0 108.5 29.5t48.5 122.5q15 95 15 262q0 166 -15 261q-14 93 -48.5 122.5t-108.5 29.5
t-108.5 -29.5t-48.5 -122.5q-15 -95 -15 -261q0 -167 15 -262q14 -93 48.5 -122.5t108.5 -29.5z" />
    <glyph glyph-name="uni041F" unicode="&#x41f;" horiz-adv-x="732" 
d="M602 835v-810h79v-25h-240v25h78v810h-307v-810h79v-25h-240v25h78v810h-78v25h630v-25h-79z" />
    <glyph glyph-name="uni0420" unicode="&#x420;" horiz-adv-x="634" 
d="M51 860h244q118 0 137 -2q75 -10 103 -66q24 -51 24 -152q0 -58 -2 -91t-9 -67t-20.5 -50.5t-38.5 -30.5t-60 -18.5t-87 -4.5h-130v-353h120v-25h-281v25h78v810h-78v25zM212 403h120q49 0 76 9t42 39t18.5 70t3.5 119q0 126 -27 160.5t-126 34.5h-108z" />
    <glyph glyph-name="uni0421" unicode="&#x421;" horiz-adv-x="617" 
d="M485 240h80v-40q0 -30 -4.5 -56t-18 -55.5t-36 -50.5t-62.5 -34.5t-93 -13.5q-41 0 -64 2t-54.5 11t-51 26.5t-39 51t-32.5 82.5q-25 97 -25 255q0 165 24 272q23 102 73.5 140.5t153.5 38.5q131 0 159 -92l5 88h56v-223h-65q-3 111 -36 154t-120 43q-74 0 -104 -32
t-44 -124q-15 -107 -15 -287q0 -157 15 -235q10 -49 22.5 -77.5t34.5 -42.5t44 -17.5t63 -3.5q37 0 62 7.5t39.5 19.5t21.5 37t9 49.5t2 66.5v40z" />
    <glyph glyph-name="uni0422" unicode="&#x422;" horiz-adv-x="591" 
d="M511 662v173h-174v-810h142v-25h-367v25h142v810h-174v-173h-65v198h561v-198h-65z" />
    <glyph glyph-name="uni0423" unicode="&#x423;" horiz-adv-x="640" 
d="M549 860l-1 -646q0 -119 -55.5 -170t-174.5 -51q-203 0 -205 171v29h68v-27q0 -78 29 -112t109 -34q24 0 44 3.5t34.5 10.5t26 17t19 21.5t13 25.5t8 29.5t4.5 31.5t2 33v33.5v33.5l1 171h-1q-18 -62 -57.5 -88.5t-114.5 -26.5q-98 0 -142 46.5t-44 121.5v352h-77v25h160
v-346q0 -171 116 -171q84 0 119.5 52t35.5 152v288h-81v25h164z" />
    <glyph glyph-name="uni0424" unicode="&#x424;" horiz-adv-x="911" 
d="M807 677q19 -83 19 -270q-4 -168 -20 -222q-32 -109 -100.5 -145.5t-211.5 -38.5v-122h79v-25h-234v25h78v122q-147 3 -214 40t-98 144q-18 66 -20 246q0 170 19 246q17 65 45.5 101t93 58t174.5 25v95h-78v25h234v-25h-79v-95q143 -3 216 -41.5t97 -142.5zM184 187
q13 -81 62.5 -117.5t170.5 -40.5v805q-89 -2 -135.5 -18t-66 -45.5t-31.5 -88.5q-7 -35 -11 -123.5t-4 -119.5q2 -170 15 -252zM727 187q11 66 15 238q0 183 -15 257q-12 60 -31.5 89t-66 44.5t-135.5 18.5v-805q121 4 170.5 40.5t62.5 117.5z" />
    <glyph glyph-name="uni0425" unicode="&#x425;" horiz-adv-x="671" 
d="M581 25h85v-25h-274v25h99l-182 369l-189 -369h96v-25h-211v25h73l211 410l-198 400h-79v25h291v-25h-122l159 -323l165 323h-80v25h203v-25h-82l-186 -363z" />
    <glyph glyph-name="uni0426" unicode="&#x426;" horiz-adv-x="762" 
d="M711 25v-226l-58 -1l-6 202h-596v25h78v810h-78v25h240v-25h-79v-810h307v810h-78v25h240v-25h-79v-810h109z" />
    <glyph glyph-name="uni0427" unicode="&#x427;" horiz-adv-x="649" 
d="M598 835h-78v-810h78v-25h-269v25h108v384q-21 -16 -65.5 -31.5t-95.5 -15.5q-89 0 -140.5 45t-51.5 156l-1 272h-78v25h236v-25h-75l1 -287q0 -84 27 -121.5t86 -37.5q97 0 157 58v388h-100v25h261v-25z" />
    <glyph glyph-name="uni0428" unicode="&#x428;" horiz-adv-x="1040" 
d="M910 835v-810h79v-25h-938v25h78v810h-78v25h240v-25h-79v-810h266v810h-78v25h240v-25h-79v-810h266v810h-78v25h240v-25h-79z" />
    <glyph glyph-name="uni0429" unicode="&#x429;" horiz-adv-x="1067" 
d="M1018 25v-226l-58 -1l-6 202h-903v25h78v810h-78v25h240v-25h-79v-810h266v810h-78v25h240v-25h-79v-810h266v810h-78v25h240v-25h-79v-810h108z" />
    <glyph glyph-name="uni042A" unicode="&#x42a;" horiz-adv-x="739" 
d="M306 511h131q44 0 76 -5t56 -13.5t39 -26.5t24.5 -37t14 -53.5t6 -66.5t1.5 -84q0 -66 -12.5 -110t-28 -67t-53.5 -34t-65 -12.5t-87 -1.5h-18h-245v25h78v810h-144l1 -190l-65 -1v216h384v-25h-93v-324zM306 25h108q95 0 124 44t29 168q0 62 -2.5 98.5t-10 69.5t-23 48
t-40.5 24t-64 9h-121v-461z" />
    <glyph glyph-name="uni042B" unicode="&#x42b;" horiz-adv-x="856" 
d="M212 511h131q44 0 76 -5t56 -13.5t39 -26.5t24.5 -37t14 -53.5t6 -66.5t1.5 -84q0 -66 -12.5 -110t-28 -67t-53.5 -34t-65 -12.5t-87 -1.5h-18h-245v25h78v810h-78v25h253v-25h-92v-324zM814 835h-79v-810h79v-25h-240v25h78v810h-78v25h240v-25zM212 25h108
q97 0 125 41.5t28 170.5q0 62 -2.5 98.5t-10 69.5t-23 48t-40.5 24t-64 9h-121v-461z" />
    <glyph glyph-name="uni042C" unicode="&#x42c;" horiz-adv-x="645" 
d="M212 511h131q44 0 76 -5t56 -13.5t39 -26.5t24.5 -37t14 -53.5t6 -66.5t1.5 -84q0 -66 -12.5 -110t-28 -67t-53.5 -34t-65 -12.5t-87 -1.5h-18h-245v25h78v810h-78v25h253v-25h-92v-324zM212 25h108q97 0 125 41.5t28 170.5q0 62 -2.5 98.5t-10 69.5t-23 48t-40.5 24
t-64 9h-121v-461z" />
    <glyph glyph-name="uni042D" unicode="&#x42d;" horiz-adv-x="652" 
d="M543 697q24 -107 24 -276q0 -161 -25 -258q-13 -49 -32.5 -82.5t-39.5 -51t-53 -26.5t-58.5 -11t-69.5 -2q-53 0 -92 14t-60 34t-33.5 50.5t-15.5 55.5t-3 56v40h65v-43q0 -89 26.5 -133t112.5 -47q78 -2 118 25.5t58 115.5q15 70 15 238v33q-23 21 -50 21
q-30 0 -72 -27.5t-75 -27.5q-42 0 -65.5 16t-48.5 52l15 13q23 -29 54 -29q26 0 78.5 24t86.5 24q50 0 76 -32q-2 151 -14 235q-13 86 -43 115t-105 29q-87 0 -119.5 -44.5t-36.5 -155.5h-65v223h56l6 -103q18 107 158 107q104 0 154 -36t73 -136z" />
    <glyph glyph-name="uni042E" unicode="&#x42e;" horiz-adv-x="967" 
d="M859 697q23 -104 23 -271t-24 -263q-17 -60 -41 -97t-58.5 -53t-62.5 -20t-74 -4t-74 4t-62.5 20t-58.5 53t-41 97q-24 92 -24 276h-151v-414h79v-25h-239v25h78v810h-78v25h239v-25h-79v-371h151q3 143 23 233q25 99 78.5 136t158.5 37t158.5 -37t78.5 -136zM779 170
q15 113 15 269q0 147 -15 251q-14 95 -48 124t-109 29t-109 -29t-48 -124q-15 -104 -15 -251q0 -156 15 -269q13 -95 48 -124.5t109 -29.5t109 29.5t48 124.5z" />
    <glyph glyph-name="uni042F" unicode="&#x42f;" horiz-adv-x="674" 
d="M623 835h-78v-810h78v-25h-269v25h108l-1 414h-86q-20 0 -39.5 -4t-46 -15.5t-44.5 -40t-21 -70.5l-12 -169q-2 -27 -4 -46.5t-7.5 -35t-8 -25t-13 -16.5l-15 -10t-22 -5t-25 -2h-32.5h-19h-61v25h35q48 0 63.5 24.5t20.5 86.5l13 153q4 49 22 83t44 49t46 21t41 7v1
q-114 14 -151.5 61t-37.5 155q0 36 2.5 59t13.5 51.5t32 44.5t60 27.5t95 11.5h319v-25zM354 464h107v371h-121q-37 0 -60.5 -2.5t-41.5 -11t-27 -20t-15 -34.5t-7.5 -48.5t-1.5 -68.5q0 -105 38.5 -145.5t128.5 -40.5z" />
    <glyph glyph-name="uni0430" unicode="&#x430;" horiz-adv-x="509" 
d="M456 25h30v-25h-74q-46 0 -59 12t-12 53q-29 -71 -135 -71q-49 0 -81.5 11.5t-47.5 33.5t-20 44t-5 52q0 67 30 97t117 42q37 6 91 6q33 0 49 -1v104q0 102 -90 102q-28 0 -48 -7t-29.5 -17t-15 -24t-6 -23.5t-0.5 -21.5l1 -28h-72l-1 23q-3 69 42 95t126 26
q82 0 124 -27.5t42 -104.5v-304q0 -26 9.5 -36.5t34.5 -10.5zM339 154v101q-27 3 -54 3q-30 0 -54 -4q-66 -11 -85 -40.5t-19 -82.5q0 -21 3 -36.5t12 -35t31 -30t56 -10.5q52 0 81 36.5t29 98.5z" />
    <glyph glyph-name="uni0431" unicode="&#x431;" horiz-adv-x="545" 
d="M478 358q8 -45 8 -110q0 -66 -8 -111q-11 -71 -55.5 -107t-143.5 -36t-142.5 36t-54.5 107q-8 51 -8 107q0 28 -2 110t-1 117q4 149 58.5 214t186.5 97q64 16 87 30t25 48h26q-1 -78 -43 -110.5t-135 -56.5q-99 -26 -134.5 -74.5t-41.5 -144.5q-2 -37 -2 -47t1.5 -36.5
t1.5 -41.5q15 74 56.5 113t121.5 39q97 0 142 -36t57 -107zM405 136q7 56 7 112q0 55 -7 111q-3 27 -8 44.5t-17.5 36.5t-37.5 28.5t-63 9.5q-110 0 -124 -119q-7 -70 -7 -111q0 -42 7 -112q3 -27 8 -44.5t17.5 -36.5t37 -28.5t61.5 -9.5q38 0 63 9.5t37.5 28.5t17.5 36.5
t8 44.5z" />
    <glyph glyph-name="uni0432" unicode="&#x432;" horiz-adv-x="529" 
d="M255 860q111 0 151 -44t40 -144q0 -106 -28.5 -156.5t-113.5 -60.5q47 0 79 -13t49 -31t26 -52t10.5 -60t1.5 -70q0 -137 -40.5 -185.5t-163.5 -48.5q-36 0 -56 1t-48.5 8t-44 20.5t-28 39.5t-15.5 64q-3 46 -3 553q0 98 48 138.5t136 40.5zM144 680l1 -218h86
q36 0 62 10t41 26t23.5 43.5t11 56t2.5 69.5q0 94 -24 132t-93 38q-37 0 -60 -11t-33.5 -34.5t-13.5 -47.5t-3 -64zM145 437l2 -279q1 -83 29 -111.5t90 -28.5q45 0 71 10.5t38.5 39.5t15.5 61.5t3 96.5q0 60 -5 94.5t-21 63.5t-49 41t-88 12h-86z" />
    <glyph glyph-name="uni0433" unicode="&#x433;" horiz-adv-x="476" 
d="M428 158v-24q0 -64 -38.5 -102t-146.5 -38q-94 0 -137.5 32.5t-43.5 99.5q0 59 40.5 88t119.5 50q69 18 90 47.5t21 75.5q0 96 -77 96q-113 0 -116 -123h-62v140h47l4 -96q20 102 129 102q147 0 147 -113q0 -58 -28.5 -91.5t-121.5 -57.5q-70 -19 -93.5 -45.5
t-24.5 -74.5q-2 -108 109 -107q64 1 89 25.5t25 89.5v26h68z" />
    <glyph glyph-name="uni0434" unicode="&#x434;" horiz-adv-x="549" 
d="M467 500v-544q0 -116 -43.5 -160.5t-153.5 -44.5q-58 0 -97 11t-57.5 32.5t-25.5 44t-7 53.5v25h67v-28q1 -64 28 -89.5t89 -25.5q76 0 101 36t27 121l1 148h-1q-32 -79 -142 -79q-51 0 -86.5 11.5t-54 34.5t-27 43t-15.5 51q-10 44 -10 105t11 119q13 71 54.5 106
t124.5 35q131 0 149 -111l9 106h59zM389 156q5 50 5 95q0 55 -6 106q-16 125 -138 125q-57 0 -77.5 -28t-29.5 -89q-7 -47 -7 -112q0 -74 6 -114q9 -62 33 -89t83 -27q118 0 131 133z" />
    <glyph glyph-name="uni0435" unicode="&#x435;" horiz-adv-x="493" 
d="M370 157h64q0 -85 -38.5 -124.5t-130.5 -39.5t-144.5 35t-58.5 128q-3 46 -3 94t3 94q6 93 56.5 128t136.5 35q78 0 126 -35.5t54 -127.5v-98h-301q0 -42 3 -96q5 -70 33 -102t95 -32q63 0 84 32t21 109zM137 350q-3 -40 -3 -79h236q0 50 -1 76q-1 20 -2.5 33.5t-8 35
t-17.5 35t-33 23.5t-53 10q-60 0 -86.5 -32t-31.5 -102z" />
    <glyph glyph-name="uni0436" unicode="&#x436;" horiz-adv-x="748" 
d="M704 26h21v-26h-54h-12q-27 0 -37 1t-21 9t-14.5 24.5t-5.5 48.5l-7 99q-3 41 -23.5 52t-94.5 12h-49v-221h70v-25h-207v25h70v221h-48q-74 -1 -94.5 -12t-23.5 -52l-7 -99q-2 -32 -5.5 -48.5t-14.5 -24.5t-21 -9t-37 -1h-12h-54v26h21q28 0 37.5 12t11.5 43l7 89
q7 85 112 93h-1q-47 6 -64 33t-28 105l-12 74h-55v25h158v-25h-42l9 -69q12 -86 30 -110.5t87 -24.5h46v564h-70v25q81 0 137 7v-596h47q69 0 87 24.5t30 110.5l9 69h-44v25h158v-25h-53l-12 -74q-11 -78 -28 -105t-64 -33h-1q105 -8 112 -93l7 -89q2 -31 11.5 -43t37.5 -12
z" />
    <glyph glyph-name="uni0437" unicode="&#x437;" horiz-adv-x="428" 
d="M389 -47q0 -109 -43 -154.5t-148 -45.5q-104 0 -142 38.5t-38 102.5v33h70v-36q0 -64 25.5 -89t84.5 -26q69 -1 92 35t23 137q0 99 -29 136t-125 37h-52v25h52q88 0 112.5 33t22.5 147q-1 94 -18.5 126t-65.5 32q-60 0 -85.5 -32t-28.5 -103h-62v151h47l5 -96
q13 103 124 103q90 0 123 -37t36 -144q2 -91 -24.5 -137.5t-92.5 -53.5q80 -3 108.5 -50t28.5 -132z" />
    <glyph glyph-name="uni0438" unicode="&#x438;" horiz-adv-x="575" 
d="M509 25h26v-25h-77q-46 0 -56 14.5t-8 71.5q-33 -92 -158 -92q-74 0 -108.5 34.5t-34.5 112.5v334h-70v25q87 0 143 7v-369q0 -24 3 -41t12.5 -37t31.5 -31t55 -11q53 0 88.5 45.5t35.5 121.5v290h-70v25q87 0 143 7v-436q0 -29 8.5 -37.5t35.5 -8.5z" />
    <glyph glyph-name="uni0439" unicode="&#x439;" horiz-adv-x="558" 
d="M267 588q-40 -1 -73.5 20t-33.5 53q0 22 14 36t33 14q21 0 34 -12t13 -32q0 -19 -11.5 -31.5t-28.5 -14.5q22 -16 54 -16q46 0 76.5 27.5t32.5 66.5h18q-2 -43 -36.5 -76.5t-91.5 -34.5zM509 25h26v-25h-77q-46 0 -56 14.5t-8 71.5q-33 -92 -158 -92q-74 0 -108.5 34.5
t-34.5 112.5v334h-70v25q87 0 143 7v-369q0 -24 3 -41t12.5 -37t31.5 -31t55 -11q53 0 88.5 45.5t35.5 121.5v290h-70v25q87 0 143 7v-436q0 -29 8.5 -37.5t35.5 -8.5z" />
    <glyph glyph-name="uni043A" unicode="&#x43a;" horiz-adv-x="535" 
d="M479 25h21v-25h-54h-14q-26 0 -36.5 1t-21 9t-14 24t-5.5 48l-7 94q-3 42 -25.5 55.5t-99.5 13.5h-55v-220h79v-25h-222v25h70v810h-64v25q81 0 137 7v-597h53q41 0 64 5.5t36.5 25t17.5 39t10 65.5l9 70h-55v25h185v-25h-70l-11 -75q-12 -79 -29 -105.5t-66 -32.5l-1 -1
q104 -8 112 -92l7 -80q3 -39 11.5 -51.5t37.5 -12.5z" />
    <glyph glyph-name="uni043B" unicode="&#x43b;" horiz-adv-x="503" 
d="M432 25h61v-25h-211v25h74l-129 428l-126 -428h72v-25h-163v25h61l142 475h73z" />
    <glyph glyph-name="uni043C" unicode="&#x43c;" horiz-adv-x="688" 
d="M594 25h69v-25h-205v25h63v438h-2l-161 -463h-63l-161 464h-3v-439h76v-25h-179v25h70v450h-70v25h166l151 -430h2l150 430h155v-25h-58v-450z" />
    <glyph glyph-name="uni043D" unicode="&#x43d;" horiz-adv-x="566" 
d="M468 25h70v-25h-201v25h58v229h-224v-229h59v-25h-202v25h70v450h-70v25q87 0 143 7v-228h224v196h-70v25q87 0 143 7v-482z" />
    <glyph glyph-name="uni043E" unicode="&#x43e;" horiz-adv-x="534" 
d="M466 363q8 -45 8 -113t-8 -113q-11 -72 -54.5 -107.5t-144.5 -35.5t-144.5 35.5t-54.5 107.5q-8 54 -8 113t8 113q11 71 55 107t144 36q99 0 143 -35.5t56 -107.5zM392 135q7 56 7 115t-7 115q-3 27 -8.5 45t-18 36.5t-37 27.5t-61.5 9t-61.5 -9t-37 -27.5t-18 -36.5
t-8.5 -45q-7 -70 -7 -115t7 -115q3 -27 8.5 -45t18 -36.5t37 -27.5t61.5 -9t61.5 9t37 27.5t18 36.5t8.5 45z" />
    <glyph glyph-name="uni043F" unicode="&#x43f;" horiz-adv-x="571" 
d="M518 25h30v-25h-92q-28 0 -41.5 8.5t-13.5 35.5v319q0 25 -2.5 41t-11.5 36.5t-31.5 31t-58.5 10.5q-53 0 -89.5 -40.5t-36.5 -112.5v-304h79v-25h-222v25h70v450h-70v25q81 0 137 7l1 -76v-19q17 45 59 69.5t99 24.5q81 0 115.5 -36t34.5 -101v-288q0 -56 44 -56z" />
    <glyph glyph-name="uni0440" unicode="&#x440;" horiz-adv-x="563" 
d="M492 364q11 -53 11 -110q0 -66 -10 -118q-14 -71 -54.5 -107t-121.5 -36q-56 0 -94 18.5t-56 69.5l1 -321h-73v713h-70v25q81 0 137 7l2 -111q22 111 148 111q88 0 127 -35t53 -106zM173 155q4 -29 10.5 -49t20 -43t40.5 -35t66 -12q55 0 78 26t32 91q7 48 7 121
q0 68 -8 121q-9 59 -33 83t-76 24q-68 0 -97.5 -35.5t-37.5 -93.5q-6 -42 -6 -99q0 -71 4 -99z" />
    <glyph glyph-name="uni0441" unicode="&#x441;" horiz-adv-x="477" 
d="M358 158h64v-23q0 -30 -6 -52t-23 -44t-53 -33.5t-89 -11.5t-87.5 9.5t-54 30t-28 43.5t-14.5 60q-8 54 -8 113t8 113q12 74 47 108.5t129 34.5q63 0 90 -23.5t36 -62.5l4 80h45v-151h-60q0 63 -24 98.5t-91 35.5q-16 0 -29 -1.5t-23 -6.5t-17 -8t-12.5 -13t-8.5 -13
t-5.5 -17.5t-3 -17.5t-2.5 -21t-2 -20q-6 -49 -6 -118q0 -65 6 -112q7 -60 17 -77q22 -41 94 -41q62 0 84.5 25t22.5 90v26z" />
    <glyph glyph-name="uni0442" unicode="&#x442;" horiz-adv-x="862" 
d="M809 25h30v-25h-92q-28 0 -41.5 8.5t-13.5 35.5v319q0 26 -2 41.5t-9 36t-26 31t-49 10.5q-53 0 -95.5 -41t-42.5 -112v-304h90v-25h-233v25h70v338q0 20 -1 32.5t-6 31t-14.5 29t-28.5 18.5t-45 8q-47 0 -88 -41.5t-41 -111.5v-304h70v-25h-213v25h70v450h-70v25
q80 0 136 7l1 -76l1 -20q16 46 63 70.5t98 24.5q119 0 138 -95q18 45 64.5 70t95.5 25q81 0 110.5 -34.5t29.5 -102.5v-289q0 -55 44 -55z" />
    <glyph glyph-name="uni0443" unicode="&#x443;" horiz-adv-x="543" 
d="M323 475v25q82 0 138 7v-76l-1 -471q0 -117 -43 -163.5t-156 -46.5q-58 0 -96.5 11t-57 32.5t-25 44t-6.5 53.5v23h67v-16q0 -71 26.5 -98t90.5 -27q83 0 107.5 42.5t24.5 141.5v147q-8 -32 -27.5 -54.5t-44 -32.5t-44.5 -13.5t-40 -3.5q-83 0 -115.5 39.5t-32.5 105.5
v330h-65v25q82 0 138 7v-365q0 -118 90 -118q136 0 136 206v245h-64z" />
    <glyph glyph-name="uni0444" unicode="&#x444;" horiz-adv-x="682" 
d="M622 262q1 -72 -8.5 -117.5t-36 -80t-75.5 -49.5t-127 -15v-215h78v-25h-225v25h78v215q-147 0 -197.5 56t-48.5 200q2 131 53 187.5t193 56.5v261h-70v25q83 0 139 7v-293q74 0 122.5 -14.5t75.5 -46t38 -73t11 -104.5zM547 268q0 110 -36.5 160t-135.5 49v-454
q55 0 90 15.5t52.5 49.5t23.5 75t6 105zM306 23v454q-101 0 -135.5 -50.5t-34.5 -168.5q0 -128 33.5 -181t136.5 -54z" />
    <glyph glyph-name="uni0445" unicode="&#x445;" horiz-adv-x="515" 
d="M445 25h65v-25h-194v25h45l-130 209l-131 -209h74v-25h-169v25h62l147 236l-135 217h-66v22h217v-22h-65l105 -170l107 170h-54v22h170v-22h-83l-123 -197z" />
    <glyph glyph-name="uni0446" unicode="&#x446;" horiz-adv-x="561" 
d="M460 25h96v-161h-50l-6 136h-104v101q-30 -107 -165 -107q-74 0 -108.5 34.5t-34.5 112.5v334h-65v25q82 0 138 7v-362q0 -127 102 -127q54 0 89 44t35 120v293h-64v25q81 0 137 7v-482z" />
    <glyph glyph-name="uni0447" unicode="&#x447;" horiz-adv-x="498" 
d="M405 25h70v-25h-217v25h78l-2 205q-21 -19 -31 -27.5t-37 -18.5t-60 -10q-81 0 -111 38.5t-30 106.5v156h-65v25q82 0 138 7v-194q0 -52 16.5 -83.5t65.5 -31.5q30 0 53.5 11.5t34 21.5t23.5 28v216h-64v25q82 0 138 7v-482z" />
    <glyph glyph-name="uni0448" unicode="&#x448;" horiz-adv-x="858" 
d="M800 16h35v-16h-92q-39 0 -47 14.5t-8 71.5v5v5v5h-2q-12 -51 -58.5 -79t-100.5 -28q-125 0 -139 104q-17 -50 -63 -77.5t-96 -27.5q-81 0 -111 35t-30 103v344h-65v25q82 0 138 7v-35l1 -335q0 -22 2 -37t9 -37t26 -34t49 -12q52 0 95 42t43 107v309h-65v25q82 0 138 7
v-371q0 -21 2.5 -36.5t10.5 -37t29 -33.5t53 -12q46 0 87.5 42t41.5 106v310h-65v25q82 0 138 7v-436q0 -55 44 -55z" />
    <glyph glyph-name="uni0449" unicode="&#x449;" horiz-adv-x="874" 
d="M756 25h103v-159h-49l-7 134h-114l-1 101h-2q-12 -51 -58 -79t-101 -29q-125 1 -139 105q-17 -50 -63 -77.5t-96 -27.5q-81 0 -111 35t-30 103v344h-65v25q82 0 138 7v-35l1 -336q0 -22 2 -37t9 -37t26 -34t49 -12q52 0 95 42t43 107v310h-65v25q82 0 138 7v-371
q0 -17 1 -29t6 -30.5t14.5 -30t28.5 -21t45 -9.5q46 1 87.5 43t41.5 106v310h-65v25q82 0 138 7v-482z" />
    <glyph glyph-name="uni044A" unicode="&#x44a;" horiz-adv-x="583" 
d="M528 149q1 -81 -36.5 -114.5t-152.5 -34.5l-246 -1v26h65v450l-103 -1l-7 -93h-36l-2 119h276v-26h-54v-172l113 -1q107 -1 144.5 -30.5t38.5 -121.5zM453 150q1 70 -30 97.5t-84 28.5l-107 1v-252l121 1q55 1 77 32.5t23 91.5z" />
    <glyph glyph-name="uni044B" unicode="&#x44b;" horiz-adv-x="739" 
d="M289 379q107 0 143.5 -42.5t36.5 -147.5q0 -107 -38.5 -151t-148.5 -45q-109 -1 -146.5 41t-38.5 150l1 291h-70v26h200v-26h-56l-1 -174q29 78 118 78zM716 475h-72v-450h72v-25h-215v25h70v450h-70v25h215v-25zM282 19q67 0 91.5 36.5t24.5 132.5q0 95 -22 130.5
t-87 34.5q-58 0 -88 -36t-30 -129q0 -98 24.5 -133.5t86.5 -35.5z" />
    <glyph glyph-name="uni044C" unicode="&#x44c;" horiz-adv-x="507" 
d="M452 149q1 -81 -36.5 -114.5t-152.5 -34.5l-226 -1v26h45v450h-54v25h182v-25h-54v-173l113 -1q107 -1 144.5 -30.5t38.5 -121.5zM377 150q1 69 -30 96.5t-84 28.5l-107 1v-251l121 1q57 1 78 30t22 94z" />
    <glyph glyph-name="uni044D" unicode="&#x44d;" horiz-adv-x="484" 
d="M416 363q8 -45 8 -113t-8 -113q-6 -38 -14 -60t-26 -43.5t-52 -30.5t-87 -9q-105 0 -141.5 38t-36.5 103v23h59v-25q0 -68 25 -92t94 -24q19 0 34.5 3t25.5 6.5t18 13t12 14.5t7 18.5t4 19.5t2.5 22.5t2.5 21.5q5 49 7 105q-24 22 -47 22q-25 0 -59 -22.5t-58 -22.5
q-26 0 -43.5 13.5t-37.5 41.5l5 14q25 -23 58 -23q15 0 47 15.5t61 15.5q43 0 74 -33q0 39 -7 100q0 4 -2 19.5t-2.5 20t-3 17.5t-5.5 18t-8.5 14.5t-12.5 13.5t-17 9t-23 7t-29 2q-65 0 -87.5 -26t-28.5 -107l-56 -1v151h41l5 -96q3 23 7 36t16 31t38 26.5t65 8.5
q94 0 129 -34.5t47 -108.5z" />
    <glyph glyph-name="uni044E" unicode="&#x44e;" horiz-adv-x="755" 
d="M687 363q8 -45 8 -113t-8 -113q-11 -72 -54.5 -107.5t-144.5 -35.5t-144.5 35.5t-54.5 107.5q-8 48 -8 99h-113v-211h49v-25h-192v25h70v814h-65v25q82 0 138 7v-610h113q0 52 8 102q11 71 55 107t144 36q99 0 143 -35.5t56 -107.5zM613 135q6 48 6 115q0 66 -6 114
q-6 57 -31 88t-94 31t-94 -31t-31 -88q-7 -56 -7 -114q0 -59 7 -115q3 -27 8.5 -45t18 -36.5t37 -27.5t61.5 -9t61.5 9t37 27.5t18 36.5t8.5 45z" />
    <glyph glyph-name="uni044F" unicode="&#x44f;" horiz-adv-x="523" 
d="M430 475v-450h70v-25h-231v25h88v221h-99q-52 0 -68.5 -13.5t-19.5 -55.5l-7 -94q-3 -32 -6 -48.5t-14 -24.5t-21.5 -9t-37.5 -1h-12h-53v25h21q30 0 38 9t11 47l7 90q3 45 33.5 65t69.5 21q-65 4 -92 32.5t-27 88.5q0 73 37.5 97.5t131.5 24.5h251v-25h-70zM357 475h-80
q-75 0 -98.5 -17.5t-23.5 -81.5q0 -63 31 -84t100 -21h71v204z" />
    <glyph glyph-name="uni0450" unicode="&#x450;" horiz-adv-x="493" 
d="M197 798q18 3 34 -27q39 -78 81 -148l-13 -7q-46 61 -81 98q-41 44 -41 60q0 21 20 24zM370 157h64q0 -85 -38.5 -124.5t-130.5 -39.5t-144.5 35t-58.5 128q-3 46 -3 94t3 94q6 93 56.5 128t136.5 35q78 0 126 -35.5t54 -127.5v-98h-301q0 -42 3 -96q5 -70 33 -102
t95 -32q63 0 84 32t21 109zM137 350q-3 -40 -3 -79h236q0 50 -1 76q-1 20 -2.5 33.5t-8 35t-17.5 35t-33 23.5t-53 10q-60 0 -86.5 -32t-31.5 -102z" />
    <glyph glyph-name="uni0451" unicode="&#x451;" horiz-adv-x="497" 
d="M174 586q-43 0 -43 43t43 43t43 -43t-43 -43zM323 586q-43 0 -43 43t43 43t43 -43t-43 -43zM370 157h64q0 -85 -38.5 -124.5t-130.5 -39.5t-144.5 35t-58.5 128q-3 46 -3 94t3 94q6 93 56.5 128t136.5 35q78 0 126 -35.5t54 -127.5v-98h-301q0 -42 3 -96q5 -70 33 -102
t95 -32q63 0 84 32t21 109zM137 350q-3 -40 -3 -79h236q0 50 -1 76q-1 20 -2.5 33.5t-8 35t-17.5 35t-33 23.5t-53 10q-60 0 -86.5 -32t-31.5 -102z" />
    <glyph glyph-name="uni0452" unicode="&#x452;" horiz-adv-x="552" 
d="M465 361l1 -321q-3 -104 -48 -143.5t-162 -39.5q-17 0 -41 3l2 24q18 -4 42 -4q75 0 104.5 36.5t29.5 132.5v305q0 20 -0.5 32t-5.5 32.5t-14 32t-27.5 20.5t-44.5 9q-50 0 -90 -43t-40 -109v-303h99v-25h-242v25h70v584h-70v25h70v201h-70v25q87 0 143 7v-233h165v-25
h-165v-205l1 -1q15 48 58.5 75.5t100.5 27.5q77 0 106 -37t28 -108z" />
    <glyph glyph-name="uni0453" unicode="&#x453;" horiz-adv-x="476" 
d="M269 771q14 30 34 27t20 -24q0 -16 -41 -60q-18 -19 -30.5 -34.5t-28 -37.5t-20.5 -28l-17 11q47 71 83 146zM428 158v-24q0 -64 -38.5 -102t-146.5 -38q-94 0 -137.5 32.5t-43.5 99.5q0 59 40.5 88t119.5 50q69 18 90 47.5t21 75.5q0 96 -77 96q-113 0 -116 -123h-62
v140h47l4 -96q20 102 129 102q147 0 147 -113q0 -58 -28.5 -91.5t-121.5 -57.5q-70 -19 -93.5 -45.5t-24.5 -74.5q-2 -108 109 -107q64 1 89 25.5t25 89.5v26h68z" />
    <glyph glyph-name="uni0458" unicode="&#x458;" horiz-adv-x="267" 
d="M134 754q27 0 40.5 -16t13.5 -39q0 -54 -54 -54q-29 0 -42 12.5t-13 40.5q0 56 55 56zM173 510v-52l1 -585q0 -71 -30 -96.5t-107 -25.5q-30 0 -56 4l1 25q26 -4 43 -4q12 0 22 1.5t17.5 3.5t13.5 7.5t9.5 7.5t6.5 11.5t4.5 12t2 15t0.5 15v17.5v18l-1 563v27h-70v25
q63 0 143 10z" />
    <glyph glyph-name="uni0459" unicode="&#x459;" horiz-adv-x="766" 
d="M415 301h98q105 0 151.5 -35t46.5 -106q0 -81 -49 -120.5t-157 -39.5h-233v25h77l1 447l-242 -447h60v-25h-163v25h72l243 450h-55v25h213v-25h-63v-174zM415 25h79q86 0 114 30.5t28 105.5q0 62 -32 88.5t-112 26.5h-77v-251z" />
    <glyph glyph-name="uni045A" unicode="&#x45a;" horiz-adv-x="792" 
d="M441 301h98q105 0 151.5 -35t46.5 -106q0 -81 -49 -120.5t-157 -39.5h-157v254h-215v-229h59v-25h-190v25h58v450h-58v25h190v-25h-59v-196h215v196h-58v25h184v-25h-59v-174zM441 26h79q86 0 114 30t28 105q0 61 -31.5 87t-112.5 28h-77v-250z" />
    <glyph glyph-name="uni045B" unicode="&#x45b;" horiz-adv-x="568" 
d="M515 25h30v-25h-92q-28 0 -41.5 8.5t-13.5 35.5v318q0 25 -2.5 41t-11.5 36.5t-31.5 31t-58.5 10.5q-53 0 -89.5 -40.5t-36.5 -112.5v-303h79v-25h-222v25h70v579h-70v25h70v206h-65v25q81 0 138 7v-238h165v-25h-165v-191q16 44 56.5 68.5t96.5 24.5q81 0 115.5 -36
t34.5 -101v-288q0 -56 44 -56z" />
    <glyph glyph-name="uni045D" unicode="&#x45d;" horiz-adv-x="575" 
d="M342 623l-13 -7q-46 61 -81 98q-41 44 -41 60q0 21 20 24q18 3 34 -27q39 -78 81 -148zM509 25h26v-25h-77q-46 0 -56 14.5t-8 71.5q-33 -92 -158 -92q-74 0 -108.5 34.5t-34.5 112.5v334h-70v25q87 0 143 7v-369q0 -24 3 -41t12.5 -37t31.5 -31t55 -11q53 0 88.5 45.5
t35.5 121.5v290h-70v25q87 0 143 7v-436q0 -29 8.5 -37.5t35.5 -8.5z" />
    <glyph glyph-name="uni045F" unicode="&#x45f;" horiz-adv-x="563" 
d="M540 475h-70v-450h70v-25h-225v-158h-54v158h-233v25h70v450h-70v25h202v-25h-59v-450h226v450h-58v25h201v-25z" />
    <glyph glyph-name="uni0490" unicode="&#x490;" horiz-adv-x="553" 
d="M547 835h-335v-810h88v-25h-249v25h78v810h-78v25h432v171l65 -1z" />
    <glyph glyph-name="uni0491" unicode="&#x491;" horiz-adv-x="417" 
d="M358 635h54v-160h-241v-450h59v-25h-202v25h70v450h-70v25h330v135z" />
    <glyph glyph-name="uni04EE" unicode="&#x4ee;" horiz-adv-x="640" 
d="M474 982v-23h-278v23h278zM385 860h164l-1 -646q0 -119 -55.5 -170t-174.5 -51q-203 0 -205 171v29h68v-27q0 -78 29 -112t109 -34q24 0 44 3.5t34.5 10.5t26 17t19 21.5t13 25.5t8 29.5t4.5 31.5t2 33v33.5v33.5l1 171h-1q-18 -62 -57.5 -88.5t-114.5 -26.5
q-98 0 -142 46.5t-44 121.5v352h-77v25h160v-346q0 -171 116 -171q84 0 119.5 52t35.5 152v288h-81v25z" />
    <glyph glyph-name="uni04EF" unicode="&#x4ef;" horiz-adv-x="543" 
d="M408 646v-23h-278v23h278zM323 475v25q82 0 138 7v-76l-1 -471q0 -117 -43 -163.5t-156 -46.5q-58 0 -96.5 11t-57 32.5t-25 44t-6.5 53.5v23h67v-16q0 -71 26.5 -98t90.5 -27q83 0 107.5 42.5t24.5 141.5v147q-8 -32 -27.5 -54.5t-44 -32.5t-44.5 -13.5t-40 -3.5
q-83 0 -115.5 39.5t-32.5 105.5v330h-65v25q82 0 138 7v-365q0 -118 90 -118q136 0 136 206v245h-64z" />
    <glyph glyph-name="Wgrave" unicode="&#x1e80;" horiz-adv-x="1004" 
d="M435 1046q-49 28 -67.5 43t-18.5 34q0 16 10 26.5t27 10.5q21 2 49 -28q91 -100 165 -166l-12 -13q-46 32 -153 93zM999 860v-25h-71l-207 -835h-89l-137 537l-152 -537h-86l-190 835h-62v25h261v-25h-114l174 -767h3l150 533l-60 234h-52v25h252v-25h-106l189 -767h2
l190 767h-119v25h224z" />
    <glyph glyph-name="wgrave" unicode="&#x1e81;" horiz-adv-x="698" 
d="M414 623l-13 -7q-46 61 -81 98q-41 44 -41 60q0 21 20 24q18 3 34 -27q39 -78 81 -148zM693 500v-25h-43l-128 -475h-77l-95 348l-94 -348h-75l-131 475h-45v25h201v-25h-84l117 -423l97 348l-20 75h-53v25h212v-25h-86l116 -424l116 424h-61v25h133z" />
    <glyph glyph-name="Wacute" unicode="&#x1e82;" horiz-adv-x="1004" 
d="M550 1047q-100 -57 -153 -94l-12 13q51 46 165 166q28 30 49 28q37 -3 37 -37q0 -19 -18 -33t-68 -43zM999 860v-25h-71l-207 -835h-89l-137 537l-152 -537h-86l-190 835h-62v25h261v-25h-114l174 -767h3l150 533l-60 234h-52v25h252v-25h-106l189 -767h2l190 767h-119
v25h224z" />
    <glyph glyph-name="wacute" unicode="&#x1e83;" horiz-adv-x="698" 
d="M384 714q-18 -19 -30.5 -34.5t-28 -37.5t-20.5 -28l-17 11q47 71 83 146q14 30 34 27t20 -24q0 -16 -41 -60zM693 500v-25h-43l-128 -475h-77l-95 348l-94 -348h-75l-131 475h-45v25h201v-25h-84l117 -423l97 348l-20 75h-53v25h212v-25h-86l116 -424l116 424h-61v25h133
z" />
    <glyph glyph-name="Wdieresis" unicode="&#x1e84;" horiz-adv-x="1004" 
d="M406 946q-43 0 -43 43t43 43t43 -43t-43 -43zM555 946q-43 0 -43 43t43 43t43 -43t-43 -43zM999 860v-25h-71l-207 -835h-89l-137 537l-152 -537h-86l-190 835h-62v25h261v-25h-114l174 -767h3l150 533l-60 234h-52v25h252v-25h-106l189 -767h2l190 767h-119v25h224z" />
    <glyph glyph-name="wdieresis" unicode="&#x1e85;" horiz-adv-x="698" 
d="M264 601q-51 0 -51 54q0 55 51 55q50 0 50 -55q0 -54 -50 -54zM424 601q-51 0 -51 54q0 55 51 55q50 0 50 -55q0 -54 -50 -54zM693 500v-25h-43l-128 -475h-77l-95 348l-94 -348h-75l-131 475h-45v25h201v-25h-84l117 -423l97 348l-20 75h-53v25h212v-25h-86l116 -424
l116 424h-61v25h133z" />
    <glyph glyph-name="Ygrave" unicode="&#x1ef2;" horiz-adv-x="700" 
d="M343 1046q-49 28 -67.5 43t-18.5 34q0 16 10 26.5t27 10.5q21 2 49 -28q91 -100 165 -166l-12 -13q-46 32 -153 93zM618 835l-213 -485v-325h142v-25h-367v25h142v325l-211 485h-106v25h309v-25h-115l192 -435l191 435h-105v25h218v-25h-77z" />
    <glyph glyph-name="ygrave" unicode="&#x1ef3;" horiz-adv-x="543" 
d="M336 623l-13 -7q-46 61 -81 98q-41 44 -41 60q0 21 20 24q18 3 34 -27q39 -78 81 -148zM323 475v25q82 0 138 7v-76l-1 -471q0 -117 -43 -163.5t-156 -46.5q-58 0 -96.5 11t-57 32.5t-25 44t-6.5 53.5v23h67v-16q0 -71 26.5 -98t90.5 -27q83 0 107.5 42.5t24.5 141.5v147
q-8 -32 -27.5 -54.5t-44 -32.5t-44.5 -13.5t-40 -3.5q-83 0 -115.5 39.5t-32.5 105.5v330h-65v25q82 0 138 7v-365q0 -118 90 -118q136 0 136 206v245h-64z" />
    <glyph glyph-name="endash" unicode="&#x2013;" horiz-adv-x="623" 
d="M530 356v-40h-437v40h437z" />
    <glyph glyph-name="emdash" unicode="&#x2014;" horiz-adv-x="920" 
d="M827 356v-40h-734v40h734z" />
    <glyph glyph-name="quoteleft" unicode="&#x2018;" horiz-adv-x="238" 
d="M83 795q5 18 15 25t32 7q53 0 53 -50q0 -59 -61 -59q-67 0 -67 81q0 115 122 131l5 -17q-64 -3 -85 -37.5t-14 -80.5z" />
    <glyph glyph-name="quoteright" unicode="&#x2019;" horiz-adv-x="238" 
d="M125 813q-5 -18 -15 -25t-32 -7q-53 0 -53 50q0 59 61 59q67 0 67 -81q0 -115 -122 -131l-5 17q64 3 85 37.5t14 80.5z" />
    <glyph glyph-name="quotesinglbase" unicode="&#x201a;" horiz-adv-x="238" 
d="M155 4q-5 -18 -15 -25t-32 -7q-53 0 -53 50q0 59 61 59q67 0 67 -81q0 -115 -122 -131l-5 17q64 3 85 37.5t14 80.5z" />
    <glyph glyph-name="quotedblleft" unicode="&#x201c;" horiz-adv-x="391" 
d="M83 795q5 18 15 25t32 7q53 0 53 -50q0 -59 -61 -59q-67 0 -67 81q0 115 122 131l5 -17q-64 -3 -85 -37.5t-14 -80.5zM236 795q5 18 15 25t32 7q53 0 53 -50q0 -59 -61 -59q-67 0 -67 81q0 115 122 131l5 -17q-64 -3 -85 -37.5t-14 -80.5z" />
    <glyph glyph-name="quotedblright" unicode="&#x201d;" horiz-adv-x="391" 
d="M155 813q-5 -18 -15 -25t-32 -7q-53 0 -53 50q0 59 61 59q67 0 67 -81q0 -115 -122 -131l-5 17q64 3 85 37.5t14 80.5zM308 813q-5 -18 -15 -25t-32 -7q-53 0 -53 50q0 59 61 59q67 0 67 -81q0 -115 -122 -131l-5 17q64 3 85 37.5t14 80.5z" />
    <glyph glyph-name="quotedblbase" unicode="&#x201e;" horiz-adv-x="391" 
d="M155 4q-5 -18 -15 -25t-32 -7q-53 0 -53 50q0 59 61 59q67 0 67 -81q0 -115 -122 -131l-5 17q64 3 85 37.5t14 80.5zM308 4q-5 -18 -15 -25t-32 -7q-53 0 -53 50q0 59 61 59q67 0 67 -81q0 -115 -122 -131l-5 17q64 3 85 37.5t14 80.5z" />
    <glyph glyph-name="ellipsis" unicode="&#x2026;" horiz-adv-x="627" 
d="M110 -20q-55 0 -55 55t55 55t55 -55t-55 -55zM317 -20q-55 0 -55 55t55 55t55 -55t-55 -55zM518 -20q-55 0 -55 55t55 55t55 -55t-55 -55z" />
    <glyph glyph-name="perthousand" unicode="&#x2030;" horiz-adv-x="1201" 
d="M348 660q0 -118 -33.5 -168.5t-113.5 -50.5q-79 0 -112.5 50.5t-33.5 168.5t33.5 168t112.5 50t113 -50t34 -168zM289 660q-1 109 -21 155.5t-67 46.5t-67.5 -46.5t-20.5 -155.5t20.5 -156t67.5 -47q49 0 69 47t19 156zM208 0h-21l416 860h21zM758 213
q0 -118 -33.5 -168.5t-113.5 -50.5q-79 0 -112.5 50.5t-33.5 168.5t33.5 168t112.5 50t113 -50t34 -168zM1146 213q0 -118 -33.5 -168.5t-113.5 -50.5q-79 0 -112.5 50.5t-33.5 168.5t33.5 168t112.5 50t113 -50t34 -168zM699 213q-1 109 -21 155.5t-67 46.5t-67.5 -46.5
t-20.5 -155.5t20.5 -156t67.5 -47q49 0 69 47t19 156zM1087 213q-1 109 -21 155.5t-67 46.5t-67.5 -46.5t-20.5 -155.5t20.5 -156t67.5 -47q49 0 69 47t19 156z" />
    <glyph glyph-name="guilsinglleft" unicode="&#x2039;" horiz-adv-x="279" 
d="M207 500h17q-17 -81 -37.5 -128t-61.5 -109q41 -63 61.5 -110t37.5 -128h-17q-21 77 -52.5 123t-99.5 115q76 79 103.5 120t48.5 117z" />
    <glyph glyph-name="guilsinglright" unicode="&#x203a;" horiz-adv-x="279" 
d="M55 500h17q21 -76 48.5 -117t103.5 -120q-68 -69 -99.5 -115t-52.5 -123h-17q17 81 37.5 128t61.5 110q-41 62 -61.5 109t-37.5 128z" />
    <glyph glyph-name="Euro" unicode="&#x20ac;" horiz-adv-x="705" 
d="M585 240h65v-40q0 -40 -6.5 -71t-25 -65.5t-60.5 -54t-104 -19.5q-44 0 -68 2t-55.5 11t-49.5 26.5t-36.5 51t-31.5 82.5q-21 82 -24 208h-119l5 25h113v25q0 36 1 54h-134l5 25h130q5 118 22 197q23 102 68 137t147 35q131 0 150 -107l6 103h56v-223h-65l-4 42
q-8 86 -40.5 122.5t-103.5 36.5q-73 0 -97.5 -29t-38.5 -126q-10 -66 -13 -188h266l-4 -25h-263q-1 -24 -1 -73v-6h225l-5 -25h-220q2 -137 15 -203q10 -51 23 -81.5t34 -46.5t44.5 -20.5t62.5 -3.5q80 3 105.5 49.5t25.5 141.5v33z" />
    <glyph glyph-name="trademark" unicode="&#x2122;" horiz-adv-x="883" 
d="M331 731v113h-97v-446h79v-17l-204 1v16h79v446h-97v-113h-36v129h312v-129h-36zM785 398h43v-16h-133v16h44v443h-3l-122 -459h-39l-119 459h-3v-443h49v-16h-111v16h44v446h-44v16h106l112 -432h1l114 432h104v-16h-43v-446z" />
    <glyph glyph-name="minus" unicode="&#x2212;" horiz-adv-x="488" 
d="M433 391v-21h-378v21h378z" />
    <glyph glyph-name="uni040C.bg" horiz-adv-x="678" 
d="M466 1160q37 -3 37 -37q0 -19 -18 -33t-68 -43q-100 -57 -153 -94l-12 13q51 46 165 166q28 30 49 28zM638 25h35v-25h-61h-19q-29 0 -41.5 0.5t-30 4.5t-23.5 12t-14.5 24.5t-11.5 40t-6 59.5l-12 170q-5 63 -41.5 92.5t-122.5 29.5h-78v-408h108v-25h-269v25h78v810
h-78v25h255v-25h-94v-372h76q46 0 73.5 10.5t44.5 42t24 68t16 110.5l16 141h-68v25h230v-25h-86l-19 -149q-15 -130 -44.5 -178t-101.5 -59q157 -12 168 -158l13 -154q6 -68 20.5 -90t63.5 -22z" />
    <glyph glyph-name="uni045D.bg" horiz-adv-x="575" 
d="M342 623l-13 -7q-46 61 -81 98q-41 44 -41 60q0 21 20 24q18 3 34 -27q39 -78 81 -148zM509 25h26v-25h-77q-46 0 -56 14.5t-8 71.5q-33 -92 -158 -92q-74 0 -108.5 34.5t-34.5 112.5v334h-70v25q87 0 143 7v-369q0 -24 3 -41t12.5 -37t31.5 -31t55 -11q53 0 88.5 45.5
t35.5 121.5v290h-70v25q87 0 143 7v-436q0 -29 8.5 -37.5t35.5 -8.5z" />
    <glyph glyph-name="uni045C.bg" horiz-adv-x="521" 
d="M309 771q14 30 34 27t20 -24q0 -16 -41 -60q-18 -19 -30.5 -34.5t-28 -37.5t-20.5 -28l-17 11q47 71 83 146zM477 15h21v-15h-54h-14q-26 0 -36.5 1t-21 9t-14 24t-5.5 48l-7 99q-3 42 -25.5 55.5t-99.5 13.5h-55v-225h79v-25h-222v25h70v450h-60v25h133v-235h53
q28 0 47 2.5t32.5 11.5t21 16.5t13 28t8 35t6.5 46.5l11 80h-45v15h156v-15h-51l-13 -85q-9 -78 -27 -105t-68 -33l-1 -1q105 -8 112 -92l7 -90q3 -39 11.5 -51.5t37.5 -12.5z" />
    <glyph glyph-name="comma.case" horiz-adv-x="660" 
d="M323 -26q-117 0 -184 68t-67 175q0 113 66 181t187 68q280 0 280 -360q0 -90 -15 -166.5t-51.5 -146.5t-92.5 -119.5t-143.5 -78.5t-198.5 -29l-4 32q236 1 360 140t106 404q-60 -168 -243 -168z" />
    <glyph glyph-name="questiondown.case" horiz-adv-x="421" 
d="M226 868q55 0 55 -55t-55 -55t-55 55t55 55zM213 -11q-45 0 -76 4.5t-52 17.5t-33 27.5t-18 43.5t-7.5 56.5t-1.5 75.5q0 52 13.5 85.5t33 46.5t43 28t43 29.5t33 50t13.5 90.5v113h47v-113q0 -54 -16 -89t-38.5 -53t-45 -37t-38.5 -56t-16 -95v-10q0 -37 0.5 -54
t2.5 -43t6.5 -37t12.5 -26t20.5 -20.5t30.5 -10t43 -4.5q60 0 82 28t27 94l1 112h73l-1 -109q-6 -88 -50.5 -116.5t-131.5 -28.5z" />
    <glyph glyph-name="braceleft.case" horiz-adv-x="356" 
d="M199 879v-351q0 -89 -85 -94q85 -5 85 -94v-329q0 -111 77 -111h25v-25h-27q-80 0 -113 34t-33 101v338q0 44 -12 58.5t-48 14.5h-13v26h13q36 0 48 14.5t12 58.5v350q0 67 33 101t113 34h27v-25h-25q-36 0 -56.5 -26t-20.5 -75z" />
    <glyph glyph-name="braceright.case" horiz-adv-x="339" 
d="M157 528v351q0 49 -20.5 75t-56.5 26h-25v25h27q80 0 113 -34t33 -101v-350q0 -44 12 -58.5t48 -14.5h13v-26h-13q-36 0 -48 -14.5t-12 -58.5v-338q0 -67 -33 -101t-113 -34h-27v25h25q77 0 77 111v329q0 89 85 94q-85 5 -85 94z" />
    <glyph glyph-name="emdash.case" horiz-adv-x="924" 
d="M829 364v-40h-734v40h734z" />
    <glyph glyph-name="endash.case" horiz-adv-x="627" 
d="M532 364v-40h-437v40h437z" />
    <glyph glyph-name="hyphen.case" horiz-adv-x="516" 
d="M421 364v-40h-326v40h326z" />
    <glyph glyph-name="guillemotleft.case" horiz-adv-x="469" 
d="M209 585h17q-17 -81 -37.5 -128t-61.5 -109q41 -63 61.5 -110t37.5 -128h-17q-20 72 -49.5 118.5t-101.5 119.5q67 68 98.5 114t52.5 123zM379 585h17q-17 -81 -37.5 -128t-61.5 -109q41 -63 61.5 -110t37.5 -128h-17q-21 77 -52.5 123t-98.5 115q67 68 98.5 114
t52.5 123z" />
    <glyph glyph-name="guillemotright.case" horiz-adv-x="449" 
d="M56 616h17q21 -77 52.5 -123t98.5 -114q-67 -69 -98.5 -115t-52.5 -123h-17q17 81 37.5 128t61.5 110q-41 62 -61.5 109t-37.5 128zM226 616h17q21 -77 52.5 -123t98.5 -114q-72 -73 -101.5 -119.5t-49.5 -118.5h-17q17 81 37.5 128t61.5 110q-41 62 -61.5 109t-37.5 128
z" />
    <glyph glyph-name="guilsinglleft.case" horiz-adv-x="279" 
d="M207 616h17q-17 -81 -37.5 -128t-61.5 -109q41 -63 61.5 -110t37.5 -128h-17q-21 77 -52.5 123t-99.5 115q76 79 103.5 120t48.5 117z" />
    <glyph glyph-name="guilsinglright.case" horiz-adv-x="279" 
d="M55 616h17q21 -76 48.5 -117t103.5 -120q-68 -69 -99.5 -115t-52.5 -123h-17q17 81 37.5 128t61.5 110q-41 62 -61.5 109t-37.5 128z" />
    <glyph glyph-name="quotedblbase.case" horiz-adv-x="1353" 
d="M323 382q-117 0 -184 68t-67 175q0 113 66 181t187 68q280 0 280 -360q0 -90 -15 -166.5t-51.5 -146.5t-92.5 -119.5t-143.5 -78.5t-198.5 -29l-4 32q236 1 360 140t106 404q-60 -168 -243 -168zM1016 382q-117 0 -184 68t-67 175q0 113 66 181t187 68q280 0 280 -360
q0 -90 -15 -166.5t-51.5 -146.5t-92.5 -119.5t-143.5 -78.5t-198.5 -29l-4 32q236 1 360 140t106 404q-60 -168 -243 -168z" />
    <glyph glyph-name="quotedblleft.case" horiz-adv-x="1257" 
d="M337 492q117 0 184 -68t67 -175q0 -113 -66 -181t-187 -68q-280 0 -280 360q0 90 15 166.5t51.5 146.5t92.5 119.5t143.5 78.5t198.5 29l4 -32q-236 -1 -360 -140t-106 -404q60 168 243 168zM958 492q117 0 184 -68t67 -175q0 -113 -66 -181t-187 -68q-280 0 -280 360
q0 90 15 166.5t51.5 146.5t92.5 119.5t143.5 78.5t198.5 29l4 -32q-236 -1 -360 -140t-106 -404q60 168 243 168z" />
    <glyph glyph-name="uni0308.case" 
d="M-247 586q-43 0 -43 43t43 43t43 -43t-43 -43zM-98 586q-43 0 -43 43t43 43t43 -43t-43 -43z" />
    <glyph glyph-name="uni0307.case" 
d="M-148 586q-43 0 -43 43t43 43t43 -43t-43 -43z" />
    <glyph glyph-name="gravecomb.case" 
d="M-277 800q21 2 49 -28q91 -100 165 -166l-12 -13q-46 32 -153 93q-49 28 -67.5 43t-18.5 34q0 16 10 26.5t27 10.5z" />
    <glyph glyph-name="acutecomb.case" 
d="M-94 800q37 -3 37 -37q0 -19 -18 -33t-68 -43q-100 -57 -153 -94l-12 13q51 46 165 166q28 30 49 28z" />
    <glyph glyph-name="uni030B.case" 
d="M-319 800q37 -3 37 -37q0 -19 -18.5 -34t-67.5 -43q-107 -61 -153 -93l-12 13q51 46 165 166q28 30 49 28zM-103 800q37 -3 37 -37q0 -19 -18.5 -34t-67.5 -43q-107 -61 -153 -93l-12 13q51 46 165 166q28 30 49 28z" />
    <glyph glyph-name="uni0302.case" 
d="M-179 732q68 -80 123 -135l-14 -13q-62 47 -149 101q-87 -54 -149 -101l-14 13q55 55 123 135q18 21 40 21t40 -21z" />
    <glyph glyph-name="uni030C.case" 
d="M-180 604q-18 -21 -40 -21q-21 0 -40 21q-13 14 -54 62t-68 73l14 13q90 -73 148 -106q55 32 149 106l12 -13q-42 -42 -121 -135z" />
    <glyph glyph-name="uni0306.case" 
d="M-81 754h26q0 -170 -154 -170t-154 170h27q0 -54 37.5 -80.5t89.5 -26.5q53 0 90.5 26.5t37.5 80.5z" />
    <glyph glyph-name="uni030A.case" 
d="M-186 588q-113 0 -115 96q0 97 115 97q57 0 85 -26t28 -71q-2 -96 -113 -96zM-185 607q74 0 74 78q2 77 -75 77q-42 0 -59.5 -19.5t-18.5 -58.5q0 -77 79 -77z" />
    <glyph glyph-name="tildecomb.case" 
d="M-103 695h21q-1 -49 -27.5 -75.5t-75.5 -26.5q-42 0 -91.5 32.5t-78.5 32.5q-28 0 -41.5 -16.5t-13.5 -42.5h-21q1 49 27.5 75.5t75.5 26.5q42 0 91.5 -32.5t78.5 -32.5q28 0 41.5 16.5t13.5 42.5z" />
    <glyph glyph-name="uni0304.case" 
d="M-334 622h278v-23h-278v23z" />
    <glyph glyph-name="uni0327.case" 
d="M-161 4h26l-25 -51q18 2 32 2q73 0 73 -63q0 -33 -22.5 -52.5t-44.5 -24t-47 -4.5q-38 0 -80 18l10 30q34 -17 66 -17q22 0 36 11.5t14 31.5q0 41 -80 37z" />
    <glyph glyph-name="uni0328.case" 
d="M-146 13h23q-78 -49 -78 -116q0 -58 64 -58q35 0 69 28l7 -9q-54 -48 -102 -48q-42 0 -64.5 19.5t-22.5 54.5q0 81 104 129z" />
    <glyph glyph-name="acute.case" horiz-adv-x="382" 
d="M290 816q16 1 26 -10t11 -23q1 -17 -14 -31.5t-65 -48.5q-55 -39 -158 -110h-35q9 9 31 30.5t45.5 45t50.5 51.5q14 14 30.5 32t25 27.5t18.5 19t18 13.5t16 4z" />
    <glyph glyph-name="ohungarumlautcomb" horiz-adv-x="610" 
 />
    </font>
</defs>
</svg>
