<svg xmlns="http://www.w3.org/2000/svg" width="262" height="217" viewBox="0 0 262 217"><g><g><path fill="#fff" d="M15 7h106.013c.26 5.014 4.408 9 9.487 9s9.227-3.986 9.487-9H247c1.029 0 2.033.103 3.004.3.157 6.39 5.307 11.54 11.695 11.696.197.97.3 1.975.3 3.004v174c0 1.029-.103 2.033-.3 3.004-6.388.157-11.538 5.306-11.695 11.695-.97.197-1.975.3-3.004.3H139.987a9.5 9.5 0 1 0-18.974 0H15c-1.029 0-2.033-.103-3.004-.3C11.84 204.31 6.69 199.16.301 199.004.103 198.034 0 197.029 0 196V22c0-1.029.103-2.033.3-3.004C6.69 18.84 11.84 13.69 11.997 7.301 12.966 7.103 13.971 7 15 7zm115.5 197a6.5 6.5 0 1 1 0 13 6.5 6.5 0 0 1 0-13zm0-204a6.5 6.5 0 1 1 0 13 6.5 6.5 0 0 1 0-13z"/></g></g></svg>