<svg xmlns="http://www.w3.org/2000/svg" width="627" height="31" viewBox="0 0 627 31"><g><g><path fill="#919195" d="M2.5 0a2.5 2.5 0 1 1 0 5 2.5 2.5 0 0 1 0-5z"/></g><g><path fill="#919195" d="M116.5 0a2.5 2.5 0 1 1 0 5 2.5 2.5 0 0 1 0-5z"/></g><g><path fill="#919195" d="M482.5 0a2.5 2.5 0 1 1 0 5 2.5 2.5 0 0 1 0-5z"/></g><g><path fill="#919195" d="M2 0h1v31H2zm114 0h1v31h-1zm366 0h1v31h-1zM8 23h1v8H8zm6 0h1v8h-1zm6 0h1v8h-1zm6 0h1v8h-1zm6 0h1v8h-1zm6 0h1v8h-1zm6 0h1v8h-1zm6 0h1v8h-1zm6 0h1v8h-1zm6 0h1v8h-1zm6 0h1v8h-1zm6 0h1v8h-1zm6 0h1v8h-1zm6 0h1v8h-1zm6 0h1v8h-1zm6 0h1v8h-1zm6 0h1v8h-1zm6 0h1v8h-1zm12 0h1v8h-1zm6 0h1v8h-1zm6 0h1v8h-1zm6 0h1v8h-1zm6 0h1v8h-1zm6 0h1v8h-1zm6 0h1v8h-1zm6 0h1v8h-1zm6 0h1v8h-1zm6 0h1v8h-1zm6 0h1v8h-1zm6 0h1v8h-1zm6 0h1v8h-1zm6 0h1v8h-1zm6 0h1v8h-1zm6 0h1v8h-1zm6 0h1v8h-1zm6 0h1v8h-1zm6 0h1v8h-1zm6 0h1v8h-1zm6 0h1v8h-1zm6 0h1v8h-1zm6 0h1v8h-1zm6 0h1v8h-1zm6 0h1v8h-1zm6 0h1v8h-1zm6 0h1v8h-1zm6 0h1v8h-1zm6 0h1v8h-1zm6 0h1v8h-1zm6 0h1v8h-1zm6 0h1v8h-1zm6 0h1v8h-1zm6 0h1v8h-1zm6 0h1v8h-1zm6 0h1v8h-1zm6 0h1v8h-1zm6 0h1v8h-1zm6 0h1v8h-1zm6 0h1v8h-1zm6 0h1v8h-1zm6 0h1v8h-1zm6 0h1v8h-1zm6 0h1v8h-1zm6 0h1v8h-1zm6 0h1v8h-1zm6 0h1v8h-1zm6 0h1v8h-1zm6 0h1v8h-1zm6 0h1v8h-1zm6 0h1v8h-1zm6 0h1v8h-1zm6 0h1v8h-1zm6 0h1v8h-1zm6 0h1v8h-1zm6 0h1v8h-1zm6 0h1v8h-1zm6 0h1v8h-1zm6 0h1v8h-1zm6 0h1v8h-1zm12 0h1v8h-1zm6 0h1v8h-1zm6 0h1v8h-1zm6 0h1v8h-1zm6 0h1v8h-1zm6 0h1v8h-1zm6 0h1v8h-1zm6 0h1v8h-1zm6 0h1v8h-1zm6 0h1v8h-1zm6 0h1v8h-1zm6 0h1v8h-1zm6 0h1v8h-1zm6 0h1v8h-1zm6 0h1v8h-1zm6 0h1v8h-1zm6 0h1v8h-1zm6 0h1v8h-1zm6 0h1v8h-1zm6 0h1v8h-1zm6 0h1v8h-1zm6 0h1v8h-1zm6 0h1v8h-1zm6 0h1v8h-1z"/></g></g></svg>